G75*
G70*
%OFA0B0*%
%FSLAX24Y24*%
%IPPOS*%
%LPD*%
%AMOC8*
5,1,8,0,0,1.08239X$1,22.5*
%
%ADD10C,0.0000*%
%ADD11C,0.1340*%
%ADD12R,0.0867X0.0395*%
%ADD13R,0.0395X0.0552*%
%ADD14R,0.0395X0.0631*%
%ADD15R,0.1497X0.1497*%
%ADD16R,0.0595X0.0595*%
%ADD17C,0.0595*%
D10*
X000656Y002155D02*
X000656Y018655D01*
X001526Y018655D02*
X001528Y018705D01*
X001534Y018755D01*
X001544Y018804D01*
X001558Y018852D01*
X001575Y018899D01*
X001596Y018944D01*
X001621Y018988D01*
X001649Y019029D01*
X001681Y019068D01*
X001715Y019105D01*
X001752Y019139D01*
X001792Y019169D01*
X001834Y019196D01*
X001878Y019220D01*
X001924Y019241D01*
X001971Y019257D01*
X002019Y019270D01*
X002069Y019279D01*
X002118Y019284D01*
X002169Y019285D01*
X002219Y019282D01*
X002268Y019275D01*
X002317Y019264D01*
X002365Y019249D01*
X002411Y019231D01*
X002456Y019209D01*
X002499Y019183D01*
X002540Y019154D01*
X002579Y019122D01*
X002615Y019087D01*
X002647Y019049D01*
X002677Y019009D01*
X002704Y018966D01*
X002727Y018922D01*
X002746Y018876D01*
X002762Y018828D01*
X002774Y018779D01*
X002782Y018730D01*
X002786Y018680D01*
X002786Y018630D01*
X002782Y018580D01*
X002774Y018531D01*
X002762Y018482D01*
X002746Y018434D01*
X002727Y018388D01*
X002704Y018344D01*
X002677Y018301D01*
X002647Y018261D01*
X002615Y018223D01*
X002579Y018188D01*
X002540Y018156D01*
X002499Y018127D01*
X002456Y018101D01*
X002411Y018079D01*
X002365Y018061D01*
X002317Y018046D01*
X002268Y018035D01*
X002219Y018028D01*
X002169Y018025D01*
X002118Y018026D01*
X002069Y018031D01*
X002019Y018040D01*
X001971Y018053D01*
X001924Y018069D01*
X001878Y018090D01*
X001834Y018114D01*
X001792Y018141D01*
X001752Y018171D01*
X001715Y018205D01*
X001681Y018242D01*
X001649Y018281D01*
X001621Y018322D01*
X001596Y018366D01*
X001575Y018411D01*
X001558Y018458D01*
X001544Y018506D01*
X001534Y018555D01*
X001528Y018605D01*
X001526Y018655D01*
X000656Y018655D02*
X000658Y018731D01*
X000664Y018807D01*
X000673Y018882D01*
X000687Y018957D01*
X000704Y019031D01*
X000725Y019104D01*
X000749Y019176D01*
X000778Y019247D01*
X000809Y019316D01*
X000844Y019383D01*
X000883Y019448D01*
X000925Y019512D01*
X000970Y019573D01*
X001018Y019632D01*
X001069Y019688D01*
X001123Y019742D01*
X001179Y019793D01*
X001238Y019841D01*
X001299Y019886D01*
X001363Y019928D01*
X001428Y019967D01*
X001495Y020002D01*
X001564Y020033D01*
X001635Y020062D01*
X001707Y020086D01*
X001780Y020107D01*
X001854Y020124D01*
X001929Y020138D01*
X002004Y020147D01*
X002080Y020153D01*
X002156Y020155D01*
X013656Y020155D01*
X013026Y018655D02*
X013028Y018705D01*
X013034Y018755D01*
X013044Y018804D01*
X013058Y018852D01*
X013075Y018899D01*
X013096Y018944D01*
X013121Y018988D01*
X013149Y019029D01*
X013181Y019068D01*
X013215Y019105D01*
X013252Y019139D01*
X013292Y019169D01*
X013334Y019196D01*
X013378Y019220D01*
X013424Y019241D01*
X013471Y019257D01*
X013519Y019270D01*
X013569Y019279D01*
X013618Y019284D01*
X013669Y019285D01*
X013719Y019282D01*
X013768Y019275D01*
X013817Y019264D01*
X013865Y019249D01*
X013911Y019231D01*
X013956Y019209D01*
X013999Y019183D01*
X014040Y019154D01*
X014079Y019122D01*
X014115Y019087D01*
X014147Y019049D01*
X014177Y019009D01*
X014204Y018966D01*
X014227Y018922D01*
X014246Y018876D01*
X014262Y018828D01*
X014274Y018779D01*
X014282Y018730D01*
X014286Y018680D01*
X014286Y018630D01*
X014282Y018580D01*
X014274Y018531D01*
X014262Y018482D01*
X014246Y018434D01*
X014227Y018388D01*
X014204Y018344D01*
X014177Y018301D01*
X014147Y018261D01*
X014115Y018223D01*
X014079Y018188D01*
X014040Y018156D01*
X013999Y018127D01*
X013956Y018101D01*
X013911Y018079D01*
X013865Y018061D01*
X013817Y018046D01*
X013768Y018035D01*
X013719Y018028D01*
X013669Y018025D01*
X013618Y018026D01*
X013569Y018031D01*
X013519Y018040D01*
X013471Y018053D01*
X013424Y018069D01*
X013378Y018090D01*
X013334Y018114D01*
X013292Y018141D01*
X013252Y018171D01*
X013215Y018205D01*
X013181Y018242D01*
X013149Y018281D01*
X013121Y018322D01*
X013096Y018366D01*
X013075Y018411D01*
X013058Y018458D01*
X013044Y018506D01*
X013034Y018555D01*
X013028Y018605D01*
X013026Y018655D01*
X013656Y020155D02*
X013732Y020153D01*
X013808Y020147D01*
X013883Y020138D01*
X013958Y020124D01*
X014032Y020107D01*
X014105Y020086D01*
X014177Y020062D01*
X014248Y020033D01*
X014317Y020002D01*
X014384Y019967D01*
X014449Y019928D01*
X014513Y019886D01*
X014574Y019841D01*
X014633Y019793D01*
X014689Y019742D01*
X014743Y019688D01*
X014794Y019632D01*
X014842Y019573D01*
X014887Y019512D01*
X014929Y019448D01*
X014968Y019383D01*
X015003Y019316D01*
X015034Y019247D01*
X015063Y019176D01*
X015087Y019104D01*
X015108Y019031D01*
X015125Y018957D01*
X015139Y018882D01*
X015148Y018807D01*
X015154Y018731D01*
X015156Y018655D01*
X015156Y002155D01*
X015154Y002079D01*
X015148Y002003D01*
X015139Y001928D01*
X015125Y001853D01*
X015108Y001779D01*
X015087Y001706D01*
X015063Y001634D01*
X015034Y001563D01*
X015003Y001494D01*
X014968Y001427D01*
X014929Y001362D01*
X014887Y001298D01*
X014842Y001237D01*
X014794Y001178D01*
X014743Y001122D01*
X014689Y001068D01*
X014633Y001017D01*
X014574Y000969D01*
X014513Y000924D01*
X014449Y000882D01*
X014384Y000843D01*
X014317Y000808D01*
X014248Y000777D01*
X014177Y000748D01*
X014105Y000724D01*
X014032Y000703D01*
X013958Y000686D01*
X013883Y000672D01*
X013808Y000663D01*
X013732Y000657D01*
X013656Y000655D01*
X002156Y000655D01*
X002080Y000657D01*
X002004Y000663D01*
X001929Y000672D01*
X001854Y000686D01*
X001780Y000703D01*
X001707Y000724D01*
X001635Y000748D01*
X001564Y000777D01*
X001495Y000808D01*
X001428Y000843D01*
X001363Y000882D01*
X001299Y000924D01*
X001238Y000969D01*
X001179Y001017D01*
X001123Y001068D01*
X001069Y001122D01*
X001018Y001178D01*
X000970Y001237D01*
X000925Y001298D01*
X000883Y001362D01*
X000844Y001427D01*
X000809Y001494D01*
X000778Y001563D01*
X000749Y001634D01*
X000725Y001706D01*
X000704Y001779D01*
X000687Y001853D01*
X000673Y001928D01*
X000664Y002003D01*
X000658Y002079D01*
X000656Y002155D01*
D11*
X002156Y018655D03*
X013656Y018655D03*
D12*
X002693Y015041D03*
X002693Y014450D03*
X002693Y013269D03*
D13*
X002358Y012679D03*
X002358Y015631D03*
D14*
X001453Y015592D03*
X001453Y012718D03*
D15*
X001941Y003905D03*
X013870Y003905D03*
D16*
X012406Y007405D03*
X007406Y007405D03*
X002406Y007405D03*
D17*
X003406Y007405D03*
X008406Y007405D03*
X013406Y007405D03*
M02*
