G75*
G70*
%OFA0B0*%
%FSLAX24Y24*%
%IPPOS*%
%LPD*%
%AMOC8*
5,1,8,0,0,1.08239X$1,22.5*
%
%ADD10C,0.0000*%
%ADD11C,0.1340*%
%ADD12R,0.1226X0.0025*%
%ADD13R,0.0126X0.0025*%
%ADD14R,0.0100X0.0025*%
%ADD15R,0.0125X0.0025*%
%ADD16R,0.0124X0.0025*%
%ADD17R,1.2425X0.0025*%
%ADD18R,1.2474X0.0025*%
%ADD19R,1.2525X0.0025*%
%ADD20R,1.2549X0.0025*%
%ADD21R,1.2501X0.0025*%
%ADD22R,1.2475X0.0025*%
%ADD23R,1.2450X0.0025*%
%ADD24R,0.0849X0.0025*%
%ADD25R,0.0150X0.0025*%
%ADD26R,0.0850X0.0025*%
%ADD27R,0.0824X0.0025*%
%ADD28R,0.0825X0.0025*%
%ADD29R,0.0800X0.0025*%
%ADD30R,0.0799X0.0025*%
%ADD31R,0.0776X0.0025*%
%ADD32R,0.0774X0.0025*%
%ADD33R,0.0775X0.0025*%
%ADD34R,0.0750X0.0025*%
%ADD35R,0.0749X0.0025*%
%ADD36R,0.0725X0.0025*%
%ADD37R,0.0725X0.0025*%
%ADD38R,0.0700X0.0025*%
%ADD39R,0.0125X0.0025*%
%ADD40R,0.0100X0.0025*%
%ADD41R,0.1226X0.0025*%
%ADD42R,0.0126X0.0025*%
%ADD43R,0.0124X0.0025*%
%ADD44R,0.0701X0.0025*%
%ADD45R,0.0676X0.0025*%
%ADD46R,0.0700X0.0025*%
%ADD47R,0.0701X0.0025*%
%ADD48R,0.0675X0.0025*%
%ADD49R,0.0074X0.0025*%
%ADD50R,0.0076X0.0025*%
%ADD51R,0.0676X0.0025*%
%ADD52R,0.0650X0.0025*%
%ADD53R,0.1226X0.0025*%
%ADD54R,0.0651X0.0025*%
%ADD55R,0.0651X0.0025*%
%ADD56R,0.0650X0.0025*%
%ADD57R,0.0625X0.0025*%
%ADD58R,0.0624X0.0025*%
%ADD59R,0.0600X0.0025*%
%ADD60R,0.0599X0.0025*%
%ADD61R,0.0576X0.0025*%
%ADD62R,0.0575X0.0025*%
%ADD63R,0.0574X0.0025*%
%ADD64R,0.0550X0.0025*%
%ADD65R,0.0549X0.0025*%
%ADD66R,0.0525X0.0025*%
%ADD67R,0.1250X0.0025*%
%ADD68R,0.1326X0.0025*%
%ADD69R,0.1374X0.0025*%
%ADD70R,0.1501X0.0025*%
%ADD71R,0.1626X0.0025*%
%ADD72R,0.1200X0.0025*%
%ADD73R,0.0201X0.0025*%
%ADD74R,0.0151X0.0025*%
%ADD75R,0.0075X0.0025*%
%ADD76R,0.1224X0.0025*%
%ADD77R,0.1176X0.0025*%
%ADD78R,0.0974X0.0025*%
%ADD79R,0.1000X0.0025*%
%ADD80R,0.0949X0.0025*%
%ADD81R,0.0025X0.0025*%
%ADD82R,0.0874X0.0025*%
%ADD83R,0.0024X0.0025*%
%ADD84R,0.0601X0.0025*%
%ADD85R,0.0501X0.0025*%
%ADD86R,0.0476X0.0025*%
%ADD87R,0.0425X0.0025*%
%ADD88R,0.0401X0.0025*%
%ADD89R,0.0376X0.0025*%
%ADD90R,0.0325X0.0025*%
%ADD91R,0.0301X0.0025*%
%ADD92R,0.0276X0.0025*%
%ADD93R,0.0250X0.0025*%
%ADD94R,0.0224X0.0025*%
%ADD95R,0.0200X0.0025*%
%ADD96R,0.0176X0.0025*%
%ADD97R,0.0595X0.0595*%
%ADD98C,0.0595*%
D10*
X000656Y002155D02*
X000656Y018655D01*
X001526Y018655D02*
X001528Y018705D01*
X001534Y018755D01*
X001544Y018804D01*
X001558Y018852D01*
X001575Y018899D01*
X001596Y018944D01*
X001621Y018988D01*
X001649Y019029D01*
X001681Y019068D01*
X001715Y019105D01*
X001752Y019139D01*
X001792Y019169D01*
X001834Y019196D01*
X001878Y019220D01*
X001924Y019241D01*
X001971Y019257D01*
X002019Y019270D01*
X002069Y019279D01*
X002118Y019284D01*
X002169Y019285D01*
X002219Y019282D01*
X002268Y019275D01*
X002317Y019264D01*
X002365Y019249D01*
X002411Y019231D01*
X002456Y019209D01*
X002499Y019183D01*
X002540Y019154D01*
X002579Y019122D01*
X002615Y019087D01*
X002647Y019049D01*
X002677Y019009D01*
X002704Y018966D01*
X002727Y018922D01*
X002746Y018876D01*
X002762Y018828D01*
X002774Y018779D01*
X002782Y018730D01*
X002786Y018680D01*
X002786Y018630D01*
X002782Y018580D01*
X002774Y018531D01*
X002762Y018482D01*
X002746Y018434D01*
X002727Y018388D01*
X002704Y018344D01*
X002677Y018301D01*
X002647Y018261D01*
X002615Y018223D01*
X002579Y018188D01*
X002540Y018156D01*
X002499Y018127D01*
X002456Y018101D01*
X002411Y018079D01*
X002365Y018061D01*
X002317Y018046D01*
X002268Y018035D01*
X002219Y018028D01*
X002169Y018025D01*
X002118Y018026D01*
X002069Y018031D01*
X002019Y018040D01*
X001971Y018053D01*
X001924Y018069D01*
X001878Y018090D01*
X001834Y018114D01*
X001792Y018141D01*
X001752Y018171D01*
X001715Y018205D01*
X001681Y018242D01*
X001649Y018281D01*
X001621Y018322D01*
X001596Y018366D01*
X001575Y018411D01*
X001558Y018458D01*
X001544Y018506D01*
X001534Y018555D01*
X001528Y018605D01*
X001526Y018655D01*
X000656Y018655D02*
X000658Y018731D01*
X000664Y018807D01*
X000673Y018882D01*
X000687Y018957D01*
X000704Y019031D01*
X000725Y019104D01*
X000749Y019176D01*
X000778Y019247D01*
X000809Y019316D01*
X000844Y019383D01*
X000883Y019448D01*
X000925Y019512D01*
X000970Y019573D01*
X001018Y019632D01*
X001069Y019688D01*
X001123Y019742D01*
X001179Y019793D01*
X001238Y019841D01*
X001299Y019886D01*
X001363Y019928D01*
X001428Y019967D01*
X001495Y020002D01*
X001564Y020033D01*
X001635Y020062D01*
X001707Y020086D01*
X001780Y020107D01*
X001854Y020124D01*
X001929Y020138D01*
X002004Y020147D01*
X002080Y020153D01*
X002156Y020155D01*
X013656Y020155D01*
X013026Y018655D02*
X013028Y018705D01*
X013034Y018755D01*
X013044Y018804D01*
X013058Y018852D01*
X013075Y018899D01*
X013096Y018944D01*
X013121Y018988D01*
X013149Y019029D01*
X013181Y019068D01*
X013215Y019105D01*
X013252Y019139D01*
X013292Y019169D01*
X013334Y019196D01*
X013378Y019220D01*
X013424Y019241D01*
X013471Y019257D01*
X013519Y019270D01*
X013569Y019279D01*
X013618Y019284D01*
X013669Y019285D01*
X013719Y019282D01*
X013768Y019275D01*
X013817Y019264D01*
X013865Y019249D01*
X013911Y019231D01*
X013956Y019209D01*
X013999Y019183D01*
X014040Y019154D01*
X014079Y019122D01*
X014115Y019087D01*
X014147Y019049D01*
X014177Y019009D01*
X014204Y018966D01*
X014227Y018922D01*
X014246Y018876D01*
X014262Y018828D01*
X014274Y018779D01*
X014282Y018730D01*
X014286Y018680D01*
X014286Y018630D01*
X014282Y018580D01*
X014274Y018531D01*
X014262Y018482D01*
X014246Y018434D01*
X014227Y018388D01*
X014204Y018344D01*
X014177Y018301D01*
X014147Y018261D01*
X014115Y018223D01*
X014079Y018188D01*
X014040Y018156D01*
X013999Y018127D01*
X013956Y018101D01*
X013911Y018079D01*
X013865Y018061D01*
X013817Y018046D01*
X013768Y018035D01*
X013719Y018028D01*
X013669Y018025D01*
X013618Y018026D01*
X013569Y018031D01*
X013519Y018040D01*
X013471Y018053D01*
X013424Y018069D01*
X013378Y018090D01*
X013334Y018114D01*
X013292Y018141D01*
X013252Y018171D01*
X013215Y018205D01*
X013181Y018242D01*
X013149Y018281D01*
X013121Y018322D01*
X013096Y018366D01*
X013075Y018411D01*
X013058Y018458D01*
X013044Y018506D01*
X013034Y018555D01*
X013028Y018605D01*
X013026Y018655D01*
X013656Y020155D02*
X013732Y020153D01*
X013808Y020147D01*
X013883Y020138D01*
X013958Y020124D01*
X014032Y020107D01*
X014105Y020086D01*
X014177Y020062D01*
X014248Y020033D01*
X014317Y020002D01*
X014384Y019967D01*
X014449Y019928D01*
X014513Y019886D01*
X014574Y019841D01*
X014633Y019793D01*
X014689Y019742D01*
X014743Y019688D01*
X014794Y019632D01*
X014842Y019573D01*
X014887Y019512D01*
X014929Y019448D01*
X014968Y019383D01*
X015003Y019316D01*
X015034Y019247D01*
X015063Y019176D01*
X015087Y019104D01*
X015108Y019031D01*
X015125Y018957D01*
X015139Y018882D01*
X015148Y018807D01*
X015154Y018731D01*
X015156Y018655D01*
X015156Y002155D01*
X015154Y002079D01*
X015148Y002003D01*
X015139Y001928D01*
X015125Y001853D01*
X015108Y001779D01*
X015087Y001706D01*
X015063Y001634D01*
X015034Y001563D01*
X015003Y001494D01*
X014968Y001427D01*
X014929Y001362D01*
X014887Y001298D01*
X014842Y001237D01*
X014794Y001178D01*
X014743Y001122D01*
X014689Y001068D01*
X014633Y001017D01*
X014574Y000969D01*
X014513Y000924D01*
X014449Y000882D01*
X014384Y000843D01*
X014317Y000808D01*
X014248Y000777D01*
X014177Y000748D01*
X014105Y000724D01*
X014032Y000703D01*
X013958Y000686D01*
X013883Y000672D01*
X013808Y000663D01*
X013732Y000657D01*
X013656Y000655D01*
X002156Y000655D01*
X002080Y000657D01*
X002004Y000663D01*
X001929Y000672D01*
X001854Y000686D01*
X001780Y000703D01*
X001707Y000724D01*
X001635Y000748D01*
X001564Y000777D01*
X001495Y000808D01*
X001428Y000843D01*
X001363Y000882D01*
X001299Y000924D01*
X001238Y000969D01*
X001179Y001017D01*
X001123Y001068D01*
X001069Y001122D01*
X001018Y001178D01*
X000970Y001237D01*
X000925Y001298D01*
X000883Y001362D01*
X000844Y001427D01*
X000809Y001494D01*
X000778Y001563D01*
X000749Y001634D01*
X000725Y001706D01*
X000704Y001779D01*
X000687Y001853D01*
X000673Y001928D01*
X000664Y002003D01*
X000658Y002079D01*
X000656Y002155D01*
D11*
X002156Y018655D03*
X013656Y018655D03*
D12*
X007856Y016255D03*
X007856Y016230D03*
X007856Y016205D03*
X007856Y016180D03*
X007856Y016155D03*
X007856Y016130D03*
X007856Y016105D03*
X007856Y016080D03*
X007856Y016055D03*
X007856Y016030D03*
X007856Y016005D03*
X007856Y015980D03*
X007856Y015955D03*
X007856Y015930D03*
X007856Y015905D03*
X007856Y015880D03*
X007856Y015855D03*
X007856Y015830D03*
X007856Y015805D03*
X007856Y015780D03*
X007856Y015755D03*
X007856Y015730D03*
X007856Y015705D03*
X007856Y015680D03*
X007856Y015655D03*
X007856Y015630D03*
X007856Y015605D03*
X007856Y015580D03*
X007856Y015555D03*
X007856Y015530D03*
X007856Y015505D03*
X007856Y015480D03*
X007856Y015455D03*
X007856Y015430D03*
X007856Y015405D03*
X007856Y015380D03*
X007856Y015355D03*
X007856Y015330D03*
X007856Y015305D03*
X007856Y015280D03*
X007856Y015255D03*
X007856Y015230D03*
X007856Y015205D03*
X007856Y015180D03*
X007856Y015155D03*
X007856Y015130D03*
X007856Y015105D03*
X007856Y015080D03*
X007856Y015055D03*
X007856Y015030D03*
X007856Y015005D03*
X007856Y014980D03*
X007856Y014955D03*
X007856Y014930D03*
X007856Y014905D03*
X007856Y014880D03*
X007856Y014855D03*
X007856Y014830D03*
X007856Y014805D03*
X007856Y014780D03*
X007856Y014755D03*
X007856Y014730D03*
X007856Y014705D03*
X007856Y014680D03*
X007856Y014655D03*
X007856Y014630D03*
X007856Y014605D03*
X007856Y014580D03*
X007856Y014555D03*
X007856Y014530D03*
X007856Y014505D03*
X007856Y014480D03*
X007856Y014455D03*
X007856Y014430D03*
X007856Y014405D03*
X007856Y014380D03*
X007856Y014355D03*
X007856Y014330D03*
X007856Y014305D03*
X007856Y014280D03*
X007856Y014255D03*
X007856Y014230D03*
X007856Y014205D03*
X007856Y014180D03*
X007856Y014155D03*
X007856Y014130D03*
X007856Y014105D03*
X007856Y014080D03*
X007856Y014055D03*
X007856Y014030D03*
X007856Y014005D03*
X007856Y013955D03*
X007856Y013930D03*
X007856Y013880D03*
X007856Y013855D03*
X007856Y013830D03*
X007856Y013805D03*
X007856Y013780D03*
X007856Y013755D03*
X007856Y013730D03*
X007856Y013705D03*
X007856Y013680D03*
X007856Y011480D03*
X007856Y011455D03*
D13*
X009131Y013705D03*
X009131Y013730D03*
X009131Y013755D03*
X009131Y013780D03*
X009131Y013805D03*
X009131Y013830D03*
X009131Y013855D03*
X009131Y013880D03*
X003006Y011480D03*
D14*
X003419Y011480D03*
X006594Y013930D03*
X007093Y016430D03*
X008369Y017155D03*
X008369Y017180D03*
X009144Y013930D03*
X009519Y013930D03*
D15*
X012305Y011480D03*
X006206Y013680D03*
X006206Y013705D03*
X006206Y013730D03*
X006206Y013755D03*
X006206Y013780D03*
X006206Y013805D03*
X006206Y013830D03*
X006206Y013855D03*
X006206Y013880D03*
X006206Y013930D03*
D16*
X008381Y017055D03*
X008381Y017080D03*
X008381Y017105D03*
X008381Y017130D03*
X009531Y013880D03*
X009531Y013855D03*
X009531Y013830D03*
X009531Y013805D03*
X009531Y013780D03*
X009531Y013755D03*
X009531Y013730D03*
X009531Y013705D03*
X012706Y011480D03*
D17*
X007856Y011505D03*
X007856Y011530D03*
X007856Y011555D03*
X007856Y011580D03*
X007856Y011605D03*
X007856Y011630D03*
X007856Y011655D03*
X007856Y011680D03*
X007856Y011705D03*
X007856Y011730D03*
X007856Y011755D03*
X007856Y011780D03*
X007856Y011805D03*
X007856Y011830D03*
X007856Y011855D03*
X007856Y011880D03*
X007856Y011905D03*
X007856Y011930D03*
X007856Y011955D03*
X007856Y011980D03*
X007856Y012005D03*
X007856Y012030D03*
X007856Y012055D03*
X007856Y012080D03*
X007856Y012105D03*
X007856Y012130D03*
X007856Y012155D03*
X007856Y012180D03*
X007856Y012205D03*
X007856Y012230D03*
X007856Y012255D03*
X007856Y012280D03*
X007856Y012305D03*
X007856Y012330D03*
X007856Y012355D03*
X007856Y012380D03*
X007856Y012405D03*
X007856Y012430D03*
X007856Y012455D03*
X007856Y012480D03*
X007856Y012505D03*
X007856Y012530D03*
X007856Y012555D03*
X007856Y012580D03*
X007856Y012605D03*
X007856Y012630D03*
X007856Y012655D03*
X007856Y012680D03*
X007856Y012705D03*
X007856Y012730D03*
X007856Y012755D03*
X007856Y012780D03*
X007856Y012805D03*
X007856Y012830D03*
X007856Y012855D03*
X007856Y012880D03*
X007856Y012905D03*
X007856Y012930D03*
X007856Y012955D03*
X007856Y012980D03*
X007856Y013005D03*
X007856Y013030D03*
X007856Y013055D03*
X007856Y013080D03*
X007856Y013105D03*
X007856Y013130D03*
X007856Y013155D03*
X007856Y013180D03*
X007856Y013205D03*
X007856Y013230D03*
X007856Y013255D03*
X007856Y013280D03*
X007856Y013305D03*
X007856Y013330D03*
X007856Y013355D03*
X007856Y013380D03*
X007856Y013405D03*
X007856Y013430D03*
D18*
X007881Y013455D03*
D19*
X007855Y013480D03*
X007855Y013530D03*
D20*
X007843Y013505D03*
D21*
X007843Y013555D03*
X007843Y013580D03*
D22*
X007856Y013605D03*
D23*
X007844Y013630D03*
X007844Y013655D03*
D24*
X004368Y013680D03*
X002068Y013680D03*
D25*
X006593Y013680D03*
X006593Y013705D03*
X006593Y013730D03*
X006593Y013755D03*
X006593Y013780D03*
X006593Y013805D03*
X006593Y013830D03*
X006593Y013855D03*
X006593Y013880D03*
X007118Y016405D03*
X009143Y013680D03*
X009518Y013680D03*
D26*
X011344Y013680D03*
X013644Y013680D03*
D27*
X011331Y013705D03*
X004356Y013705D03*
X002056Y013705D03*
X002056Y013730D03*
D28*
X007856Y017605D03*
X013656Y013705D03*
D29*
X011343Y013730D03*
X011343Y013755D03*
X011343Y013780D03*
X004368Y013755D03*
X004368Y013730D03*
D30*
X013643Y013730D03*
D31*
X002056Y013755D03*
X002056Y013780D03*
X002056Y013805D03*
X002056Y013830D03*
D32*
X013656Y013780D03*
X013656Y013755D03*
D33*
X011330Y013805D03*
X004355Y013780D03*
D34*
X004368Y013805D03*
X004368Y013830D03*
X004368Y013855D03*
D35*
X011343Y013855D03*
X011343Y013830D03*
X013643Y013830D03*
X013643Y013805D03*
D36*
X013655Y013855D03*
X013655Y013880D03*
X011331Y013880D03*
X004355Y013880D03*
X002056Y013880D03*
X002056Y013855D03*
D37*
X002056Y013905D03*
D38*
X004368Y013905D03*
D39*
X006206Y013905D03*
D40*
X006594Y013905D03*
D41*
X007856Y013905D03*
D42*
X009131Y013905D03*
D43*
X009531Y013905D03*
D44*
X011343Y013905D03*
X013643Y013905D03*
D45*
X013656Y013930D03*
X013656Y013955D03*
X011331Y013955D03*
X002056Y013930D03*
X002056Y013955D03*
D46*
X004368Y013930D03*
D47*
X011343Y013930D03*
D48*
X007855Y017630D03*
X007855Y017655D03*
X007855Y017680D03*
X007855Y017705D03*
X004355Y013955D03*
D49*
X009131Y013955D03*
D50*
X009531Y013955D03*
X008381Y017205D03*
X007856Y019155D03*
X007856Y019180D03*
X007856Y019205D03*
X007856Y019230D03*
X007856Y019255D03*
X007856Y019280D03*
X007856Y019305D03*
X007856Y019330D03*
X007856Y019355D03*
X007856Y019380D03*
X007856Y019405D03*
X007856Y019430D03*
D51*
X011331Y013980D03*
X002056Y013980D03*
D52*
X004368Y013980D03*
D53*
X007856Y013980D03*
D54*
X013643Y013980D03*
D55*
X002043Y014005D03*
D56*
X004368Y014005D03*
X011344Y014005D03*
X011344Y014030D03*
D57*
X013656Y014030D03*
X013656Y014005D03*
X013656Y014055D03*
X007856Y017730D03*
X007856Y017755D03*
X007856Y017780D03*
X007856Y017805D03*
X007856Y017830D03*
X004355Y014055D03*
X004355Y014030D03*
X002056Y014030D03*
X002056Y014055D03*
X002056Y014080D03*
D58*
X011331Y014055D03*
D59*
X011343Y014080D03*
X011343Y014105D03*
X004368Y014080D03*
D60*
X013643Y014080D03*
D61*
X002056Y014105D03*
X002056Y014130D03*
X002056Y014155D03*
D62*
X004355Y014130D03*
X004355Y014105D03*
X007855Y017880D03*
X007855Y017905D03*
X007855Y017930D03*
X007855Y017955D03*
X011330Y014155D03*
X011330Y014130D03*
D63*
X013656Y014130D03*
X013656Y014105D03*
D64*
X004368Y014155D03*
X004368Y014180D03*
X004368Y014230D03*
X004368Y014255D03*
X002043Y014255D03*
X002043Y014230D03*
X002043Y014205D03*
X002043Y014180D03*
D65*
X011343Y014205D03*
X011343Y014180D03*
X011343Y014230D03*
X011343Y014255D03*
X013643Y014155D03*
D66*
X013655Y014180D03*
X013655Y014205D03*
X013655Y014230D03*
X013655Y014255D03*
X007856Y017980D03*
X007856Y018005D03*
X007856Y018030D03*
X007856Y018055D03*
X004355Y014205D03*
D67*
X007868Y016280D03*
D68*
X007856Y016305D03*
D69*
X007856Y016330D03*
D70*
X007843Y016355D03*
D71*
X007856Y016380D03*
D72*
X007869Y016405D03*
X007869Y016430D03*
X007869Y016455D03*
X007869Y016480D03*
X007869Y016505D03*
X007869Y016530D03*
X007869Y016555D03*
X007869Y016580D03*
X007869Y016605D03*
X007869Y016630D03*
X007869Y016655D03*
X007869Y016680D03*
X007869Y016705D03*
X007869Y016730D03*
X007869Y016755D03*
X007869Y016780D03*
X007869Y016805D03*
X007869Y016905D03*
X007869Y016930D03*
X007869Y016955D03*
D73*
X008593Y016405D03*
D74*
X008618Y016430D03*
D75*
X008631Y016455D03*
D76*
X007881Y016830D03*
X007881Y016855D03*
X007881Y016880D03*
D77*
X007881Y016980D03*
X007881Y017005D03*
X007881Y017030D03*
D78*
X007806Y017055D03*
X007806Y017105D03*
X007806Y017130D03*
X007806Y017155D03*
X007806Y017180D03*
D79*
X007793Y017080D03*
D80*
X007818Y017205D03*
D81*
X007381Y017230D03*
D82*
X007856Y017230D03*
X007856Y017255D03*
X007856Y017280D03*
X007856Y017305D03*
X007856Y017330D03*
X007856Y017355D03*
X007856Y017380D03*
X007856Y017405D03*
X007856Y017430D03*
X007856Y017455D03*
X007856Y017480D03*
X007856Y017505D03*
X007856Y017530D03*
X007856Y017555D03*
X007856Y017580D03*
D83*
X008381Y017230D03*
D84*
X007868Y017855D03*
X008118Y019455D03*
X008118Y019480D03*
X008118Y019505D03*
X008118Y019530D03*
X008118Y019555D03*
X008118Y019580D03*
X008118Y019605D03*
X008118Y019630D03*
X008118Y019655D03*
X008118Y019680D03*
X008118Y019705D03*
X008118Y019730D03*
D85*
X007868Y018105D03*
X007868Y018080D03*
D86*
X007856Y018130D03*
X007856Y018155D03*
X007856Y018180D03*
X007856Y018205D03*
D87*
X007856Y018230D03*
X007856Y018255D03*
X007856Y018280D03*
X007856Y018305D03*
X007856Y018330D03*
D88*
X007868Y018355D03*
D89*
X007856Y018380D03*
X007856Y018405D03*
X007856Y018430D03*
X007856Y018455D03*
D90*
X007856Y018480D03*
X007856Y018505D03*
X007856Y018530D03*
X007856Y018555D03*
X007856Y018580D03*
D91*
X007868Y018605D03*
D92*
X007856Y018630D03*
X007856Y018655D03*
X007856Y018680D03*
X007856Y018705D03*
D93*
X007869Y018730D03*
D94*
X007856Y018755D03*
X007856Y018780D03*
X007856Y018805D03*
X007856Y018830D03*
D95*
X007868Y018855D03*
D96*
X007856Y018880D03*
X007856Y018905D03*
X007856Y018930D03*
X007856Y018955D03*
X007856Y018980D03*
X007856Y019005D03*
X007856Y019030D03*
X007856Y019055D03*
X007856Y019080D03*
X007856Y019105D03*
X007856Y019130D03*
D97*
X007406Y007405D03*
X012406Y007405D03*
X002406Y007405D03*
D98*
X003406Y007405D03*
X008406Y007405D03*
X013406Y007405D03*
M02*
