G75*
G70*
%OFA0B0*%
%FSLAX24Y24*%
%IPPOS*%
%LPD*%
%AMOC8*
5,1,8,0,0,1.08239X$1,22.5*
%
%ADD10C,0.0000*%
%ADD11R,0.0515X0.0515*%
%ADD12C,0.0515*%
%ADD13C,0.0100*%
D10*
X000655Y002155D02*
X000655Y033155D01*
X001525Y033155D02*
X001527Y033205D01*
X001533Y033255D01*
X001543Y033304D01*
X001557Y033352D01*
X001574Y033399D01*
X001595Y033444D01*
X001620Y033488D01*
X001648Y033529D01*
X001680Y033568D01*
X001714Y033605D01*
X001751Y033639D01*
X001791Y033669D01*
X001833Y033696D01*
X001877Y033720D01*
X001923Y033741D01*
X001970Y033757D01*
X002018Y033770D01*
X002068Y033779D01*
X002117Y033784D01*
X002168Y033785D01*
X002218Y033782D01*
X002267Y033775D01*
X002316Y033764D01*
X002364Y033749D01*
X002410Y033731D01*
X002455Y033709D01*
X002498Y033683D01*
X002539Y033654D01*
X002578Y033622D01*
X002614Y033587D01*
X002646Y033549D01*
X002676Y033509D01*
X002703Y033466D01*
X002726Y033422D01*
X002745Y033376D01*
X002761Y033328D01*
X002773Y033279D01*
X002781Y033230D01*
X002785Y033180D01*
X002785Y033130D01*
X002781Y033080D01*
X002773Y033031D01*
X002761Y032982D01*
X002745Y032934D01*
X002726Y032888D01*
X002703Y032844D01*
X002676Y032801D01*
X002646Y032761D01*
X002614Y032723D01*
X002578Y032688D01*
X002539Y032656D01*
X002498Y032627D01*
X002455Y032601D01*
X002410Y032579D01*
X002364Y032561D01*
X002316Y032546D01*
X002267Y032535D01*
X002218Y032528D01*
X002168Y032525D01*
X002117Y032526D01*
X002068Y032531D01*
X002018Y032540D01*
X001970Y032553D01*
X001923Y032569D01*
X001877Y032590D01*
X001833Y032614D01*
X001791Y032641D01*
X001751Y032671D01*
X001714Y032705D01*
X001680Y032742D01*
X001648Y032781D01*
X001620Y032822D01*
X001595Y032866D01*
X001574Y032911D01*
X001557Y032958D01*
X001543Y033006D01*
X001533Y033055D01*
X001527Y033105D01*
X001525Y033155D01*
X000655Y033155D02*
X000657Y033231D01*
X000663Y033307D01*
X000672Y033382D01*
X000686Y033457D01*
X000703Y033531D01*
X000724Y033604D01*
X000748Y033676D01*
X000777Y033747D01*
X000808Y033816D01*
X000843Y033883D01*
X000882Y033948D01*
X000924Y034012D01*
X000969Y034073D01*
X001017Y034132D01*
X001068Y034188D01*
X001122Y034242D01*
X001178Y034293D01*
X001237Y034341D01*
X001298Y034386D01*
X001362Y034428D01*
X001427Y034467D01*
X001494Y034502D01*
X001563Y034533D01*
X001634Y034562D01*
X001706Y034586D01*
X001779Y034607D01*
X001853Y034624D01*
X001928Y034638D01*
X002003Y034647D01*
X002079Y034653D01*
X002155Y034655D01*
X018655Y034655D01*
X018025Y033155D02*
X018027Y033205D01*
X018033Y033255D01*
X018043Y033304D01*
X018057Y033352D01*
X018074Y033399D01*
X018095Y033444D01*
X018120Y033488D01*
X018148Y033529D01*
X018180Y033568D01*
X018214Y033605D01*
X018251Y033639D01*
X018291Y033669D01*
X018333Y033696D01*
X018377Y033720D01*
X018423Y033741D01*
X018470Y033757D01*
X018518Y033770D01*
X018568Y033779D01*
X018617Y033784D01*
X018668Y033785D01*
X018718Y033782D01*
X018767Y033775D01*
X018816Y033764D01*
X018864Y033749D01*
X018910Y033731D01*
X018955Y033709D01*
X018998Y033683D01*
X019039Y033654D01*
X019078Y033622D01*
X019114Y033587D01*
X019146Y033549D01*
X019176Y033509D01*
X019203Y033466D01*
X019226Y033422D01*
X019245Y033376D01*
X019261Y033328D01*
X019273Y033279D01*
X019281Y033230D01*
X019285Y033180D01*
X019285Y033130D01*
X019281Y033080D01*
X019273Y033031D01*
X019261Y032982D01*
X019245Y032934D01*
X019226Y032888D01*
X019203Y032844D01*
X019176Y032801D01*
X019146Y032761D01*
X019114Y032723D01*
X019078Y032688D01*
X019039Y032656D01*
X018998Y032627D01*
X018955Y032601D01*
X018910Y032579D01*
X018864Y032561D01*
X018816Y032546D01*
X018767Y032535D01*
X018718Y032528D01*
X018668Y032525D01*
X018617Y032526D01*
X018568Y032531D01*
X018518Y032540D01*
X018470Y032553D01*
X018423Y032569D01*
X018377Y032590D01*
X018333Y032614D01*
X018291Y032641D01*
X018251Y032671D01*
X018214Y032705D01*
X018180Y032742D01*
X018148Y032781D01*
X018120Y032822D01*
X018095Y032866D01*
X018074Y032911D01*
X018057Y032958D01*
X018043Y033006D01*
X018033Y033055D01*
X018027Y033105D01*
X018025Y033155D01*
X018655Y034655D02*
X018731Y034653D01*
X018807Y034647D01*
X018882Y034638D01*
X018957Y034624D01*
X019031Y034607D01*
X019104Y034586D01*
X019176Y034562D01*
X019247Y034533D01*
X019316Y034502D01*
X019383Y034467D01*
X019448Y034428D01*
X019512Y034386D01*
X019573Y034341D01*
X019632Y034293D01*
X019688Y034242D01*
X019742Y034188D01*
X019793Y034132D01*
X019841Y034073D01*
X019886Y034012D01*
X019928Y033948D01*
X019967Y033883D01*
X020002Y033816D01*
X020033Y033747D01*
X020062Y033676D01*
X020086Y033604D01*
X020107Y033531D01*
X020124Y033457D01*
X020138Y033382D01*
X020147Y033307D01*
X020153Y033231D01*
X020155Y033155D01*
X020155Y002155D01*
X020153Y002079D01*
X020147Y002003D01*
X020138Y001928D01*
X020124Y001853D01*
X020107Y001779D01*
X020086Y001706D01*
X020062Y001634D01*
X020033Y001563D01*
X020002Y001494D01*
X019967Y001427D01*
X019928Y001362D01*
X019886Y001298D01*
X019841Y001237D01*
X019793Y001178D01*
X019742Y001122D01*
X019688Y001068D01*
X019632Y001017D01*
X019573Y000969D01*
X019512Y000924D01*
X019448Y000882D01*
X019383Y000843D01*
X019316Y000808D01*
X019247Y000777D01*
X019176Y000748D01*
X019104Y000724D01*
X019031Y000703D01*
X018957Y000686D01*
X018882Y000672D01*
X018807Y000663D01*
X018731Y000657D01*
X018655Y000655D01*
X002155Y000655D01*
X002079Y000657D01*
X002003Y000663D01*
X001928Y000672D01*
X001853Y000686D01*
X001779Y000703D01*
X001706Y000724D01*
X001634Y000748D01*
X001563Y000777D01*
X001494Y000808D01*
X001427Y000843D01*
X001362Y000882D01*
X001298Y000924D01*
X001237Y000969D01*
X001178Y001017D01*
X001122Y001068D01*
X001068Y001122D01*
X001017Y001178D01*
X000969Y001237D01*
X000924Y001298D01*
X000882Y001362D01*
X000843Y001427D01*
X000808Y001494D01*
X000777Y001563D01*
X000748Y001634D01*
X000724Y001706D01*
X000703Y001779D01*
X000686Y001853D01*
X000672Y001928D01*
X000663Y002003D01*
X000657Y002079D01*
X000655Y002155D01*
D11*
X002905Y016405D03*
X009905Y016405D03*
X016905Y016405D03*
D12*
X017905Y016405D03*
X010905Y016405D03*
X003905Y016405D03*
D13*
X000908Y001638D02*
X001084Y001333D01*
X001333Y001084D01*
X001638Y000908D01*
X001979Y000817D01*
X001979Y000817D01*
X002155Y000805D01*
X018655Y000805D01*
X018831Y000817D01*
X019172Y000908D01*
X019477Y001084D01*
X019726Y001333D01*
X019902Y001638D01*
X019994Y001979D01*
X020005Y002155D01*
X020005Y033093D01*
X020005Y033126D01*
X020005Y033155D01*
X019994Y033331D01*
X019902Y033672D01*
X019726Y033977D01*
X019477Y034226D01*
X019172Y034402D01*
X018831Y034494D01*
X018655Y034505D01*
X002217Y034505D01*
X002201Y034505D01*
X002155Y034505D01*
X001979Y034494D01*
X001638Y034402D01*
X001333Y034226D01*
X001084Y033977D01*
X000908Y033672D01*
X000817Y033331D01*
X000805Y033155D01*
X000805Y002217D01*
X000805Y002206D01*
X000805Y002155D01*
X000817Y001979D01*
X000908Y001638D01*
X000907Y001641D02*
X019903Y001641D01*
X019929Y001739D02*
X000881Y001739D01*
X000854Y001838D02*
X019956Y001838D01*
X019982Y001936D02*
X000828Y001936D01*
X000813Y002035D02*
X019997Y002035D01*
X020004Y002133D02*
X000807Y002133D01*
X000805Y002232D02*
X020005Y002232D01*
X020005Y002330D02*
X000805Y002330D01*
X000805Y002429D02*
X020005Y002429D01*
X020005Y002527D02*
X000805Y002527D01*
X000805Y002626D02*
X020005Y002626D01*
X020005Y002725D02*
X000805Y002725D01*
X000805Y002823D02*
X020005Y002823D01*
X020005Y002922D02*
X000805Y002922D01*
X000805Y003020D02*
X020005Y003020D01*
X020005Y003119D02*
X000805Y003119D01*
X000805Y003217D02*
X020005Y003217D01*
X020005Y003316D02*
X000805Y003316D01*
X000805Y003414D02*
X020005Y003414D01*
X020005Y003513D02*
X000805Y003513D01*
X000805Y003611D02*
X020005Y003611D01*
X020005Y003710D02*
X000805Y003710D01*
X000805Y003809D02*
X020005Y003809D01*
X020005Y003907D02*
X000805Y003907D01*
X000805Y004006D02*
X020005Y004006D01*
X020005Y004104D02*
X000805Y004104D01*
X000805Y004203D02*
X020005Y004203D01*
X020005Y004301D02*
X000805Y004301D01*
X000805Y004400D02*
X020005Y004400D01*
X020005Y004498D02*
X000805Y004498D01*
X000805Y004597D02*
X020005Y004597D01*
X020005Y004695D02*
X000805Y004695D01*
X000805Y004794D02*
X020005Y004794D01*
X020005Y004892D02*
X000805Y004892D01*
X000805Y004991D02*
X020005Y004991D01*
X020005Y005090D02*
X000805Y005090D01*
X000805Y005188D02*
X020005Y005188D01*
X020005Y005287D02*
X000805Y005287D01*
X000805Y005385D02*
X020005Y005385D01*
X020005Y005484D02*
X000805Y005484D01*
X000805Y005582D02*
X020005Y005582D01*
X020005Y005681D02*
X000805Y005681D01*
X000805Y005779D02*
X020005Y005779D01*
X020005Y005878D02*
X000805Y005878D01*
X000805Y005976D02*
X020005Y005976D01*
X020005Y006075D02*
X000805Y006075D01*
X000805Y006174D02*
X020005Y006174D01*
X020005Y006272D02*
X000805Y006272D01*
X000805Y006371D02*
X020005Y006371D01*
X020005Y006469D02*
X000805Y006469D01*
X000805Y006568D02*
X020005Y006568D01*
X020005Y006666D02*
X000805Y006666D01*
X000805Y006765D02*
X020005Y006765D01*
X020005Y006863D02*
X000805Y006863D01*
X000805Y006962D02*
X020005Y006962D01*
X020005Y007060D02*
X000805Y007060D01*
X000805Y007159D02*
X020005Y007159D01*
X020005Y007258D02*
X000805Y007258D01*
X000805Y007356D02*
X020005Y007356D01*
X020005Y007455D02*
X000805Y007455D01*
X000805Y007553D02*
X020005Y007553D01*
X020005Y007652D02*
X000805Y007652D01*
X000805Y007750D02*
X020005Y007750D01*
X020005Y007849D02*
X000805Y007849D01*
X000805Y007947D02*
X020005Y007947D01*
X020005Y008046D02*
X000805Y008046D01*
X000805Y008144D02*
X020005Y008144D01*
X020005Y008243D02*
X000805Y008243D01*
X000805Y008341D02*
X020005Y008341D01*
X020005Y008440D02*
X000805Y008440D01*
X000805Y008539D02*
X020005Y008539D01*
X020005Y008637D02*
X000805Y008637D01*
X000805Y008736D02*
X020005Y008736D01*
X020005Y008834D02*
X000805Y008834D01*
X000805Y008933D02*
X020005Y008933D01*
X020005Y009031D02*
X000805Y009031D01*
X000805Y009130D02*
X020005Y009130D01*
X020005Y009228D02*
X000805Y009228D01*
X000805Y009327D02*
X020005Y009327D01*
X020005Y009425D02*
X000805Y009425D01*
X000805Y009524D02*
X020005Y009524D01*
X020005Y009623D02*
X000805Y009623D01*
X000805Y009721D02*
X020005Y009721D01*
X020005Y009820D02*
X000805Y009820D01*
X000805Y009918D02*
X020005Y009918D01*
X020005Y010017D02*
X000805Y010017D01*
X000805Y010115D02*
X020005Y010115D01*
X020005Y010214D02*
X000805Y010214D01*
X000805Y010312D02*
X020005Y010312D01*
X020005Y010411D02*
X000805Y010411D01*
X000805Y010509D02*
X020005Y010509D01*
X020005Y010608D02*
X000805Y010608D01*
X000805Y010707D02*
X020005Y010707D01*
X020005Y010805D02*
X000805Y010805D01*
X000805Y010904D02*
X020005Y010904D01*
X020005Y011002D02*
X000805Y011002D01*
X000805Y011101D02*
X020005Y011101D01*
X020005Y011199D02*
X000805Y011199D01*
X000805Y011298D02*
X020005Y011298D01*
X020005Y011396D02*
X000805Y011396D01*
X000805Y011495D02*
X020005Y011495D01*
X020005Y011593D02*
X000805Y011593D01*
X000805Y011692D02*
X020005Y011692D01*
X020005Y011791D02*
X000805Y011791D01*
X000805Y011889D02*
X020005Y011889D01*
X020005Y011988D02*
X000805Y011988D01*
X000805Y012086D02*
X020005Y012086D01*
X020005Y012185D02*
X000805Y012185D01*
X000805Y012283D02*
X020005Y012283D01*
X020005Y012382D02*
X000805Y012382D01*
X000805Y012480D02*
X020005Y012480D01*
X020005Y012579D02*
X000805Y012579D01*
X000805Y012677D02*
X020005Y012677D01*
X020005Y012776D02*
X000805Y012776D01*
X000805Y012874D02*
X020005Y012874D01*
X020005Y012973D02*
X000805Y012973D01*
X000805Y013072D02*
X020005Y013072D01*
X020005Y013170D02*
X000805Y013170D01*
X000805Y013269D02*
X020005Y013269D01*
X020005Y013367D02*
X000805Y013367D01*
X000805Y013466D02*
X020005Y013466D01*
X020005Y013564D02*
X000805Y013564D01*
X000805Y013663D02*
X020005Y013663D01*
X020005Y013761D02*
X000805Y013761D01*
X000805Y013860D02*
X020005Y013860D01*
X020005Y013958D02*
X000805Y013958D01*
X000805Y014057D02*
X020005Y014057D01*
X020005Y014156D02*
X000805Y014156D01*
X000805Y014254D02*
X020005Y014254D01*
X020005Y014353D02*
X000805Y014353D01*
X000805Y014451D02*
X020005Y014451D01*
X020005Y014550D02*
X000805Y014550D01*
X000805Y014648D02*
X020005Y014648D01*
X020005Y014747D02*
X000805Y014747D01*
X000805Y014845D02*
X020005Y014845D01*
X020005Y014944D02*
X000805Y014944D01*
X000805Y015042D02*
X020005Y015042D01*
X020005Y015141D02*
X000805Y015141D01*
X000805Y015240D02*
X020005Y015240D01*
X020005Y015338D02*
X000805Y015338D01*
X000805Y015437D02*
X020005Y015437D01*
X020005Y015535D02*
X000805Y015535D01*
X000805Y015634D02*
X020005Y015634D01*
X020005Y015732D02*
X000805Y015732D01*
X000805Y015831D02*
X020005Y015831D01*
X020005Y015929D02*
X000805Y015929D01*
X000805Y016028D02*
X002584Y016028D01*
X002594Y016018D02*
X003216Y016018D01*
X003293Y016094D01*
X003293Y016716D01*
X003216Y016793D01*
X002594Y016793D01*
X002518Y016716D01*
X002518Y016094D01*
X002594Y016018D01*
X002518Y016126D02*
X000805Y016126D01*
X000805Y016225D02*
X002518Y016225D01*
X002518Y016324D02*
X000805Y016324D01*
X000805Y016422D02*
X002518Y016422D01*
X002518Y016521D02*
X000805Y016521D01*
X000805Y016619D02*
X002518Y016619D01*
X002519Y016718D02*
X000805Y016718D01*
X000805Y016816D02*
X020005Y016816D01*
X020005Y016718D02*
X018168Y016718D01*
X018171Y016716D02*
X018119Y016754D01*
X018062Y016783D01*
X018001Y016803D01*
X017937Y016813D01*
X017934Y016813D01*
X017934Y016434D01*
X018313Y016434D01*
X018313Y016437D01*
X018303Y016501D01*
X018283Y016562D01*
X018254Y016619D01*
X018216Y016671D01*
X018171Y016716D01*
X018253Y016619D02*
X020005Y016619D01*
X020005Y016521D02*
X018296Y016521D01*
X018313Y016376D02*
X017934Y016376D01*
X017934Y015998D01*
X017937Y015998D01*
X018001Y016008D01*
X018062Y016027D01*
X018119Y016057D01*
X018171Y016094D01*
X018216Y016140D01*
X018254Y016192D01*
X018283Y016249D01*
X018303Y016310D01*
X018313Y016373D01*
X018313Y016376D01*
X018305Y016324D02*
X020005Y016324D01*
X020005Y016422D02*
X017934Y016422D01*
X017934Y016434D02*
X017934Y016376D01*
X017876Y016376D01*
X017876Y015998D01*
X017873Y015998D01*
X017810Y016008D01*
X017749Y016027D01*
X017692Y016057D01*
X017640Y016094D01*
X017594Y016140D01*
X017557Y016192D01*
X017527Y016249D01*
X017508Y016310D01*
X017498Y016373D01*
X017498Y016376D01*
X017876Y016376D01*
X017876Y016434D01*
X017498Y016434D01*
X017498Y016437D01*
X017508Y016501D01*
X017527Y016562D01*
X017557Y016619D01*
X017293Y016619D01*
X017293Y016716D02*
X017216Y016793D01*
X016594Y016793D01*
X016518Y016716D01*
X016518Y016094D01*
X016594Y016018D01*
X017216Y016018D01*
X017293Y016094D01*
X017293Y016716D01*
X017291Y016718D02*
X017642Y016718D01*
X017640Y016716D02*
X017594Y016671D01*
X017557Y016619D01*
X017514Y016521D02*
X017293Y016521D01*
X017293Y016422D02*
X017876Y016422D01*
X017876Y016434D02*
X017876Y016813D01*
X017873Y016813D01*
X017810Y016803D01*
X017749Y016783D01*
X017692Y016754D01*
X017640Y016716D01*
X017876Y016718D02*
X017934Y016718D01*
X017934Y016619D02*
X017876Y016619D01*
X017876Y016521D02*
X017934Y016521D01*
X017934Y016434D02*
X017876Y016434D01*
X017876Y016324D02*
X017934Y016324D01*
X017934Y016225D02*
X017876Y016225D01*
X017876Y016126D02*
X017934Y016126D01*
X017934Y016028D02*
X017876Y016028D01*
X017748Y016028D02*
X017227Y016028D01*
X017293Y016126D02*
X017608Y016126D01*
X017540Y016225D02*
X017293Y016225D01*
X017293Y016324D02*
X017505Y016324D01*
X018062Y016028D02*
X020005Y016028D01*
X020005Y016126D02*
X018203Y016126D01*
X018271Y016225D02*
X020005Y016225D01*
X020005Y016915D02*
X000805Y016915D01*
X000805Y017013D02*
X020005Y017013D01*
X020005Y017112D02*
X000805Y017112D01*
X000805Y017210D02*
X020005Y017210D01*
X020005Y017309D02*
X000805Y017309D01*
X000805Y017407D02*
X020005Y017407D01*
X020005Y017506D02*
X000805Y017506D01*
X000805Y017605D02*
X020005Y017605D01*
X020005Y017703D02*
X000805Y017703D01*
X000805Y017802D02*
X020005Y017802D01*
X020005Y017900D02*
X000805Y017900D01*
X000805Y017999D02*
X020005Y017999D01*
X020005Y018097D02*
X000805Y018097D01*
X000805Y018196D02*
X020005Y018196D01*
X020005Y018294D02*
X000805Y018294D01*
X000805Y018393D02*
X020005Y018393D01*
X020005Y018491D02*
X000805Y018491D01*
X000805Y018590D02*
X020005Y018590D01*
X020005Y018689D02*
X000805Y018689D01*
X000805Y018787D02*
X020005Y018787D01*
X020005Y018886D02*
X000805Y018886D01*
X000805Y018984D02*
X020005Y018984D01*
X020005Y019083D02*
X000805Y019083D01*
X000805Y019181D02*
X020005Y019181D01*
X020005Y019280D02*
X000805Y019280D01*
X000805Y019378D02*
X020005Y019378D01*
X020005Y019477D02*
X000805Y019477D01*
X000805Y019575D02*
X020005Y019575D01*
X020005Y019674D02*
X000805Y019674D01*
X000805Y019773D02*
X020005Y019773D01*
X020005Y019871D02*
X000805Y019871D01*
X000805Y019970D02*
X020005Y019970D01*
X020005Y020068D02*
X000805Y020068D01*
X000805Y020167D02*
X020005Y020167D01*
X020005Y020265D02*
X000805Y020265D01*
X000805Y020364D02*
X020005Y020364D01*
X020005Y020462D02*
X000805Y020462D01*
X000805Y020561D02*
X020005Y020561D01*
X020005Y020659D02*
X000805Y020659D01*
X000805Y020758D02*
X020005Y020758D01*
X020005Y020856D02*
X000805Y020856D01*
X000805Y020955D02*
X020005Y020955D01*
X020005Y021054D02*
X000805Y021054D01*
X000805Y021152D02*
X020005Y021152D01*
X020005Y021251D02*
X000805Y021251D01*
X000805Y021349D02*
X020005Y021349D01*
X020005Y021448D02*
X000805Y021448D01*
X000805Y021546D02*
X020005Y021546D01*
X020005Y021645D02*
X000805Y021645D01*
X000805Y021743D02*
X020005Y021743D01*
X020005Y021842D02*
X000805Y021842D01*
X000805Y021940D02*
X020005Y021940D01*
X020005Y022039D02*
X000805Y022039D01*
X000805Y022138D02*
X020005Y022138D01*
X020005Y022236D02*
X000805Y022236D01*
X000805Y022335D02*
X020005Y022335D01*
X020005Y022433D02*
X000805Y022433D01*
X000805Y022532D02*
X020005Y022532D01*
X020005Y022630D02*
X000805Y022630D01*
X000805Y022729D02*
X020005Y022729D01*
X020005Y022827D02*
X000805Y022827D01*
X000805Y022926D02*
X020005Y022926D01*
X020005Y023024D02*
X000805Y023024D01*
X000805Y023123D02*
X020005Y023123D01*
X020005Y023222D02*
X000805Y023222D01*
X000805Y023320D02*
X020005Y023320D01*
X020005Y023419D02*
X000805Y023419D01*
X000805Y023517D02*
X020005Y023517D01*
X020005Y023616D02*
X000805Y023616D01*
X000805Y023714D02*
X020005Y023714D01*
X020005Y023813D02*
X000805Y023813D01*
X000805Y023911D02*
X020005Y023911D01*
X020005Y024010D02*
X000805Y024010D01*
X000805Y024108D02*
X020005Y024108D01*
X020005Y024207D02*
X000805Y024207D01*
X000805Y024306D02*
X020005Y024306D01*
X020005Y024404D02*
X000805Y024404D01*
X000805Y024503D02*
X020005Y024503D01*
X020005Y024601D02*
X000805Y024601D01*
X000805Y024700D02*
X020005Y024700D01*
X020005Y024798D02*
X000805Y024798D01*
X000805Y024897D02*
X020005Y024897D01*
X020005Y024995D02*
X000805Y024995D01*
X000805Y025094D02*
X020005Y025094D01*
X020005Y025192D02*
X000805Y025192D01*
X000805Y025291D02*
X020005Y025291D01*
X020005Y025389D02*
X000805Y025389D01*
X000805Y025488D02*
X020005Y025488D01*
X020005Y025587D02*
X000805Y025587D01*
X000805Y025685D02*
X020005Y025685D01*
X020005Y025784D02*
X000805Y025784D01*
X000805Y025882D02*
X020005Y025882D01*
X020005Y025981D02*
X000805Y025981D01*
X000805Y026079D02*
X020005Y026079D01*
X020005Y026178D02*
X000805Y026178D01*
X000805Y026276D02*
X020005Y026276D01*
X020005Y026375D02*
X000805Y026375D01*
X000805Y026473D02*
X020005Y026473D01*
X020005Y026572D02*
X000805Y026572D01*
X000805Y026671D02*
X020005Y026671D01*
X020005Y026769D02*
X000805Y026769D01*
X000805Y026868D02*
X020005Y026868D01*
X020005Y026966D02*
X000805Y026966D01*
X000805Y027065D02*
X020005Y027065D01*
X020005Y027163D02*
X000805Y027163D01*
X000805Y027262D02*
X020005Y027262D01*
X020005Y027360D02*
X000805Y027360D01*
X000805Y027459D02*
X020005Y027459D01*
X020005Y027557D02*
X000805Y027557D01*
X000805Y027656D02*
X020005Y027656D01*
X020005Y027755D02*
X000805Y027755D01*
X000805Y027853D02*
X020005Y027853D01*
X020005Y027952D02*
X000805Y027952D01*
X000805Y028050D02*
X020005Y028050D01*
X020005Y028149D02*
X000805Y028149D01*
X000805Y028247D02*
X020005Y028247D01*
X020005Y028346D02*
X000805Y028346D01*
X000805Y028444D02*
X020005Y028444D01*
X020005Y028543D02*
X000805Y028543D01*
X000805Y028641D02*
X020005Y028641D01*
X020005Y028740D02*
X000805Y028740D01*
X000805Y028839D02*
X020005Y028839D01*
X020005Y028937D02*
X000805Y028937D01*
X000805Y029036D02*
X020005Y029036D01*
X020005Y029134D02*
X000805Y029134D01*
X000805Y029233D02*
X020005Y029233D01*
X020005Y029331D02*
X000805Y029331D01*
X000805Y029430D02*
X020005Y029430D01*
X020005Y029528D02*
X000805Y029528D01*
X000805Y029627D02*
X020005Y029627D01*
X020005Y029725D02*
X000805Y029725D01*
X000805Y029824D02*
X020005Y029824D01*
X020005Y029922D02*
X000805Y029922D01*
X000805Y030021D02*
X020005Y030021D01*
X020005Y030120D02*
X000805Y030120D01*
X000805Y030218D02*
X020005Y030218D01*
X020005Y030317D02*
X000805Y030317D01*
X000805Y030415D02*
X020005Y030415D01*
X020005Y030514D02*
X000805Y030514D01*
X000805Y030612D02*
X020005Y030612D01*
X020005Y030711D02*
X000805Y030711D01*
X000805Y030809D02*
X020005Y030809D01*
X020005Y030908D02*
X000805Y030908D01*
X000805Y031006D02*
X020005Y031006D01*
X020005Y031105D02*
X000805Y031105D01*
X000805Y031204D02*
X020005Y031204D01*
X020005Y031302D02*
X000805Y031302D01*
X000805Y031401D02*
X020005Y031401D01*
X020005Y031499D02*
X000805Y031499D01*
X000805Y031598D02*
X020005Y031598D01*
X020005Y031696D02*
X000805Y031696D01*
X000805Y031795D02*
X020005Y031795D01*
X020005Y031893D02*
X000805Y031893D01*
X000805Y031992D02*
X020005Y031992D01*
X020005Y032090D02*
X000805Y032090D01*
X000805Y032189D02*
X020005Y032189D01*
X020005Y032288D02*
X000805Y032288D01*
X000805Y032386D02*
X001974Y032386D01*
X002000Y032375D02*
X002310Y032375D01*
X002597Y032494D01*
X002816Y032713D01*
X002935Y033000D01*
X002935Y033310D01*
X002816Y033597D01*
X002597Y033816D01*
X002310Y033935D01*
X002000Y033935D01*
X001713Y033816D01*
X001494Y033597D01*
X001375Y033310D01*
X001375Y033000D01*
X001494Y032713D01*
X001713Y032494D01*
X002000Y032375D01*
X001736Y032485D02*
X000805Y032485D01*
X000805Y032583D02*
X001624Y032583D01*
X001526Y032682D02*
X000805Y032682D01*
X000805Y032780D02*
X001466Y032780D01*
X001425Y032879D02*
X000805Y032879D01*
X000805Y032977D02*
X001385Y032977D01*
X001375Y033076D02*
X000805Y033076D01*
X000806Y033174D02*
X001375Y033174D01*
X001375Y033273D02*
X000813Y033273D01*
X000827Y033371D02*
X001401Y033371D01*
X001441Y033470D02*
X000854Y033470D01*
X000880Y033569D02*
X001482Y033569D01*
X001564Y033667D02*
X000907Y033667D01*
X000962Y033766D02*
X001663Y033766D01*
X001829Y033864D02*
X001019Y033864D01*
X001076Y033963D02*
X019734Y033963D01*
X019791Y033864D02*
X018981Y033864D01*
X019097Y033816D02*
X018810Y033935D01*
X018500Y033935D01*
X018213Y033816D01*
X017994Y033597D01*
X017875Y033310D01*
X017875Y033000D01*
X017994Y032713D01*
X018213Y032494D01*
X018500Y032375D01*
X018810Y032375D01*
X019097Y032494D01*
X019316Y032713D01*
X019435Y033000D01*
X019435Y033310D01*
X019316Y033597D01*
X019097Y033816D01*
X019147Y033766D02*
X019848Y033766D01*
X019904Y033667D02*
X019246Y033667D01*
X019328Y033569D02*
X019930Y033569D01*
X019956Y033470D02*
X019369Y033470D01*
X019410Y033371D02*
X019983Y033371D01*
X019997Y033273D02*
X019435Y033273D01*
X019435Y033174D02*
X020004Y033174D01*
X020005Y033076D02*
X019435Y033076D01*
X019426Y032977D02*
X020005Y032977D01*
X020005Y032879D02*
X019385Y032879D01*
X019344Y032780D02*
X020005Y032780D01*
X020005Y032682D02*
X019285Y032682D01*
X019186Y032583D02*
X020005Y032583D01*
X020005Y032485D02*
X019074Y032485D01*
X018836Y032386D02*
X020005Y032386D01*
X019642Y034061D02*
X001168Y034061D01*
X001267Y034160D02*
X019543Y034160D01*
X019421Y034258D02*
X001389Y034258D01*
X001560Y034357D02*
X019250Y034357D01*
X018974Y034455D02*
X001837Y034455D01*
X002481Y033864D02*
X018329Y033864D01*
X018163Y033766D02*
X002647Y033766D01*
X002746Y033667D02*
X018064Y033667D01*
X017982Y033569D02*
X002828Y033569D01*
X002869Y033470D02*
X017941Y033470D01*
X017901Y033371D02*
X002910Y033371D01*
X002935Y033273D02*
X017875Y033273D01*
X017875Y033174D02*
X002935Y033174D01*
X002935Y033076D02*
X017875Y033076D01*
X017885Y032977D02*
X002926Y032977D01*
X002885Y032879D02*
X017925Y032879D01*
X017966Y032780D02*
X002844Y032780D01*
X002785Y032682D02*
X018026Y032682D01*
X018124Y032583D02*
X002686Y032583D01*
X002574Y032485D02*
X018236Y032485D01*
X018474Y032386D02*
X002336Y032386D01*
X003873Y016813D02*
X003810Y016803D01*
X003749Y016783D01*
X003692Y016754D01*
X003640Y016716D01*
X003594Y016671D01*
X003557Y016619D01*
X003293Y016619D01*
X003293Y016521D02*
X003514Y016521D01*
X003508Y016501D02*
X003498Y016437D01*
X003498Y016434D01*
X003876Y016434D01*
X003876Y016376D01*
X003934Y016376D01*
X003934Y015998D01*
X003937Y015998D01*
X004001Y016008D01*
X004062Y016027D01*
X004119Y016057D01*
X004171Y016094D01*
X004216Y016140D01*
X004254Y016192D01*
X004283Y016249D01*
X004303Y016310D01*
X004313Y016373D01*
X004313Y016376D01*
X003934Y016376D01*
X003934Y016434D01*
X004313Y016434D01*
X004313Y016437D01*
X004303Y016501D01*
X004283Y016562D01*
X004254Y016619D01*
X004216Y016671D01*
X004171Y016716D01*
X004119Y016754D01*
X004062Y016783D01*
X004001Y016803D01*
X003937Y016813D01*
X003934Y016813D01*
X003934Y016434D01*
X003876Y016434D01*
X003876Y016813D01*
X003873Y016813D01*
X003876Y016718D02*
X003934Y016718D01*
X003934Y016619D02*
X003876Y016619D01*
X003876Y016521D02*
X003934Y016521D01*
X003934Y016422D02*
X009518Y016422D01*
X009518Y016324D02*
X004305Y016324D01*
X004271Y016225D02*
X009518Y016225D01*
X009518Y016126D02*
X004203Y016126D01*
X004062Y016028D02*
X009584Y016028D01*
X009594Y016018D02*
X010216Y016018D01*
X010293Y016094D01*
X010293Y016716D01*
X010216Y016793D01*
X009594Y016793D01*
X009518Y016716D01*
X009518Y016094D01*
X009594Y016018D01*
X009518Y016521D02*
X004296Y016521D01*
X004253Y016619D02*
X009518Y016619D01*
X009519Y016718D02*
X004168Y016718D01*
X003876Y016422D02*
X003293Y016422D01*
X003293Y016324D02*
X003505Y016324D01*
X003508Y016310D02*
X003527Y016249D01*
X003557Y016192D01*
X003594Y016140D01*
X003640Y016094D01*
X003692Y016057D01*
X003749Y016027D01*
X003810Y016008D01*
X003873Y015998D01*
X003876Y015998D01*
X003876Y016376D01*
X003498Y016376D01*
X003498Y016373D01*
X003508Y016310D01*
X003540Y016225D02*
X003293Y016225D01*
X003293Y016126D02*
X003608Y016126D01*
X003748Y016028D02*
X003227Y016028D01*
X003508Y016501D02*
X003527Y016562D01*
X003557Y016619D01*
X003642Y016718D02*
X003291Y016718D01*
X003876Y016324D02*
X003934Y016324D01*
X003934Y016225D02*
X003876Y016225D01*
X003876Y016126D02*
X003934Y016126D01*
X003934Y016028D02*
X003876Y016028D01*
X010227Y016028D02*
X010748Y016028D01*
X010749Y016027D02*
X010810Y016008D01*
X010873Y015998D01*
X010876Y015998D01*
X010876Y016376D01*
X010934Y016376D01*
X010934Y015998D01*
X010937Y015998D01*
X011001Y016008D01*
X011062Y016027D01*
X011119Y016057D01*
X011171Y016094D01*
X011216Y016140D01*
X011254Y016192D01*
X011283Y016249D01*
X011303Y016310D01*
X011313Y016373D01*
X011313Y016376D01*
X010934Y016376D01*
X010934Y016434D01*
X011313Y016434D01*
X011313Y016437D01*
X011303Y016501D01*
X011283Y016562D01*
X011254Y016619D01*
X011216Y016671D01*
X011171Y016716D01*
X011119Y016754D01*
X011062Y016783D01*
X011001Y016803D01*
X010937Y016813D01*
X010934Y016813D01*
X010934Y016434D01*
X010876Y016434D01*
X010876Y016376D01*
X010498Y016376D01*
X010498Y016373D01*
X010508Y016310D01*
X010527Y016249D01*
X010557Y016192D01*
X010594Y016140D01*
X010640Y016094D01*
X010692Y016057D01*
X010749Y016027D01*
X010876Y016028D02*
X010934Y016028D01*
X010934Y016126D02*
X010876Y016126D01*
X010876Y016225D02*
X010934Y016225D01*
X010934Y016324D02*
X010876Y016324D01*
X010876Y016422D02*
X010293Y016422D01*
X010293Y016324D02*
X010505Y016324D01*
X010540Y016225D02*
X010293Y016225D01*
X010293Y016126D02*
X010608Y016126D01*
X010498Y016434D02*
X010876Y016434D01*
X010876Y016813D01*
X010873Y016813D01*
X010810Y016803D01*
X010749Y016783D01*
X010692Y016754D01*
X010640Y016716D01*
X010594Y016671D01*
X010557Y016619D01*
X010293Y016619D01*
X010293Y016521D02*
X010514Y016521D01*
X010508Y016501D02*
X010498Y016437D01*
X010498Y016434D01*
X010508Y016501D02*
X010527Y016562D01*
X010557Y016619D01*
X010642Y016718D02*
X010291Y016718D01*
X010876Y016718D02*
X010934Y016718D01*
X010934Y016619D02*
X010876Y016619D01*
X010876Y016521D02*
X010934Y016521D01*
X010934Y016422D02*
X016518Y016422D01*
X016518Y016324D02*
X011305Y016324D01*
X011271Y016225D02*
X016518Y016225D01*
X016518Y016126D02*
X011203Y016126D01*
X011062Y016028D02*
X016584Y016028D01*
X016518Y016521D02*
X011296Y016521D01*
X011253Y016619D02*
X016518Y016619D01*
X016519Y016718D02*
X011168Y016718D01*
X019847Y001542D02*
X000964Y001542D01*
X001020Y001443D02*
X019790Y001443D01*
X019733Y001345D02*
X001077Y001345D01*
X001171Y001246D02*
X019639Y001246D01*
X019541Y001148D02*
X001269Y001148D01*
X001394Y001049D02*
X019417Y001049D01*
X019246Y000951D02*
X001564Y000951D01*
X001846Y000852D02*
X018964Y000852D01*
M02*
