G75*
G70*
%OFA0B0*%
%FSLAX24Y24*%
%IPPOS*%
%LPD*%
%AMOC8*
5,1,8,0,0,1.08239X$1,22.5*
%
%ADD10C,0.0000*%
%ADD11C,0.0100*%
%ADD12C,0.0080*%
%ADD13C,0.0070*%
D10*
X000655Y002155D02*
X000655Y033155D01*
X001525Y033155D02*
X001527Y033205D01*
X001533Y033255D01*
X001543Y033304D01*
X001557Y033352D01*
X001574Y033399D01*
X001595Y033444D01*
X001620Y033488D01*
X001648Y033529D01*
X001680Y033568D01*
X001714Y033605D01*
X001751Y033639D01*
X001791Y033669D01*
X001833Y033696D01*
X001877Y033720D01*
X001923Y033741D01*
X001970Y033757D01*
X002018Y033770D01*
X002068Y033779D01*
X002117Y033784D01*
X002168Y033785D01*
X002218Y033782D01*
X002267Y033775D01*
X002316Y033764D01*
X002364Y033749D01*
X002410Y033731D01*
X002455Y033709D01*
X002498Y033683D01*
X002539Y033654D01*
X002578Y033622D01*
X002614Y033587D01*
X002646Y033549D01*
X002676Y033509D01*
X002703Y033466D01*
X002726Y033422D01*
X002745Y033376D01*
X002761Y033328D01*
X002773Y033279D01*
X002781Y033230D01*
X002785Y033180D01*
X002785Y033130D01*
X002781Y033080D01*
X002773Y033031D01*
X002761Y032982D01*
X002745Y032934D01*
X002726Y032888D01*
X002703Y032844D01*
X002676Y032801D01*
X002646Y032761D01*
X002614Y032723D01*
X002578Y032688D01*
X002539Y032656D01*
X002498Y032627D01*
X002455Y032601D01*
X002410Y032579D01*
X002364Y032561D01*
X002316Y032546D01*
X002267Y032535D01*
X002218Y032528D01*
X002168Y032525D01*
X002117Y032526D01*
X002068Y032531D01*
X002018Y032540D01*
X001970Y032553D01*
X001923Y032569D01*
X001877Y032590D01*
X001833Y032614D01*
X001791Y032641D01*
X001751Y032671D01*
X001714Y032705D01*
X001680Y032742D01*
X001648Y032781D01*
X001620Y032822D01*
X001595Y032866D01*
X001574Y032911D01*
X001557Y032958D01*
X001543Y033006D01*
X001533Y033055D01*
X001527Y033105D01*
X001525Y033155D01*
X000655Y033155D02*
X000657Y033231D01*
X000663Y033307D01*
X000672Y033382D01*
X000686Y033457D01*
X000703Y033531D01*
X000724Y033604D01*
X000748Y033676D01*
X000777Y033747D01*
X000808Y033816D01*
X000843Y033883D01*
X000882Y033948D01*
X000924Y034012D01*
X000969Y034073D01*
X001017Y034132D01*
X001068Y034188D01*
X001122Y034242D01*
X001178Y034293D01*
X001237Y034341D01*
X001298Y034386D01*
X001362Y034428D01*
X001427Y034467D01*
X001494Y034502D01*
X001563Y034533D01*
X001634Y034562D01*
X001706Y034586D01*
X001779Y034607D01*
X001853Y034624D01*
X001928Y034638D01*
X002003Y034647D01*
X002079Y034653D01*
X002155Y034655D01*
X018655Y034655D01*
X018025Y033155D02*
X018027Y033205D01*
X018033Y033255D01*
X018043Y033304D01*
X018057Y033352D01*
X018074Y033399D01*
X018095Y033444D01*
X018120Y033488D01*
X018148Y033529D01*
X018180Y033568D01*
X018214Y033605D01*
X018251Y033639D01*
X018291Y033669D01*
X018333Y033696D01*
X018377Y033720D01*
X018423Y033741D01*
X018470Y033757D01*
X018518Y033770D01*
X018568Y033779D01*
X018617Y033784D01*
X018668Y033785D01*
X018718Y033782D01*
X018767Y033775D01*
X018816Y033764D01*
X018864Y033749D01*
X018910Y033731D01*
X018955Y033709D01*
X018998Y033683D01*
X019039Y033654D01*
X019078Y033622D01*
X019114Y033587D01*
X019146Y033549D01*
X019176Y033509D01*
X019203Y033466D01*
X019226Y033422D01*
X019245Y033376D01*
X019261Y033328D01*
X019273Y033279D01*
X019281Y033230D01*
X019285Y033180D01*
X019285Y033130D01*
X019281Y033080D01*
X019273Y033031D01*
X019261Y032982D01*
X019245Y032934D01*
X019226Y032888D01*
X019203Y032844D01*
X019176Y032801D01*
X019146Y032761D01*
X019114Y032723D01*
X019078Y032688D01*
X019039Y032656D01*
X018998Y032627D01*
X018955Y032601D01*
X018910Y032579D01*
X018864Y032561D01*
X018816Y032546D01*
X018767Y032535D01*
X018718Y032528D01*
X018668Y032525D01*
X018617Y032526D01*
X018568Y032531D01*
X018518Y032540D01*
X018470Y032553D01*
X018423Y032569D01*
X018377Y032590D01*
X018333Y032614D01*
X018291Y032641D01*
X018251Y032671D01*
X018214Y032705D01*
X018180Y032742D01*
X018148Y032781D01*
X018120Y032822D01*
X018095Y032866D01*
X018074Y032911D01*
X018057Y032958D01*
X018043Y033006D01*
X018033Y033055D01*
X018027Y033105D01*
X018025Y033155D01*
X018655Y034655D02*
X018731Y034653D01*
X018807Y034647D01*
X018882Y034638D01*
X018957Y034624D01*
X019031Y034607D01*
X019104Y034586D01*
X019176Y034562D01*
X019247Y034533D01*
X019316Y034502D01*
X019383Y034467D01*
X019448Y034428D01*
X019512Y034386D01*
X019573Y034341D01*
X019632Y034293D01*
X019688Y034242D01*
X019742Y034188D01*
X019793Y034132D01*
X019841Y034073D01*
X019886Y034012D01*
X019928Y033948D01*
X019967Y033883D01*
X020002Y033816D01*
X020033Y033747D01*
X020062Y033676D01*
X020086Y033604D01*
X020107Y033531D01*
X020124Y033457D01*
X020138Y033382D01*
X020147Y033307D01*
X020153Y033231D01*
X020155Y033155D01*
X020155Y002155D01*
X020153Y002079D01*
X020147Y002003D01*
X020138Y001928D01*
X020124Y001853D01*
X020107Y001779D01*
X020086Y001706D01*
X020062Y001634D01*
X020033Y001563D01*
X020002Y001494D01*
X019967Y001427D01*
X019928Y001362D01*
X019886Y001298D01*
X019841Y001237D01*
X019793Y001178D01*
X019742Y001122D01*
X019688Y001068D01*
X019632Y001017D01*
X019573Y000969D01*
X019512Y000924D01*
X019448Y000882D01*
X019383Y000843D01*
X019316Y000808D01*
X019247Y000777D01*
X019176Y000748D01*
X019104Y000724D01*
X019031Y000703D01*
X018957Y000686D01*
X018882Y000672D01*
X018807Y000663D01*
X018731Y000657D01*
X018655Y000655D01*
X002155Y000655D01*
X002079Y000657D01*
X002003Y000663D01*
X001928Y000672D01*
X001853Y000686D01*
X001779Y000703D01*
X001706Y000724D01*
X001634Y000748D01*
X001563Y000777D01*
X001494Y000808D01*
X001427Y000843D01*
X001362Y000882D01*
X001298Y000924D01*
X001237Y000969D01*
X001178Y001017D01*
X001122Y001068D01*
X001068Y001122D01*
X001017Y001178D01*
X000969Y001237D01*
X000924Y001298D01*
X000882Y001362D01*
X000843Y001427D01*
X000808Y001494D01*
X000777Y001563D01*
X000748Y001634D01*
X000724Y001706D01*
X000703Y001779D01*
X000686Y001853D01*
X000672Y001928D01*
X000663Y002003D01*
X000657Y002079D01*
X000655Y002155D01*
D11*
X004815Y003527D02*
X006074Y003527D01*
X006074Y001756D01*
X014736Y001756D01*
X014736Y003527D01*
X015996Y003527D01*
X015996Y004118D01*
X015996Y005693D02*
X015996Y006283D01*
X014736Y006283D01*
X014736Y008055D01*
X006074Y008055D01*
X006074Y006283D01*
X004815Y006283D01*
X004815Y005693D01*
X004815Y004118D02*
X004815Y003527D01*
X006655Y002405D02*
X007155Y002405D01*
X006551Y002405D02*
X006553Y002442D01*
X006559Y002479D01*
X006568Y002514D01*
X006582Y002549D01*
X006598Y002582D01*
X006619Y002613D01*
X006642Y002642D01*
X006668Y002668D01*
X006697Y002691D01*
X006728Y002712D01*
X006761Y002728D01*
X006796Y002742D01*
X006831Y002751D01*
X006868Y002757D01*
X006905Y002759D01*
X006942Y002757D01*
X006979Y002751D01*
X007014Y002742D01*
X007049Y002728D01*
X007082Y002712D01*
X007113Y002691D01*
X007142Y002668D01*
X007168Y002642D01*
X007191Y002613D01*
X007212Y002582D01*
X007228Y002549D01*
X007242Y002514D01*
X007251Y002479D01*
X007257Y002442D01*
X007259Y002405D01*
X007257Y002368D01*
X007251Y002331D01*
X007242Y002296D01*
X007228Y002261D01*
X007212Y002228D01*
X007191Y002197D01*
X007168Y002168D01*
X007142Y002142D01*
X007113Y002119D01*
X007082Y002098D01*
X007049Y002082D01*
X007014Y002068D01*
X006979Y002059D01*
X006942Y002053D01*
X006905Y002051D01*
X006868Y002053D01*
X006831Y002059D01*
X006796Y002068D01*
X006761Y002082D01*
X006728Y002098D01*
X006697Y002119D01*
X006668Y002142D01*
X006642Y002168D01*
X006619Y002197D01*
X006598Y002228D01*
X006582Y002261D01*
X006568Y002296D01*
X006559Y002331D01*
X006553Y002368D01*
X006551Y002405D01*
X006905Y002155D02*
X006905Y002655D01*
X008122Y003409D02*
X012689Y003409D01*
X012689Y006401D01*
X008122Y006401D01*
X008122Y003409D01*
X006551Y007405D02*
X006553Y007442D01*
X006559Y007479D01*
X006568Y007514D01*
X006582Y007549D01*
X006598Y007582D01*
X006619Y007613D01*
X006642Y007642D01*
X006668Y007668D01*
X006697Y007691D01*
X006728Y007712D01*
X006761Y007728D01*
X006796Y007742D01*
X006831Y007751D01*
X006868Y007757D01*
X006905Y007759D01*
X006942Y007757D01*
X006979Y007751D01*
X007014Y007742D01*
X007049Y007728D01*
X007082Y007712D01*
X007113Y007691D01*
X007142Y007668D01*
X007168Y007642D01*
X007191Y007613D01*
X007212Y007582D01*
X007228Y007549D01*
X007242Y007514D01*
X007251Y007479D01*
X007257Y007442D01*
X007259Y007405D01*
X007257Y007368D01*
X007251Y007331D01*
X007242Y007296D01*
X007228Y007261D01*
X007212Y007228D01*
X007191Y007197D01*
X007168Y007168D01*
X007142Y007142D01*
X007113Y007119D01*
X007082Y007098D01*
X007049Y007082D01*
X007014Y007068D01*
X006979Y007059D01*
X006942Y007053D01*
X006905Y007051D01*
X006868Y007053D01*
X006831Y007059D01*
X006796Y007068D01*
X006761Y007082D01*
X006728Y007098D01*
X006697Y007119D01*
X006668Y007142D01*
X006642Y007168D01*
X006619Y007197D01*
X006598Y007228D01*
X006582Y007261D01*
X006568Y007296D01*
X006559Y007331D01*
X006553Y007368D01*
X006551Y007405D01*
X013655Y007405D02*
X014155Y007405D01*
X013551Y007405D02*
X013553Y007442D01*
X013559Y007479D01*
X013568Y007514D01*
X013582Y007549D01*
X013598Y007582D01*
X013619Y007613D01*
X013642Y007642D01*
X013668Y007668D01*
X013697Y007691D01*
X013728Y007712D01*
X013761Y007728D01*
X013796Y007742D01*
X013831Y007751D01*
X013868Y007757D01*
X013905Y007759D01*
X013942Y007757D01*
X013979Y007751D01*
X014014Y007742D01*
X014049Y007728D01*
X014082Y007712D01*
X014113Y007691D01*
X014142Y007668D01*
X014168Y007642D01*
X014191Y007613D01*
X014212Y007582D01*
X014228Y007549D01*
X014242Y007514D01*
X014251Y007479D01*
X014257Y007442D01*
X014259Y007405D01*
X014257Y007368D01*
X014251Y007331D01*
X014242Y007296D01*
X014228Y007261D01*
X014212Y007228D01*
X014191Y007197D01*
X014168Y007168D01*
X014142Y007142D01*
X014113Y007119D01*
X014082Y007098D01*
X014049Y007082D01*
X014014Y007068D01*
X013979Y007059D01*
X013942Y007053D01*
X013905Y007051D01*
X013868Y007053D01*
X013831Y007059D01*
X013796Y007068D01*
X013761Y007082D01*
X013728Y007098D01*
X013697Y007119D01*
X013668Y007142D01*
X013642Y007168D01*
X013619Y007197D01*
X013598Y007228D01*
X013582Y007261D01*
X013568Y007296D01*
X013559Y007331D01*
X013553Y007368D01*
X013551Y007405D01*
X013551Y002405D02*
X013553Y002442D01*
X013559Y002479D01*
X013568Y002514D01*
X013582Y002549D01*
X013598Y002582D01*
X013619Y002613D01*
X013642Y002642D01*
X013668Y002668D01*
X013697Y002691D01*
X013728Y002712D01*
X013761Y002728D01*
X013796Y002742D01*
X013831Y002751D01*
X013868Y002757D01*
X013905Y002759D01*
X013942Y002757D01*
X013979Y002751D01*
X014014Y002742D01*
X014049Y002728D01*
X014082Y002712D01*
X014113Y002691D01*
X014142Y002668D01*
X014168Y002642D01*
X014191Y002613D01*
X014212Y002582D01*
X014228Y002549D01*
X014242Y002514D01*
X014251Y002479D01*
X014257Y002442D01*
X014259Y002405D01*
X014257Y002368D01*
X014251Y002331D01*
X014242Y002296D01*
X014228Y002261D01*
X014212Y002228D01*
X014191Y002197D01*
X014168Y002168D01*
X014142Y002142D01*
X014113Y002119D01*
X014082Y002098D01*
X014049Y002082D01*
X014014Y002068D01*
X013979Y002059D01*
X013942Y002053D01*
X013905Y002051D01*
X013868Y002053D01*
X013831Y002059D01*
X013796Y002068D01*
X013761Y002082D01*
X013728Y002098D01*
X013697Y002119D01*
X013668Y002142D01*
X013642Y002168D01*
X013619Y002197D01*
X013598Y002228D01*
X013582Y002261D01*
X013568Y002296D01*
X013559Y002331D01*
X013553Y002368D01*
X013551Y002405D01*
X002437Y021836D02*
X002437Y024474D01*
X001374Y024474D01*
X001374Y021836D01*
X002437Y021836D01*
D12*
X002295Y021115D02*
X002365Y021045D01*
X002365Y020975D01*
X002295Y020905D01*
X002155Y020905D01*
X002085Y020835D01*
X002085Y020765D01*
X002155Y020695D01*
X002295Y020695D01*
X002365Y020765D01*
X002295Y021115D02*
X002155Y021115D01*
X002085Y021045D01*
X001905Y020975D02*
X001765Y021115D01*
X001765Y020695D01*
X001905Y020695D02*
X001625Y020695D01*
D13*
X006472Y008871D02*
X006472Y008380D01*
X006309Y008380D02*
X006636Y008380D01*
X006636Y008707D02*
X006472Y008871D01*
X006824Y008871D02*
X007151Y008871D01*
X006988Y008871D02*
X006988Y008380D01*
X007504Y008380D02*
X007504Y008871D01*
X007667Y008871D02*
X007340Y008871D01*
X007856Y008707D02*
X007856Y008380D01*
X007856Y008625D02*
X008183Y008625D01*
X008183Y008707D02*
X008019Y008871D01*
X007856Y008707D01*
X008183Y008707D02*
X008183Y008380D01*
X008371Y008462D02*
X008371Y008544D01*
X008453Y008625D01*
X008698Y008625D01*
X008698Y008380D02*
X008453Y008380D01*
X008371Y008462D01*
X008453Y008625D02*
X008371Y008707D01*
X008371Y008789D01*
X008453Y008871D01*
X008698Y008871D01*
X008698Y008380D01*
M02*
