G75*
G70*
%OFA0B0*%
%FSLAX24Y24*%
%IPPOS*%
%LPD*%
%AMOC8*
5,1,8,0,0,1.08239X$1,22.5*
%
%ADD10C,0.0000*%
%ADD11C,0.0100*%
%ADD12C,0.0080*%
%ADD13C,0.0070*%
D10*
X000656Y002155D02*
X000656Y018655D01*
X001526Y018655D02*
X001528Y018705D01*
X001534Y018755D01*
X001544Y018804D01*
X001558Y018852D01*
X001575Y018899D01*
X001596Y018944D01*
X001621Y018988D01*
X001649Y019029D01*
X001681Y019068D01*
X001715Y019105D01*
X001752Y019139D01*
X001792Y019169D01*
X001834Y019196D01*
X001878Y019220D01*
X001924Y019241D01*
X001971Y019257D01*
X002019Y019270D01*
X002069Y019279D01*
X002118Y019284D01*
X002169Y019285D01*
X002219Y019282D01*
X002268Y019275D01*
X002317Y019264D01*
X002365Y019249D01*
X002411Y019231D01*
X002456Y019209D01*
X002499Y019183D01*
X002540Y019154D01*
X002579Y019122D01*
X002615Y019087D01*
X002647Y019049D01*
X002677Y019009D01*
X002704Y018966D01*
X002727Y018922D01*
X002746Y018876D01*
X002762Y018828D01*
X002774Y018779D01*
X002782Y018730D01*
X002786Y018680D01*
X002786Y018630D01*
X002782Y018580D01*
X002774Y018531D01*
X002762Y018482D01*
X002746Y018434D01*
X002727Y018388D01*
X002704Y018344D01*
X002677Y018301D01*
X002647Y018261D01*
X002615Y018223D01*
X002579Y018188D01*
X002540Y018156D01*
X002499Y018127D01*
X002456Y018101D01*
X002411Y018079D01*
X002365Y018061D01*
X002317Y018046D01*
X002268Y018035D01*
X002219Y018028D01*
X002169Y018025D01*
X002118Y018026D01*
X002069Y018031D01*
X002019Y018040D01*
X001971Y018053D01*
X001924Y018069D01*
X001878Y018090D01*
X001834Y018114D01*
X001792Y018141D01*
X001752Y018171D01*
X001715Y018205D01*
X001681Y018242D01*
X001649Y018281D01*
X001621Y018322D01*
X001596Y018366D01*
X001575Y018411D01*
X001558Y018458D01*
X001544Y018506D01*
X001534Y018555D01*
X001528Y018605D01*
X001526Y018655D01*
X000656Y018655D02*
X000658Y018731D01*
X000664Y018807D01*
X000673Y018882D01*
X000687Y018957D01*
X000704Y019031D01*
X000725Y019104D01*
X000749Y019176D01*
X000778Y019247D01*
X000809Y019316D01*
X000844Y019383D01*
X000883Y019448D01*
X000925Y019512D01*
X000970Y019573D01*
X001018Y019632D01*
X001069Y019688D01*
X001123Y019742D01*
X001179Y019793D01*
X001238Y019841D01*
X001299Y019886D01*
X001363Y019928D01*
X001428Y019967D01*
X001495Y020002D01*
X001564Y020033D01*
X001635Y020062D01*
X001707Y020086D01*
X001780Y020107D01*
X001854Y020124D01*
X001929Y020138D01*
X002004Y020147D01*
X002080Y020153D01*
X002156Y020155D01*
X013656Y020155D01*
X013026Y018655D02*
X013028Y018705D01*
X013034Y018755D01*
X013044Y018804D01*
X013058Y018852D01*
X013075Y018899D01*
X013096Y018944D01*
X013121Y018988D01*
X013149Y019029D01*
X013181Y019068D01*
X013215Y019105D01*
X013252Y019139D01*
X013292Y019169D01*
X013334Y019196D01*
X013378Y019220D01*
X013424Y019241D01*
X013471Y019257D01*
X013519Y019270D01*
X013569Y019279D01*
X013618Y019284D01*
X013669Y019285D01*
X013719Y019282D01*
X013768Y019275D01*
X013817Y019264D01*
X013865Y019249D01*
X013911Y019231D01*
X013956Y019209D01*
X013999Y019183D01*
X014040Y019154D01*
X014079Y019122D01*
X014115Y019087D01*
X014147Y019049D01*
X014177Y019009D01*
X014204Y018966D01*
X014227Y018922D01*
X014246Y018876D01*
X014262Y018828D01*
X014274Y018779D01*
X014282Y018730D01*
X014286Y018680D01*
X014286Y018630D01*
X014282Y018580D01*
X014274Y018531D01*
X014262Y018482D01*
X014246Y018434D01*
X014227Y018388D01*
X014204Y018344D01*
X014177Y018301D01*
X014147Y018261D01*
X014115Y018223D01*
X014079Y018188D01*
X014040Y018156D01*
X013999Y018127D01*
X013956Y018101D01*
X013911Y018079D01*
X013865Y018061D01*
X013817Y018046D01*
X013768Y018035D01*
X013719Y018028D01*
X013669Y018025D01*
X013618Y018026D01*
X013569Y018031D01*
X013519Y018040D01*
X013471Y018053D01*
X013424Y018069D01*
X013378Y018090D01*
X013334Y018114D01*
X013292Y018141D01*
X013252Y018171D01*
X013215Y018205D01*
X013181Y018242D01*
X013149Y018281D01*
X013121Y018322D01*
X013096Y018366D01*
X013075Y018411D01*
X013058Y018458D01*
X013044Y018506D01*
X013034Y018555D01*
X013028Y018605D01*
X013026Y018655D01*
X013656Y020155D02*
X013732Y020153D01*
X013808Y020147D01*
X013883Y020138D01*
X013958Y020124D01*
X014032Y020107D01*
X014105Y020086D01*
X014177Y020062D01*
X014248Y020033D01*
X014317Y020002D01*
X014384Y019967D01*
X014449Y019928D01*
X014513Y019886D01*
X014574Y019841D01*
X014633Y019793D01*
X014689Y019742D01*
X014743Y019688D01*
X014794Y019632D01*
X014842Y019573D01*
X014887Y019512D01*
X014929Y019448D01*
X014968Y019383D01*
X015003Y019316D01*
X015034Y019247D01*
X015063Y019176D01*
X015087Y019104D01*
X015108Y019031D01*
X015125Y018957D01*
X015139Y018882D01*
X015148Y018807D01*
X015154Y018731D01*
X015156Y018655D01*
X015156Y002155D01*
X015154Y002079D01*
X015148Y002003D01*
X015139Y001928D01*
X015125Y001853D01*
X015108Y001779D01*
X015087Y001706D01*
X015063Y001634D01*
X015034Y001563D01*
X015003Y001494D01*
X014968Y001427D01*
X014929Y001362D01*
X014887Y001298D01*
X014842Y001237D01*
X014794Y001178D01*
X014743Y001122D01*
X014689Y001068D01*
X014633Y001017D01*
X014574Y000969D01*
X014513Y000924D01*
X014449Y000882D01*
X014384Y000843D01*
X014317Y000808D01*
X014248Y000777D01*
X014177Y000748D01*
X014105Y000724D01*
X014032Y000703D01*
X013958Y000686D01*
X013883Y000672D01*
X013808Y000663D01*
X013732Y000657D01*
X013656Y000655D01*
X002156Y000655D01*
X002080Y000657D01*
X002004Y000663D01*
X001929Y000672D01*
X001854Y000686D01*
X001780Y000703D01*
X001707Y000724D01*
X001635Y000748D01*
X001564Y000777D01*
X001495Y000808D01*
X001428Y000843D01*
X001363Y000882D01*
X001299Y000924D01*
X001238Y000969D01*
X001179Y001017D01*
X001123Y001068D01*
X001069Y001122D01*
X001018Y001178D01*
X000970Y001237D01*
X000925Y001298D01*
X000883Y001362D01*
X000844Y001427D01*
X000809Y001494D01*
X000778Y001563D01*
X000749Y001634D01*
X000725Y001706D01*
X000704Y001779D01*
X000687Y001853D01*
X000673Y001928D01*
X000664Y002003D01*
X000658Y002079D01*
X000656Y002155D01*
D11*
X002315Y002527D02*
X003575Y002527D01*
X003575Y000756D01*
X012236Y000756D01*
X012236Y002527D01*
X013496Y002527D01*
X013496Y003118D01*
X013496Y004693D02*
X013496Y005283D01*
X012236Y005283D01*
X012236Y007055D01*
X003575Y007055D01*
X003575Y005283D01*
X002315Y005283D01*
X002315Y004693D01*
X002315Y003118D02*
X002315Y002527D01*
X004156Y001405D02*
X004656Y001405D01*
X004052Y001405D02*
X004054Y001442D01*
X004060Y001479D01*
X004069Y001514D01*
X004083Y001549D01*
X004099Y001582D01*
X004120Y001613D01*
X004143Y001642D01*
X004169Y001668D01*
X004198Y001691D01*
X004229Y001712D01*
X004262Y001728D01*
X004297Y001742D01*
X004332Y001751D01*
X004369Y001757D01*
X004406Y001759D01*
X004443Y001757D01*
X004480Y001751D01*
X004515Y001742D01*
X004550Y001728D01*
X004583Y001712D01*
X004614Y001691D01*
X004643Y001668D01*
X004669Y001642D01*
X004692Y001613D01*
X004713Y001582D01*
X004729Y001549D01*
X004743Y001514D01*
X004752Y001479D01*
X004758Y001442D01*
X004760Y001405D01*
X004758Y001368D01*
X004752Y001331D01*
X004743Y001296D01*
X004729Y001261D01*
X004713Y001228D01*
X004692Y001197D01*
X004669Y001168D01*
X004643Y001142D01*
X004614Y001119D01*
X004583Y001098D01*
X004550Y001082D01*
X004515Y001068D01*
X004480Y001059D01*
X004443Y001053D01*
X004406Y001051D01*
X004369Y001053D01*
X004332Y001059D01*
X004297Y001068D01*
X004262Y001082D01*
X004229Y001098D01*
X004198Y001119D01*
X004169Y001142D01*
X004143Y001168D01*
X004120Y001197D01*
X004099Y001228D01*
X004083Y001261D01*
X004069Y001296D01*
X004060Y001331D01*
X004054Y001368D01*
X004052Y001405D01*
X004406Y001155D02*
X004406Y001655D01*
X005622Y002409D02*
X010189Y002409D01*
X010189Y005401D01*
X005622Y005401D01*
X005622Y002409D01*
X004052Y006405D02*
X004054Y006442D01*
X004060Y006479D01*
X004069Y006514D01*
X004083Y006549D01*
X004099Y006582D01*
X004120Y006613D01*
X004143Y006642D01*
X004169Y006668D01*
X004198Y006691D01*
X004229Y006712D01*
X004262Y006728D01*
X004297Y006742D01*
X004332Y006751D01*
X004369Y006757D01*
X004406Y006759D01*
X004443Y006757D01*
X004480Y006751D01*
X004515Y006742D01*
X004550Y006728D01*
X004583Y006712D01*
X004614Y006691D01*
X004643Y006668D01*
X004669Y006642D01*
X004692Y006613D01*
X004713Y006582D01*
X004729Y006549D01*
X004743Y006514D01*
X004752Y006479D01*
X004758Y006442D01*
X004760Y006405D01*
X004758Y006368D01*
X004752Y006331D01*
X004743Y006296D01*
X004729Y006261D01*
X004713Y006228D01*
X004692Y006197D01*
X004669Y006168D01*
X004643Y006142D01*
X004614Y006119D01*
X004583Y006098D01*
X004550Y006082D01*
X004515Y006068D01*
X004480Y006059D01*
X004443Y006053D01*
X004406Y006051D01*
X004369Y006053D01*
X004332Y006059D01*
X004297Y006068D01*
X004262Y006082D01*
X004229Y006098D01*
X004198Y006119D01*
X004169Y006142D01*
X004143Y006168D01*
X004120Y006197D01*
X004099Y006228D01*
X004083Y006261D01*
X004069Y006296D01*
X004060Y006331D01*
X004054Y006368D01*
X004052Y006405D01*
X002437Y012836D02*
X001374Y012836D01*
X001374Y015474D01*
X002437Y015474D01*
X002437Y012836D01*
X011156Y006405D02*
X011656Y006405D01*
X011052Y006405D02*
X011054Y006442D01*
X011060Y006479D01*
X011069Y006514D01*
X011083Y006549D01*
X011099Y006582D01*
X011120Y006613D01*
X011143Y006642D01*
X011169Y006668D01*
X011198Y006691D01*
X011229Y006712D01*
X011262Y006728D01*
X011297Y006742D01*
X011332Y006751D01*
X011369Y006757D01*
X011406Y006759D01*
X011443Y006757D01*
X011480Y006751D01*
X011515Y006742D01*
X011550Y006728D01*
X011583Y006712D01*
X011614Y006691D01*
X011643Y006668D01*
X011669Y006642D01*
X011692Y006613D01*
X011713Y006582D01*
X011729Y006549D01*
X011743Y006514D01*
X011752Y006479D01*
X011758Y006442D01*
X011760Y006405D01*
X011758Y006368D01*
X011752Y006331D01*
X011743Y006296D01*
X011729Y006261D01*
X011713Y006228D01*
X011692Y006197D01*
X011669Y006168D01*
X011643Y006142D01*
X011614Y006119D01*
X011583Y006098D01*
X011550Y006082D01*
X011515Y006068D01*
X011480Y006059D01*
X011443Y006053D01*
X011406Y006051D01*
X011369Y006053D01*
X011332Y006059D01*
X011297Y006068D01*
X011262Y006082D01*
X011229Y006098D01*
X011198Y006119D01*
X011169Y006142D01*
X011143Y006168D01*
X011120Y006197D01*
X011099Y006228D01*
X011083Y006261D01*
X011069Y006296D01*
X011060Y006331D01*
X011054Y006368D01*
X011052Y006405D01*
X011052Y001405D02*
X011054Y001442D01*
X011060Y001479D01*
X011069Y001514D01*
X011083Y001549D01*
X011099Y001582D01*
X011120Y001613D01*
X011143Y001642D01*
X011169Y001668D01*
X011198Y001691D01*
X011229Y001712D01*
X011262Y001728D01*
X011297Y001742D01*
X011332Y001751D01*
X011369Y001757D01*
X011406Y001759D01*
X011443Y001757D01*
X011480Y001751D01*
X011515Y001742D01*
X011550Y001728D01*
X011583Y001712D01*
X011614Y001691D01*
X011643Y001668D01*
X011669Y001642D01*
X011692Y001613D01*
X011713Y001582D01*
X011729Y001549D01*
X011743Y001514D01*
X011752Y001479D01*
X011758Y001442D01*
X011760Y001405D01*
X011758Y001368D01*
X011752Y001331D01*
X011743Y001296D01*
X011729Y001261D01*
X011713Y001228D01*
X011692Y001197D01*
X011669Y001168D01*
X011643Y001142D01*
X011614Y001119D01*
X011583Y001098D01*
X011550Y001082D01*
X011515Y001068D01*
X011480Y001059D01*
X011443Y001053D01*
X011406Y001051D01*
X011369Y001053D01*
X011332Y001059D01*
X011297Y001068D01*
X011262Y001082D01*
X011229Y001098D01*
X011198Y001119D01*
X011169Y001142D01*
X011143Y001168D01*
X011120Y001197D01*
X011099Y001228D01*
X011083Y001261D01*
X011069Y001296D01*
X011060Y001331D01*
X011054Y001368D01*
X011052Y001405D01*
D12*
X002296Y011695D02*
X002366Y011765D01*
X002296Y011695D02*
X002155Y011695D01*
X002085Y011765D01*
X002085Y011835D01*
X002155Y011905D01*
X002296Y011905D01*
X002366Y011975D01*
X002366Y012045D01*
X002296Y012115D01*
X002155Y012115D01*
X002085Y012045D01*
X001905Y011975D02*
X001765Y012115D01*
X001765Y011695D01*
X001905Y011695D02*
X001625Y011695D01*
D13*
X003973Y007871D02*
X003973Y007380D01*
X004136Y007380D02*
X003809Y007380D01*
X004136Y007707D02*
X003973Y007871D01*
X004325Y007871D02*
X004652Y007871D01*
X004488Y007871D02*
X004488Y007380D01*
X004841Y007871D02*
X005168Y007871D01*
X005004Y007871D02*
X005004Y007380D01*
X005356Y007380D02*
X005356Y007707D01*
X005520Y007871D01*
X005683Y007707D01*
X005683Y007380D01*
X005872Y007462D02*
X005872Y007544D01*
X005954Y007625D01*
X006199Y007625D01*
X006199Y007380D02*
X005954Y007380D01*
X005872Y007462D01*
X005954Y007625D02*
X005872Y007707D01*
X005872Y007789D01*
X005954Y007871D01*
X006199Y007871D01*
X006199Y007380D01*
X005683Y007625D02*
X005356Y007625D01*
M02*
