G75*
G70*
%OFA0B0*%
%FSLAX24Y24*%
%IPPOS*%
%LPD*%
%AMOC8*
5,1,8,0,0,1.08239X$1,22.5*
%
%ADD10C,0.0000*%
%ADD11C,0.1340*%
%ADD12R,0.0595X0.0595*%
%ADD13C,0.0595*%
%ADD14R,0.1782X0.0036*%
%ADD15R,0.0182X0.0036*%
%ADD16R,0.0145X0.0036*%
%ADD17R,0.1782X0.0036*%
%ADD18R,0.0181X0.0036*%
%ADD19R,1.8073X0.0036*%
%ADD20R,1.8073X0.0036*%
%ADD21R,1.8073X0.0036*%
%ADD22R,1.8146X0.0036*%
%ADD23R,1.8218X0.0036*%
%ADD24R,1.8255X0.0036*%
%ADD25R,1.8218X0.0036*%
%ADD26R,1.8182X0.0036*%
%ADD27R,1.8182X0.0036*%
%ADD28R,1.8146X0.0036*%
%ADD29R,1.8109X0.0036*%
%ADD30R,1.8109X0.0036*%
%ADD31R,0.1237X0.0036*%
%ADD32R,0.1236X0.0036*%
%ADD33R,0.0219X0.0036*%
%ADD34R,0.0218X0.0036*%
%ADD35R,0.1236X0.0036*%
%ADD36R,0.1200X0.0036*%
%ADD37R,0.0182X0.0036*%
%ADD38R,0.0219X0.0036*%
%ADD39R,0.1782X0.0036*%
%ADD40R,0.1200X0.0036*%
%ADD41R,0.1164X0.0036*%
%ADD42R,0.0182X0.0036*%
%ADD43R,0.0219X0.0036*%
%ADD44R,0.1163X0.0036*%
%ADD45R,0.1164X0.0036*%
%ADD46R,0.1127X0.0036*%
%ADD47R,0.1127X0.0036*%
%ADD48R,0.1128X0.0036*%
%ADD49R,0.1163X0.0036*%
%ADD50R,0.1127X0.0036*%
%ADD51R,0.1091X0.0036*%
%ADD52R,0.1090X0.0036*%
%ADD53R,0.1091X0.0036*%
%ADD54R,0.1090X0.0036*%
%ADD55R,0.1055X0.0036*%
%ADD56R,0.1091X0.0036*%
%ADD57R,0.1054X0.0036*%
%ADD58R,0.1055X0.0036*%
%ADD59R,0.1054X0.0036*%
%ADD60R,0.1054X0.0036*%
%ADD61R,0.1018X0.0036*%
%ADD62R,0.0145X0.0036*%
%ADD63R,0.1019X0.0036*%
%ADD64R,0.1018X0.0036*%
%ADD65R,0.0981X0.0036*%
%ADD66R,0.1018X0.0036*%
%ADD67R,0.0145X0.0036*%
%ADD68R,0.0146X0.0036*%
%ADD69R,0.1019X0.0036*%
%ADD70R,0.0982X0.0036*%
%ADD71R,0.0981X0.0036*%
%ADD72R,0.0982X0.0036*%
%ADD73R,0.0109X0.0036*%
%ADD74R,0.0981X0.0036*%
%ADD75R,0.0946X0.0036*%
%ADD76R,0.0982X0.0036*%
%ADD77R,0.0946X0.0036*%
%ADD78R,0.0945X0.0036*%
%ADD79R,0.0946X0.0036*%
%ADD80R,0.0909X0.0036*%
%ADD81R,0.0909X0.0036*%
%ADD82R,0.0909X0.0036*%
%ADD83R,0.0909X0.0036*%
%ADD84R,0.0909X0.0036*%
%ADD85R,0.0872X0.0036*%
%ADD86R,0.0873X0.0036*%
%ADD87R,0.0872X0.0036*%
%ADD88R,0.0837X0.0036*%
%ADD89R,0.0836X0.0036*%
%ADD90R,0.0873X0.0036*%
%ADD91R,0.0836X0.0036*%
%ADD92R,0.0837X0.0036*%
%ADD93R,0.0836X0.0036*%
%ADD94R,0.0836X0.0036*%
%ADD95R,0.0837X0.0036*%
%ADD96R,0.0800X0.0036*%
%ADD97R,0.0800X0.0036*%
%ADD98R,0.0764X0.0036*%
%ADD99R,0.0800X0.0036*%
%ADD100R,0.0764X0.0036*%
%ADD101R,0.0764X0.0036*%
%ADD102R,0.0764X0.0036*%
%ADD103R,0.1818X0.0036*%
%ADD104R,0.1927X0.0036*%
%ADD105R,0.2000X0.0036*%
%ADD106R,0.2182X0.0036*%
%ADD107R,0.2364X0.0036*%
%ADD108R,0.0218X0.0036*%
%ADD109R,0.1746X0.0036*%
%ADD110R,0.0291X0.0036*%
%ADD111R,0.1746X0.0036*%
%ADD112R,0.0218X0.0036*%
%ADD113R,0.1746X0.0036*%
%ADD114R,0.0109X0.0036*%
%ADD115R,0.1709X0.0036*%
%ADD116R,0.1709X0.0036*%
%ADD117R,0.1709X0.0036*%
%ADD118R,0.1418X0.0036*%
%ADD119R,0.0181X0.0036*%
%ADD120R,0.1454X0.0036*%
%ADD121R,0.0181X0.0036*%
%ADD122R,0.1418X0.0036*%
%ADD123R,0.1418X0.0036*%
%ADD124R,0.1382X0.0036*%
%ADD125R,0.0036X0.0036*%
%ADD126R,0.1273X0.0036*%
%ADD127R,0.0037X0.0036*%
%ADD128R,0.1273X0.0036*%
%ADD129R,0.1273X0.0036*%
%ADD130R,0.0909X0.0036*%
%ADD131R,0.0872X0.0036*%
%ADD132R,0.0836X0.0036*%
%ADD133R,0.0728X0.0036*%
%ADD134R,0.0728X0.0036*%
%ADD135R,0.0691X0.0036*%
%ADD136R,0.0691X0.0036*%
%ADD137R,0.0691X0.0036*%
%ADD138R,0.0618X0.0036*%
%ADD139R,0.0618X0.0036*%
%ADD140R,0.0618X0.0036*%
%ADD141R,0.0582X0.0036*%
%ADD142R,0.0546X0.0036*%
%ADD143R,0.0546X0.0036*%
%ADD144R,0.0473X0.0036*%
%ADD145R,0.0473X0.0036*%
%ADD146R,0.0473X0.0036*%
%ADD147R,0.0436X0.0036*%
%ADD148R,0.0400X0.0036*%
%ADD149R,0.0400X0.0036*%
%ADD150R,0.0400X0.0036*%
%ADD151R,0.0364X0.0036*%
%ADD152R,0.0327X0.0036*%
%ADD153R,0.0327X0.0036*%
%ADD154R,0.0327X0.0036*%
%ADD155R,0.0290X0.0036*%
%ADD156R,0.0254X0.0036*%
%ADD157R,0.0254X0.0036*%
%ADD158R,0.0254X0.0036*%
%ADD159R,0.0109X0.0036*%
%ADD160R,0.0109X0.0036*%
%ADD161R,0.0873X0.0036*%
D10*
X000655Y002155D02*
X000655Y033155D01*
X001525Y033155D02*
X001527Y033205D01*
X001533Y033255D01*
X001543Y033304D01*
X001557Y033352D01*
X001574Y033399D01*
X001595Y033444D01*
X001620Y033488D01*
X001648Y033529D01*
X001680Y033568D01*
X001714Y033605D01*
X001751Y033639D01*
X001791Y033669D01*
X001833Y033696D01*
X001877Y033720D01*
X001923Y033741D01*
X001970Y033757D01*
X002018Y033770D01*
X002068Y033779D01*
X002117Y033784D01*
X002168Y033785D01*
X002218Y033782D01*
X002267Y033775D01*
X002316Y033764D01*
X002364Y033749D01*
X002410Y033731D01*
X002455Y033709D01*
X002498Y033683D01*
X002539Y033654D01*
X002578Y033622D01*
X002614Y033587D01*
X002646Y033549D01*
X002676Y033509D01*
X002703Y033466D01*
X002726Y033422D01*
X002745Y033376D01*
X002761Y033328D01*
X002773Y033279D01*
X002781Y033230D01*
X002785Y033180D01*
X002785Y033130D01*
X002781Y033080D01*
X002773Y033031D01*
X002761Y032982D01*
X002745Y032934D01*
X002726Y032888D01*
X002703Y032844D01*
X002676Y032801D01*
X002646Y032761D01*
X002614Y032723D01*
X002578Y032688D01*
X002539Y032656D01*
X002498Y032627D01*
X002455Y032601D01*
X002410Y032579D01*
X002364Y032561D01*
X002316Y032546D01*
X002267Y032535D01*
X002218Y032528D01*
X002168Y032525D01*
X002117Y032526D01*
X002068Y032531D01*
X002018Y032540D01*
X001970Y032553D01*
X001923Y032569D01*
X001877Y032590D01*
X001833Y032614D01*
X001791Y032641D01*
X001751Y032671D01*
X001714Y032705D01*
X001680Y032742D01*
X001648Y032781D01*
X001620Y032822D01*
X001595Y032866D01*
X001574Y032911D01*
X001557Y032958D01*
X001543Y033006D01*
X001533Y033055D01*
X001527Y033105D01*
X001525Y033155D01*
X000655Y033155D02*
X000657Y033231D01*
X000663Y033307D01*
X000672Y033382D01*
X000686Y033457D01*
X000703Y033531D01*
X000724Y033604D01*
X000748Y033676D01*
X000777Y033747D01*
X000808Y033816D01*
X000843Y033883D01*
X000882Y033948D01*
X000924Y034012D01*
X000969Y034073D01*
X001017Y034132D01*
X001068Y034188D01*
X001122Y034242D01*
X001178Y034293D01*
X001237Y034341D01*
X001298Y034386D01*
X001362Y034428D01*
X001427Y034467D01*
X001494Y034502D01*
X001563Y034533D01*
X001634Y034562D01*
X001706Y034586D01*
X001779Y034607D01*
X001853Y034624D01*
X001928Y034638D01*
X002003Y034647D01*
X002079Y034653D01*
X002155Y034655D01*
X018655Y034655D01*
X018025Y033155D02*
X018027Y033205D01*
X018033Y033255D01*
X018043Y033304D01*
X018057Y033352D01*
X018074Y033399D01*
X018095Y033444D01*
X018120Y033488D01*
X018148Y033529D01*
X018180Y033568D01*
X018214Y033605D01*
X018251Y033639D01*
X018291Y033669D01*
X018333Y033696D01*
X018377Y033720D01*
X018423Y033741D01*
X018470Y033757D01*
X018518Y033770D01*
X018568Y033779D01*
X018617Y033784D01*
X018668Y033785D01*
X018718Y033782D01*
X018767Y033775D01*
X018816Y033764D01*
X018864Y033749D01*
X018910Y033731D01*
X018955Y033709D01*
X018998Y033683D01*
X019039Y033654D01*
X019078Y033622D01*
X019114Y033587D01*
X019146Y033549D01*
X019176Y033509D01*
X019203Y033466D01*
X019226Y033422D01*
X019245Y033376D01*
X019261Y033328D01*
X019273Y033279D01*
X019281Y033230D01*
X019285Y033180D01*
X019285Y033130D01*
X019281Y033080D01*
X019273Y033031D01*
X019261Y032982D01*
X019245Y032934D01*
X019226Y032888D01*
X019203Y032844D01*
X019176Y032801D01*
X019146Y032761D01*
X019114Y032723D01*
X019078Y032688D01*
X019039Y032656D01*
X018998Y032627D01*
X018955Y032601D01*
X018910Y032579D01*
X018864Y032561D01*
X018816Y032546D01*
X018767Y032535D01*
X018718Y032528D01*
X018668Y032525D01*
X018617Y032526D01*
X018568Y032531D01*
X018518Y032540D01*
X018470Y032553D01*
X018423Y032569D01*
X018377Y032590D01*
X018333Y032614D01*
X018291Y032641D01*
X018251Y032671D01*
X018214Y032705D01*
X018180Y032742D01*
X018148Y032781D01*
X018120Y032822D01*
X018095Y032866D01*
X018074Y032911D01*
X018057Y032958D01*
X018043Y033006D01*
X018033Y033055D01*
X018027Y033105D01*
X018025Y033155D01*
X018655Y034655D02*
X018731Y034653D01*
X018807Y034647D01*
X018882Y034638D01*
X018957Y034624D01*
X019031Y034607D01*
X019104Y034586D01*
X019176Y034562D01*
X019247Y034533D01*
X019316Y034502D01*
X019383Y034467D01*
X019448Y034428D01*
X019512Y034386D01*
X019573Y034341D01*
X019632Y034293D01*
X019688Y034242D01*
X019742Y034188D01*
X019793Y034132D01*
X019841Y034073D01*
X019886Y034012D01*
X019928Y033948D01*
X019967Y033883D01*
X020002Y033816D01*
X020033Y033747D01*
X020062Y033676D01*
X020086Y033604D01*
X020107Y033531D01*
X020124Y033457D01*
X020138Y033382D01*
X020147Y033307D01*
X020153Y033231D01*
X020155Y033155D01*
X020155Y002155D01*
X020153Y002079D01*
X020147Y002003D01*
X020138Y001928D01*
X020124Y001853D01*
X020107Y001779D01*
X020086Y001706D01*
X020062Y001634D01*
X020033Y001563D01*
X020002Y001494D01*
X019967Y001427D01*
X019928Y001362D01*
X019886Y001298D01*
X019841Y001237D01*
X019793Y001178D01*
X019742Y001122D01*
X019688Y001068D01*
X019632Y001017D01*
X019573Y000969D01*
X019512Y000924D01*
X019448Y000882D01*
X019383Y000843D01*
X019316Y000808D01*
X019247Y000777D01*
X019176Y000748D01*
X019104Y000724D01*
X019031Y000703D01*
X018957Y000686D01*
X018882Y000672D01*
X018807Y000663D01*
X018731Y000657D01*
X018655Y000655D01*
X002155Y000655D01*
X002079Y000657D01*
X002003Y000663D01*
X001928Y000672D01*
X001853Y000686D01*
X001779Y000703D01*
X001706Y000724D01*
X001634Y000748D01*
X001563Y000777D01*
X001494Y000808D01*
X001427Y000843D01*
X001362Y000882D01*
X001298Y000924D01*
X001237Y000969D01*
X001178Y001017D01*
X001122Y001068D01*
X001068Y001122D01*
X001017Y001178D01*
X000969Y001237D01*
X000924Y001298D01*
X000882Y001362D01*
X000843Y001427D01*
X000808Y001494D01*
X000777Y001563D01*
X000748Y001634D01*
X000724Y001706D01*
X000703Y001779D01*
X000686Y001853D01*
X000672Y001928D01*
X000663Y002003D01*
X000657Y002079D01*
X000655Y002155D01*
D11*
X002155Y033155D03*
X018655Y033155D03*
D12*
X016905Y016405D03*
X009905Y016405D03*
X002905Y016405D03*
D13*
X003905Y016405D03*
X010905Y016405D03*
X017905Y016405D03*
D14*
X010412Y021228D03*
X010412Y024537D03*
X010412Y024573D03*
X010412Y024682D03*
X010412Y024828D03*
X010412Y024937D03*
X010412Y024973D03*
X010412Y025082D03*
X010412Y025228D03*
X010412Y025337D03*
X010412Y025373D03*
X010412Y025482D03*
X010412Y025628D03*
X010412Y025737D03*
X010412Y025773D03*
X010412Y025882D03*
X010412Y026028D03*
X010412Y026137D03*
X010412Y026173D03*
X010412Y026282D03*
X010412Y026428D03*
X010412Y026537D03*
X010412Y026573D03*
X010412Y026682D03*
X010412Y026828D03*
X010412Y026937D03*
X010412Y026973D03*
X010412Y027082D03*
X010412Y027228D03*
X010412Y027337D03*
X010412Y027373D03*
X010412Y027482D03*
X010412Y027628D03*
X010412Y027737D03*
X010412Y027773D03*
X010412Y027882D03*
X010412Y028028D03*
X010412Y028137D03*
X010412Y028173D03*
X010448Y029082D03*
D15*
X012266Y024755D03*
X012266Y024646D03*
X012848Y024646D03*
X012848Y024755D03*
X008012Y024755D03*
X008012Y024646D03*
X008012Y024464D03*
X003357Y021264D03*
X017466Y021264D03*
D16*
X011158Y029555D03*
X009303Y028464D03*
X003958Y021264D03*
D17*
X010412Y021264D03*
X010412Y024464D03*
X010412Y024646D03*
X010412Y024755D03*
X010412Y024864D03*
X010412Y025046D03*
X010412Y025155D03*
X010412Y025264D03*
X010412Y025446D03*
X010412Y025555D03*
X010412Y025664D03*
X010412Y025846D03*
X010412Y025955D03*
X010412Y026064D03*
X010412Y026246D03*
X010412Y026355D03*
X010412Y026464D03*
X010412Y026646D03*
X010412Y026755D03*
X010412Y026864D03*
X010412Y027046D03*
X010412Y027155D03*
X010412Y027264D03*
X010412Y027446D03*
X010412Y027555D03*
X010412Y027664D03*
X010412Y027846D03*
X010412Y027955D03*
X010412Y028064D03*
X010448Y029046D03*
D18*
X011176Y029446D03*
X016885Y021264D03*
D19*
X010412Y021301D03*
X010412Y021410D03*
X010412Y021519D03*
X010412Y021591D03*
X010412Y021701D03*
X010412Y021810D03*
X010412Y021919D03*
X010412Y021991D03*
X010412Y022101D03*
X010412Y022210D03*
X010412Y022319D03*
X010412Y022391D03*
X010412Y022501D03*
X010412Y022610D03*
X010412Y022719D03*
X010412Y022791D03*
X010412Y022901D03*
X010412Y023010D03*
X010412Y023119D03*
X010412Y023191D03*
X010412Y023301D03*
X010412Y023410D03*
X010412Y023519D03*
X010412Y023591D03*
X010412Y023701D03*
X010412Y023810D03*
X010412Y023919D03*
X010412Y023991D03*
X010412Y024101D03*
D20*
X010412Y024028D03*
X010412Y023882D03*
X010412Y023773D03*
X010412Y023737D03*
X010412Y023628D03*
X010412Y023482D03*
X010412Y023373D03*
X010412Y023337D03*
X010412Y023228D03*
X010412Y023082D03*
X010412Y022973D03*
X010412Y022937D03*
X010412Y022828D03*
X010412Y022682D03*
X010412Y022573D03*
X010412Y022537D03*
X010412Y022428D03*
X010412Y022282D03*
X010412Y022173D03*
X010412Y022137D03*
X010412Y022028D03*
X010412Y021882D03*
X010412Y021773D03*
X010412Y021737D03*
X010412Y021628D03*
X010412Y021482D03*
X010412Y021373D03*
X010412Y021337D03*
D21*
X010412Y021446D03*
X010412Y021555D03*
X010412Y021664D03*
X010412Y021846D03*
X010412Y021955D03*
X010412Y022064D03*
X010412Y022246D03*
X010412Y022355D03*
X010412Y022464D03*
X010412Y022646D03*
X010412Y022755D03*
X010412Y022864D03*
X010412Y023046D03*
X010412Y023155D03*
X010412Y023264D03*
X010412Y023446D03*
X010412Y023555D03*
X010412Y023664D03*
X010412Y023846D03*
X010412Y023955D03*
X010412Y024064D03*
D22*
X010448Y024137D03*
D23*
X010412Y024173D03*
D24*
X010394Y024210D03*
D25*
X010412Y024246D03*
D26*
X010394Y024282D03*
D27*
X010394Y024319D03*
D28*
X010412Y024355D03*
D29*
X010394Y024391D03*
D30*
X010394Y024428D03*
D31*
X015485Y024464D03*
X001994Y024464D03*
D32*
X005339Y024464D03*
D33*
X008576Y024464D03*
X008576Y024646D03*
X008576Y024755D03*
X012285Y024464D03*
D34*
X012830Y024464D03*
D35*
X018830Y024464D03*
D36*
X018848Y024501D03*
X015466Y024501D03*
X005321Y024501D03*
X001975Y024501D03*
D37*
X008012Y024501D03*
X008012Y024610D03*
X008012Y024719D03*
X008012Y024791D03*
X012266Y024791D03*
X012266Y024719D03*
X012266Y024610D03*
X012266Y024501D03*
X012848Y024501D03*
X012848Y024610D03*
X012848Y024719D03*
X012848Y024791D03*
D38*
X008576Y024719D03*
X008576Y024610D03*
X008576Y024501D03*
D39*
X010412Y024501D03*
X010412Y024610D03*
X010412Y024719D03*
X010412Y024791D03*
X010412Y024901D03*
X010412Y025010D03*
X010412Y025119D03*
X010412Y025191D03*
X010412Y025301D03*
X010412Y025410D03*
X010412Y025519D03*
X010412Y025591D03*
X010412Y025701D03*
X010412Y025810D03*
X010412Y025919D03*
X010412Y025991D03*
X010412Y026101D03*
X010412Y026210D03*
X010412Y026319D03*
X010412Y026391D03*
X010412Y026501D03*
X010412Y026610D03*
X010412Y026719D03*
X010412Y026791D03*
X010412Y026901D03*
X010412Y027010D03*
X010412Y027119D03*
X010412Y027191D03*
X010412Y027301D03*
X010412Y027410D03*
X010412Y027519D03*
X010412Y027591D03*
X010412Y027701D03*
X010412Y027810D03*
X010412Y027919D03*
X010412Y027991D03*
X010412Y028101D03*
X010412Y028210D03*
X010448Y029119D03*
D40*
X010412Y030173D03*
X001975Y024537D03*
D41*
X005339Y024537D03*
X005339Y024573D03*
D42*
X008012Y024573D03*
X008012Y024537D03*
X008012Y024682D03*
X008012Y024828D03*
X012266Y024682D03*
X012266Y024573D03*
X012266Y024537D03*
X012848Y024537D03*
X012848Y024573D03*
X012848Y024682D03*
D43*
X008576Y024682D03*
X008576Y024573D03*
X008576Y024537D03*
D44*
X015485Y024537D03*
X015485Y024573D03*
D45*
X018830Y024537D03*
D46*
X018849Y024573D03*
X001976Y024573D03*
X001976Y024682D03*
D47*
X001976Y024610D03*
X018849Y024610D03*
D48*
X005321Y024610D03*
D49*
X015485Y024610D03*
D50*
X015467Y024646D03*
X001976Y024646D03*
D51*
X005340Y024646D03*
D52*
X018830Y024646D03*
D53*
X015485Y024682D03*
X005340Y024682D03*
D54*
X018830Y024682D03*
D55*
X001976Y024719D03*
X001976Y024791D03*
D56*
X005340Y024719D03*
X015485Y024719D03*
D57*
X018848Y024719D03*
D58*
X015467Y024755D03*
X001976Y024755D03*
D59*
X005321Y024755D03*
D60*
X018848Y024755D03*
D61*
X005339Y024791D03*
D62*
X008576Y024791D03*
X011158Y029519D03*
D63*
X015485Y024791D03*
D64*
X018830Y024791D03*
D65*
X001976Y024828D03*
D66*
X005339Y024828D03*
D67*
X008576Y024828D03*
X012285Y024828D03*
D68*
X012830Y024828D03*
D69*
X015485Y024828D03*
D70*
X018848Y024828D03*
X010412Y030282D03*
D71*
X001976Y024864D03*
D72*
X005321Y024864D03*
X010412Y030246D03*
X015466Y024864D03*
X018848Y024864D03*
D73*
X012849Y024864D03*
X012267Y024864D03*
X010412Y032464D03*
X010412Y032646D03*
X010412Y032755D03*
D74*
X001976Y024901D03*
D75*
X005339Y024901D03*
D76*
X010412Y030210D03*
X010412Y030319D03*
X015466Y024901D03*
D77*
X018830Y024901D03*
D78*
X015485Y024937D03*
X015485Y024973D03*
X001958Y024937D03*
D79*
X005339Y024937D03*
D80*
X010412Y030428D03*
X018849Y024973D03*
X018849Y024937D03*
D81*
X005321Y024973D03*
X001976Y024973D03*
D82*
X001976Y025010D03*
X005321Y025010D03*
D83*
X010412Y030391D03*
X010412Y030501D03*
X015467Y025010D03*
X018849Y025010D03*
D84*
X001976Y025046D03*
D85*
X005339Y025046D03*
D86*
X010794Y032864D03*
X010794Y033046D03*
X010794Y033155D03*
X010794Y033264D03*
X015485Y025046D03*
D87*
X018830Y025046D03*
D88*
X001976Y025082D03*
D89*
X005321Y025082D03*
D90*
X010794Y032937D03*
X010794Y032973D03*
X010794Y033082D03*
X010794Y033228D03*
X015485Y025082D03*
D91*
X018848Y025082D03*
X010412Y030573D03*
X010412Y030682D03*
D92*
X015467Y025119D03*
X001976Y025119D03*
D93*
X005321Y025119D03*
D94*
X010412Y030610D03*
X018848Y025119D03*
D95*
X015467Y025155D03*
X001976Y025155D03*
D96*
X001957Y025264D03*
X005339Y025264D03*
X005339Y025155D03*
X015485Y025264D03*
X018830Y025155D03*
D97*
X015485Y025191D03*
X015485Y025301D03*
X005339Y025301D03*
X005339Y025191D03*
X001957Y025191D03*
X001957Y025301D03*
D98*
X010412Y030719D03*
X010412Y030791D03*
X018848Y025301D03*
X018848Y025191D03*
D99*
X015485Y025228D03*
X001957Y025228D03*
D100*
X005321Y025228D03*
D101*
X010412Y030828D03*
X018848Y025228D03*
D102*
X018848Y025264D03*
X010412Y030755D03*
D103*
X010430Y028246D03*
D104*
X010412Y028282D03*
D105*
X010412Y028319D03*
D106*
X010394Y028355D03*
D107*
X010412Y028391D03*
D108*
X009339Y028428D03*
D109*
X010430Y028428D03*
X010430Y028537D03*
X010430Y028573D03*
X010430Y028682D03*
X010430Y028828D03*
X010430Y028937D03*
X010430Y028973D03*
X010430Y029228D03*
D110*
X011485Y028428D03*
D111*
X010430Y028464D03*
X010430Y028646D03*
X010430Y028755D03*
X010430Y028864D03*
X010430Y029155D03*
D112*
X011521Y028464D03*
D113*
X010430Y028501D03*
X010430Y028610D03*
X010430Y028719D03*
X010430Y028791D03*
X010430Y028901D03*
X010430Y029010D03*
X010430Y029191D03*
D114*
X011176Y029591D03*
X011540Y028501D03*
D115*
X010449Y029264D03*
D116*
X010449Y029301D03*
D117*
X010449Y029337D03*
D118*
X010339Y029373D03*
X010339Y029482D03*
D119*
X011176Y029482D03*
X011176Y029373D03*
D120*
X010321Y029410D03*
D121*
X011176Y029410D03*
D122*
X010339Y029446D03*
X010339Y029555D03*
D123*
X010339Y029519D03*
D124*
X010357Y029591D03*
D125*
X009721Y029628D03*
D126*
X010412Y029628D03*
X010412Y029737D03*
X010412Y029773D03*
X010412Y029882D03*
X010412Y030028D03*
X010412Y030137D03*
D127*
X011176Y029628D03*
D128*
X010412Y029664D03*
X010412Y029846D03*
X010412Y029955D03*
X010412Y030064D03*
D129*
X010412Y030101D03*
X010412Y029991D03*
X010412Y029919D03*
X010412Y029810D03*
X010412Y029701D03*
D130*
X010412Y030355D03*
X010412Y030464D03*
D131*
X010430Y030537D03*
D132*
X010412Y030646D03*
D133*
X010430Y030864D03*
D134*
X010430Y030901D03*
D135*
X010412Y030937D03*
X010412Y030973D03*
D136*
X010412Y031010D03*
D137*
X010412Y031046D03*
D138*
X010412Y031082D03*
X010412Y031228D03*
D139*
X010412Y031191D03*
X010412Y031119D03*
D140*
X010412Y031155D03*
D141*
X010430Y031264D03*
D142*
X010412Y031301D03*
X010412Y031410D03*
D143*
X010412Y031373D03*
X010412Y031337D03*
D144*
X010412Y031446D03*
X010412Y031555D03*
D145*
X010412Y031482D03*
D146*
X010412Y031519D03*
X010412Y031591D03*
D147*
X010430Y031628D03*
D148*
X010412Y031664D03*
D149*
X010412Y031701D03*
D150*
X010412Y031737D03*
X010412Y031773D03*
D151*
X010430Y031810D03*
D152*
X010412Y031846D03*
X010412Y031955D03*
D153*
X010412Y031882D03*
D154*
X010412Y031919D03*
D155*
X010430Y031991D03*
D156*
X010412Y032028D03*
X010412Y032137D03*
X010412Y032173D03*
X010412Y032282D03*
D157*
X010412Y032246D03*
X010412Y032355D03*
X010412Y032064D03*
D158*
X010412Y032101D03*
X010412Y032210D03*
X010412Y032319D03*
X010412Y032391D03*
D159*
X010412Y032428D03*
X010412Y032537D03*
X010412Y032573D03*
X010412Y032682D03*
X010412Y032828D03*
D160*
X010412Y032791D03*
X010412Y032719D03*
X010412Y032610D03*
X010412Y032501D03*
D161*
X010794Y032901D03*
X010794Y033010D03*
X010794Y033119D03*
X010794Y033191D03*
M02*
