G75*
G70*
%OFA0B0*%
%FSLAX24Y24*%
%IPPOS*%
%LPD*%
%AMOC8*
5,1,8,0,0,1.08239X$1,22.5*
%
%ADD10C,0.0000*%
%ADD11R,1.2525X0.0025*%
%ADD12R,1.2525X0.0025*%
%ADD13R,0.0151X0.0025*%
%ADD14R,0.0149X0.0025*%
%ADD15R,0.0099X0.0025*%
%ADD16R,0.0275X0.0025*%
%ADD17R,0.0100X0.0025*%
%ADD18R,0.0274X0.0025*%
%ADD19R,0.0324X0.0025*%
%ADD20R,0.0326X0.0025*%
%ADD21R,0.0350X0.0025*%
%ADD22R,0.0325X0.0025*%
%ADD23R,0.0349X0.0025*%
%ADD24R,0.0374X0.0025*%
%ADD25R,0.0499X0.0025*%
%ADD26R,0.0351X0.0025*%
%ADD27R,0.0500X0.0025*%
%ADD28R,0.0450X0.0025*%
%ADD29R,0.0650X0.0025*%
%ADD30R,0.0449X0.0025*%
%ADD31R,0.0649X0.0025*%
%ADD32R,0.0376X0.0025*%
%ADD33R,0.0750X0.0025*%
%ADD34R,0.0501X0.0025*%
%ADD35R,0.0375X0.0025*%
%ADD36R,0.0575X0.0025*%
%ADD37R,0.0799X0.0025*%
%ADD38R,0.0801X0.0025*%
%ADD39R,0.0625X0.0025*%
%ADD40R,0.0874X0.0025*%
%ADD41R,0.0875X0.0025*%
%ADD42R,0.0424X0.0025*%
%ADD43R,0.0675X0.0025*%
%ADD44R,0.0950X0.0025*%
%ADD45R,0.0700X0.0025*%
%ADD46R,0.0974X0.0025*%
%ADD47R,0.0699X0.0025*%
%ADD48R,0.0975X0.0025*%
%ADD49R,0.1099X0.0025*%
%ADD50R,0.1100X0.0025*%
%ADD51R,0.0976X0.0025*%
%ADD52R,0.0474X0.0025*%
%ADD53R,0.1000X0.0025*%
%ADD54R,0.1001X0.0025*%
%ADD55R,0.0399X0.0025*%
%ADD56R,0.0524X0.0025*%
%ADD57R,0.0400X0.0025*%
%ADD58R,0.0225X0.0025*%
%ADD59R,0.0401X0.0025*%
%ADD60R,0.0525X0.0025*%
%ADD61R,0.0176X0.0025*%
%ADD62R,0.0174X0.0025*%
%ADD63R,0.0074X0.0025*%
%ADD64R,0.0076X0.0025*%
%ADD65R,0.0574X0.0025*%
%ADD66R,0.0624X0.0025*%
%ADD67R,0.0299X0.0025*%
%ADD68R,0.0300X0.0025*%
%ADD69R,0.0850X0.0025*%
%ADD70R,0.1151X0.0025*%
%ADD71R,0.1150X0.0025*%
%ADD72R,0.0550X0.0025*%
%ADD73R,0.0825X0.0025*%
%ADD74R,0.0549X0.0025*%
%ADD75R,0.0800X0.0025*%
%ADD76R,0.0900X0.0025*%
%ADD77R,0.0775X0.0025*%
%ADD78R,0.0849X0.0025*%
%ADD79R,0.0725X0.0025*%
%ADD80R,0.0724X0.0025*%
%ADD81R,0.0600X0.0025*%
%ADD82R,0.0599X0.0025*%
%ADD83R,0.0301X0.0025*%
%ADD84R,0.0025X0.0025*%
%ADD85R,0.0425X0.0025*%
%ADD86R,0.0024X0.0025*%
%ADD87R,0.0075X0.0025*%
%ADD88R,0.0451X0.0025*%
%ADD89R,0.0126X0.0025*%
%ADD90R,0.0199X0.0025*%
%ADD91R,0.0200X0.0025*%
%ADD92R,0.0276X0.0025*%
%ADD93R,0.0776X0.0025*%
%ADD94R,0.0999X0.0025*%
%ADD95R,0.0925X0.0025*%
%ADD96R,0.0949X0.0025*%
%ADD97R,0.0924X0.0025*%
%ADD98R,0.0926X0.0025*%
%ADD99R,0.0749X0.0025*%
%ADD100R,0.0851X0.0025*%
%ADD101R,0.0751X0.0025*%
%ADD102R,0.0051X0.0025*%
%ADD103R,0.0049X0.0025*%
%ADD104R,0.0026X0.0025*%
%ADD105R,0.0601X0.0025*%
%ADD106R,0.0250X0.0025*%
%ADD107R,0.0251X0.0025*%
%ADD108R,0.0175X0.0025*%
%ADD109R,0.0125X0.0025*%
%ADD110R,0.0151X0.0025*%
%ADD111R,0.0149X0.0025*%
%ADD112R,0.0151X0.0025*%
%ADD113R,0.0501X0.0025*%
%ADD114R,0.0449X0.0025*%
%ADD115R,0.0450X0.0025*%
%ADD116R,0.0325X0.0025*%
%ADD117R,0.0350X0.0025*%
%ADD118R,0.0326X0.0025*%
%ADD119R,0.0351X0.0025*%
%ADD120R,0.0300X0.0025*%
%ADD121R,0.0324X0.0025*%
%ADD122R,0.0349X0.0025*%
%ADD123R,0.0149X0.0025*%
%ADD124R,0.0826X0.0025*%
%ADD125R,0.0426X0.0025*%
%ADD126R,0.1025X0.0025*%
%ADD127R,0.1075X0.0025*%
%ADD128R,0.1074X0.0025*%
%ADD129R,0.1126X0.0025*%
%ADD130R,0.0475X0.0025*%
%ADD131R,0.1174X0.0025*%
%ADD132R,0.0526X0.0025*%
%ADD133R,0.0551X0.0025*%
%ADD134R,0.0249X0.0025*%
%ADD135R,0.0824X0.0025*%
%ADD136R,0.0651X0.0025*%
%ADD137R,0.0050X0.0025*%
%ADD138R,0.2051X0.0025*%
%ADD139R,0.1675X0.0025*%
%ADD140R,0.0899X0.0025*%
%ADD141R,0.0674X0.0025*%
%ADD142R,0.0774X0.0025*%
%ADD143R,0.0576X0.0025*%
%ADD144R,0.0701X0.0025*%
%ADD145R,0.0476X0.0025*%
%ADD146R,0.0226X0.0025*%
%ADD147R,0.0201X0.0025*%
%ADD148R,0.0224X0.0025*%
%ADD149R,0.0150X0.0025*%
%ADD150C,0.0100*%
%ADD151C,0.0060*%
D10*
X000656Y002155D02*
X000656Y018655D01*
X001526Y018655D02*
X001528Y018705D01*
X001534Y018755D01*
X001544Y018804D01*
X001558Y018852D01*
X001575Y018899D01*
X001596Y018944D01*
X001621Y018988D01*
X001649Y019029D01*
X001681Y019068D01*
X001715Y019105D01*
X001752Y019139D01*
X001792Y019169D01*
X001834Y019196D01*
X001878Y019220D01*
X001924Y019241D01*
X001971Y019257D01*
X002019Y019270D01*
X002069Y019279D01*
X002118Y019284D01*
X002169Y019285D01*
X002219Y019282D01*
X002268Y019275D01*
X002317Y019264D01*
X002365Y019249D01*
X002411Y019231D01*
X002456Y019209D01*
X002499Y019183D01*
X002540Y019154D01*
X002579Y019122D01*
X002615Y019087D01*
X002647Y019049D01*
X002677Y019009D01*
X002704Y018966D01*
X002727Y018922D01*
X002746Y018876D01*
X002762Y018828D01*
X002774Y018779D01*
X002782Y018730D01*
X002786Y018680D01*
X002786Y018630D01*
X002782Y018580D01*
X002774Y018531D01*
X002762Y018482D01*
X002746Y018434D01*
X002727Y018388D01*
X002704Y018344D01*
X002677Y018301D01*
X002647Y018261D01*
X002615Y018223D01*
X002579Y018188D01*
X002540Y018156D01*
X002499Y018127D01*
X002456Y018101D01*
X002411Y018079D01*
X002365Y018061D01*
X002317Y018046D01*
X002268Y018035D01*
X002219Y018028D01*
X002169Y018025D01*
X002118Y018026D01*
X002069Y018031D01*
X002019Y018040D01*
X001971Y018053D01*
X001924Y018069D01*
X001878Y018090D01*
X001834Y018114D01*
X001792Y018141D01*
X001752Y018171D01*
X001715Y018205D01*
X001681Y018242D01*
X001649Y018281D01*
X001621Y018322D01*
X001596Y018366D01*
X001575Y018411D01*
X001558Y018458D01*
X001544Y018506D01*
X001534Y018555D01*
X001528Y018605D01*
X001526Y018655D01*
X000656Y018655D02*
X000658Y018731D01*
X000664Y018807D01*
X000673Y018882D01*
X000687Y018957D01*
X000704Y019031D01*
X000725Y019104D01*
X000749Y019176D01*
X000778Y019247D01*
X000809Y019316D01*
X000844Y019383D01*
X000883Y019448D01*
X000925Y019512D01*
X000970Y019573D01*
X001018Y019632D01*
X001069Y019688D01*
X001123Y019742D01*
X001179Y019793D01*
X001238Y019841D01*
X001299Y019886D01*
X001363Y019928D01*
X001428Y019967D01*
X001495Y020002D01*
X001564Y020033D01*
X001635Y020062D01*
X001707Y020086D01*
X001780Y020107D01*
X001854Y020124D01*
X001929Y020138D01*
X002004Y020147D01*
X002080Y020153D01*
X002156Y020155D01*
X013656Y020155D01*
X013026Y018655D02*
X013028Y018705D01*
X013034Y018755D01*
X013044Y018804D01*
X013058Y018852D01*
X013075Y018899D01*
X013096Y018944D01*
X013121Y018988D01*
X013149Y019029D01*
X013181Y019068D01*
X013215Y019105D01*
X013252Y019139D01*
X013292Y019169D01*
X013334Y019196D01*
X013378Y019220D01*
X013424Y019241D01*
X013471Y019257D01*
X013519Y019270D01*
X013569Y019279D01*
X013618Y019284D01*
X013669Y019285D01*
X013719Y019282D01*
X013768Y019275D01*
X013817Y019264D01*
X013865Y019249D01*
X013911Y019231D01*
X013956Y019209D01*
X013999Y019183D01*
X014040Y019154D01*
X014079Y019122D01*
X014115Y019087D01*
X014147Y019049D01*
X014177Y019009D01*
X014204Y018966D01*
X014227Y018922D01*
X014246Y018876D01*
X014262Y018828D01*
X014274Y018779D01*
X014282Y018730D01*
X014286Y018680D01*
X014286Y018630D01*
X014282Y018580D01*
X014274Y018531D01*
X014262Y018482D01*
X014246Y018434D01*
X014227Y018388D01*
X014204Y018344D01*
X014177Y018301D01*
X014147Y018261D01*
X014115Y018223D01*
X014079Y018188D01*
X014040Y018156D01*
X013999Y018127D01*
X013956Y018101D01*
X013911Y018079D01*
X013865Y018061D01*
X013817Y018046D01*
X013768Y018035D01*
X013719Y018028D01*
X013669Y018025D01*
X013618Y018026D01*
X013569Y018031D01*
X013519Y018040D01*
X013471Y018053D01*
X013424Y018069D01*
X013378Y018090D01*
X013334Y018114D01*
X013292Y018141D01*
X013252Y018171D01*
X013215Y018205D01*
X013181Y018242D01*
X013149Y018281D01*
X013121Y018322D01*
X013096Y018366D01*
X013075Y018411D01*
X013058Y018458D01*
X013044Y018506D01*
X013034Y018555D01*
X013028Y018605D01*
X013026Y018655D01*
X013656Y020155D02*
X013732Y020153D01*
X013808Y020147D01*
X013883Y020138D01*
X013958Y020124D01*
X014032Y020107D01*
X014105Y020086D01*
X014177Y020062D01*
X014248Y020033D01*
X014317Y020002D01*
X014384Y019967D01*
X014449Y019928D01*
X014513Y019886D01*
X014574Y019841D01*
X014633Y019793D01*
X014689Y019742D01*
X014743Y019688D01*
X014794Y019632D01*
X014842Y019573D01*
X014887Y019512D01*
X014929Y019448D01*
X014968Y019383D01*
X015003Y019316D01*
X015034Y019247D01*
X015063Y019176D01*
X015087Y019104D01*
X015108Y019031D01*
X015125Y018957D01*
X015139Y018882D01*
X015148Y018807D01*
X015154Y018731D01*
X015156Y018655D01*
X015156Y002155D01*
X015154Y002079D01*
X015148Y002003D01*
X015139Y001928D01*
X015125Y001853D01*
X015108Y001779D01*
X015087Y001706D01*
X015063Y001634D01*
X015034Y001563D01*
X015003Y001494D01*
X014968Y001427D01*
X014929Y001362D01*
X014887Y001298D01*
X014842Y001237D01*
X014794Y001178D01*
X014743Y001122D01*
X014689Y001068D01*
X014633Y001017D01*
X014574Y000969D01*
X014513Y000924D01*
X014449Y000882D01*
X014384Y000843D01*
X014317Y000808D01*
X014248Y000777D01*
X014177Y000748D01*
X014105Y000724D01*
X014032Y000703D01*
X013958Y000686D01*
X013883Y000672D01*
X013808Y000663D01*
X013732Y000657D01*
X013656Y000655D01*
X002156Y000655D01*
X002080Y000657D01*
X002004Y000663D01*
X001929Y000672D01*
X001854Y000686D01*
X001780Y000703D01*
X001707Y000724D01*
X001635Y000748D01*
X001564Y000777D01*
X001495Y000808D01*
X001428Y000843D01*
X001363Y000882D01*
X001299Y000924D01*
X001238Y000969D01*
X001179Y001017D01*
X001123Y001068D01*
X001069Y001122D01*
X001018Y001178D01*
X000970Y001237D01*
X000925Y001298D01*
X000883Y001362D01*
X000844Y001427D01*
X000809Y001494D01*
X000778Y001563D01*
X000749Y001634D01*
X000725Y001706D01*
X000704Y001779D01*
X000687Y001853D01*
X000673Y001928D01*
X000664Y002003D01*
X000658Y002079D01*
X000656Y002155D01*
D11*
X007905Y002155D03*
D12*
X007905Y002180D03*
X007905Y002205D03*
X007905Y002230D03*
X007905Y002255D03*
X007905Y002280D03*
X007905Y006605D03*
X007905Y006630D03*
X007905Y006655D03*
X007905Y006680D03*
X007905Y006705D03*
X007905Y006730D03*
D13*
X001718Y006580D03*
X001718Y006555D03*
X001718Y006530D03*
X001718Y006505D03*
X001718Y006480D03*
X001718Y006455D03*
X001718Y006430D03*
X001718Y006405D03*
X001718Y006380D03*
X001718Y006355D03*
X001718Y006330D03*
X001718Y006305D03*
X001718Y006280D03*
X001718Y006255D03*
X001718Y006230D03*
X001718Y006205D03*
X001718Y006180D03*
X001718Y006155D03*
X001718Y006130D03*
X001718Y006105D03*
X001718Y006080D03*
X001718Y006055D03*
X001718Y006030D03*
X001718Y006005D03*
X001718Y005980D03*
X001718Y005955D03*
X001718Y005930D03*
X001718Y005905D03*
X001718Y005880D03*
X001718Y005855D03*
X001718Y005830D03*
X001718Y005805D03*
X001718Y005780D03*
X001718Y005755D03*
X001718Y005730D03*
X001718Y005705D03*
X001718Y005680D03*
X001718Y005655D03*
X001718Y005630D03*
X001718Y005605D03*
X001718Y005580D03*
X001718Y005555D03*
X001718Y005530D03*
X001718Y005505D03*
X001718Y005480D03*
X001718Y005455D03*
X001718Y005430D03*
X001718Y005405D03*
X001718Y005380D03*
X001718Y005355D03*
X001718Y005330D03*
X001718Y005305D03*
X001718Y005280D03*
X001718Y005255D03*
X001718Y005230D03*
X001718Y005205D03*
X001718Y005180D03*
X001718Y005155D03*
X001718Y005130D03*
X001718Y005105D03*
X001718Y005080D03*
X001718Y005055D03*
X001718Y005030D03*
X001718Y005005D03*
X001718Y004980D03*
X001718Y004955D03*
X001718Y004930D03*
X001718Y004905D03*
X001718Y004880D03*
X001718Y004855D03*
X001718Y004830D03*
X001718Y004805D03*
X001718Y004780D03*
X001718Y004755D03*
X001718Y004705D03*
X001718Y004680D03*
X001718Y004630D03*
X001718Y004605D03*
X001718Y004580D03*
X001718Y004555D03*
X001718Y004530D03*
X001718Y004505D03*
X001718Y004480D03*
X001718Y004455D03*
X001718Y004430D03*
X001718Y004405D03*
X001718Y004380D03*
X001718Y004355D03*
X001718Y004330D03*
X001718Y004305D03*
X001718Y004280D03*
X001718Y004255D03*
X001718Y004230D03*
X001718Y004205D03*
X001718Y004180D03*
X001718Y004155D03*
X001718Y004130D03*
X001718Y004105D03*
X001718Y004080D03*
X001718Y004055D03*
X001718Y004030D03*
X001718Y004005D03*
X001718Y003980D03*
X001718Y003955D03*
X001718Y003930D03*
X001718Y003905D03*
X001718Y003880D03*
X001718Y003855D03*
X001718Y003830D03*
X001718Y003805D03*
X001718Y003780D03*
X001718Y003755D03*
X001718Y003730D03*
X001718Y003705D03*
X001718Y003680D03*
X001718Y003655D03*
X001718Y003630D03*
X001718Y003605D03*
X001718Y003580D03*
X001718Y003555D03*
X001718Y003530D03*
X001718Y003505D03*
X001718Y003480D03*
X001718Y003455D03*
X001718Y003430D03*
X001718Y003405D03*
X001718Y003380D03*
X001718Y003355D03*
X001718Y003330D03*
X001718Y003305D03*
X001718Y003280D03*
X001718Y003255D03*
X001718Y003230D03*
X001718Y003205D03*
X001718Y003180D03*
X001718Y003155D03*
X001718Y003130D03*
X001718Y003105D03*
X001718Y003080D03*
X001718Y003055D03*
X001718Y003030D03*
X001718Y003005D03*
X001718Y002980D03*
X001718Y002955D03*
X001718Y002930D03*
X001718Y002905D03*
X001718Y002880D03*
X001718Y002855D03*
X001718Y002830D03*
X001718Y002805D03*
X001718Y002780D03*
X001718Y002755D03*
X001718Y002730D03*
X001718Y002705D03*
X001718Y002680D03*
X001718Y002655D03*
X001718Y002630D03*
X001718Y002605D03*
X001718Y002580D03*
X001718Y002555D03*
X001718Y002530D03*
X001718Y002505D03*
X001718Y002480D03*
X001718Y002455D03*
X001718Y002430D03*
X001718Y002405D03*
X001718Y002380D03*
X001718Y002355D03*
X001718Y002330D03*
X001718Y002305D03*
D14*
X013668Y003630D03*
X013668Y003855D03*
X014093Y003855D03*
X014093Y003830D03*
X014093Y003805D03*
X014093Y003780D03*
X014093Y003755D03*
X014093Y003730D03*
X014093Y003705D03*
X014093Y003680D03*
X014093Y003655D03*
X014093Y003630D03*
X014093Y003605D03*
X014093Y003580D03*
X014093Y003555D03*
X014093Y003530D03*
X014093Y003505D03*
X014093Y003480D03*
X014093Y003455D03*
X014093Y003430D03*
X014093Y003405D03*
X014093Y003380D03*
X014093Y003355D03*
X014093Y003330D03*
X014093Y003305D03*
X014093Y003280D03*
X014093Y003255D03*
X014093Y003230D03*
X014093Y003205D03*
X014093Y003180D03*
X014093Y003155D03*
X014093Y003130D03*
X014093Y003105D03*
X014093Y003080D03*
X014093Y003055D03*
X014093Y003030D03*
X014093Y003005D03*
X014093Y002980D03*
X014093Y002955D03*
X014093Y002930D03*
X014093Y002905D03*
X014093Y002880D03*
X014093Y002855D03*
X014093Y002830D03*
X014093Y002805D03*
X014093Y002780D03*
X014093Y002755D03*
X014093Y002730D03*
X014093Y002705D03*
X014093Y002680D03*
X014093Y002655D03*
X014093Y002630D03*
X014093Y002605D03*
X014093Y002580D03*
X014093Y002555D03*
X014093Y002530D03*
X014093Y002505D03*
X014093Y002480D03*
X014093Y002455D03*
X014093Y002430D03*
X014093Y002405D03*
X014093Y002380D03*
X014093Y002355D03*
X014093Y002330D03*
X014093Y002305D03*
X014093Y003880D03*
X014093Y003905D03*
X014093Y003930D03*
X014093Y003955D03*
X014093Y003980D03*
X014093Y004005D03*
X014093Y004030D03*
X014093Y004055D03*
X014093Y004080D03*
X014093Y004105D03*
X014093Y004130D03*
X014093Y004155D03*
X014093Y004180D03*
X014093Y004205D03*
X014093Y004230D03*
X014093Y004255D03*
X014093Y004280D03*
X014093Y004305D03*
X014093Y004330D03*
X014093Y004355D03*
X014093Y004380D03*
X014093Y004405D03*
X014093Y004430D03*
X014093Y004455D03*
X014093Y004480D03*
X014093Y004505D03*
X014093Y004530D03*
X014093Y004555D03*
X014093Y004580D03*
X014093Y004605D03*
X014093Y004630D03*
X014093Y004680D03*
X014093Y004705D03*
X014093Y004755D03*
X014093Y004780D03*
X014093Y004805D03*
X014093Y004830D03*
X014093Y004855D03*
X014093Y004880D03*
X014093Y004905D03*
X014093Y004930D03*
X014093Y004955D03*
X014093Y004980D03*
X014093Y005005D03*
X014093Y005030D03*
X014093Y005055D03*
X014093Y005080D03*
X014093Y005105D03*
X014093Y005130D03*
X014093Y005155D03*
X014093Y005180D03*
X014093Y005205D03*
X014093Y005230D03*
X014093Y005255D03*
X014093Y005280D03*
X014093Y005305D03*
X014093Y005330D03*
X014093Y005355D03*
X014093Y005380D03*
X014093Y005405D03*
X014093Y005430D03*
X014093Y005455D03*
X014093Y005480D03*
X014093Y005505D03*
X014093Y005530D03*
X014093Y005555D03*
X014093Y005580D03*
X014093Y005605D03*
X014093Y005630D03*
X014093Y005655D03*
X014093Y005680D03*
X014093Y005705D03*
X014093Y005730D03*
X014093Y005755D03*
X014093Y005780D03*
X014093Y005805D03*
X014093Y005830D03*
X014093Y005855D03*
X014093Y005880D03*
X014093Y005905D03*
X014093Y005930D03*
X014093Y005955D03*
X014093Y005980D03*
X014093Y006005D03*
X014093Y006030D03*
X014093Y006055D03*
X014093Y006080D03*
X014093Y006105D03*
X014093Y006130D03*
X014093Y006155D03*
X014093Y006180D03*
X014093Y006205D03*
X014093Y006230D03*
X014093Y006255D03*
X014093Y006280D03*
X014093Y006305D03*
X014093Y006330D03*
X014093Y006355D03*
X014093Y006380D03*
X014093Y006405D03*
X014093Y006430D03*
X014093Y006455D03*
X014093Y006480D03*
X014093Y006505D03*
X014093Y006530D03*
X014093Y006555D03*
X014093Y006580D03*
D15*
X005493Y005555D03*
X004243Y002555D03*
D16*
X003131Y003205D03*
X003106Y003130D03*
X003106Y003105D03*
X003156Y003280D03*
X003206Y003455D03*
X003231Y003555D03*
X006881Y002555D03*
X007706Y005130D03*
X007706Y005155D03*
X007756Y005305D03*
X007756Y005330D03*
X007806Y005505D03*
X007231Y005855D03*
X007231Y005880D03*
X010781Y005280D03*
X010781Y005255D03*
X010805Y005355D03*
X010805Y005380D03*
X010831Y005430D03*
X010831Y005455D03*
X010855Y005530D03*
X010881Y005630D03*
X010931Y005805D03*
X012306Y003705D03*
D17*
X012993Y003780D03*
X013669Y003805D03*
X013669Y003755D03*
X013669Y003730D03*
X013369Y002880D03*
X010169Y002555D03*
X008194Y005555D03*
X006868Y003780D03*
X007243Y002880D03*
X006069Y001080D03*
D18*
X006106Y000980D03*
X006131Y001405D03*
X006556Y001580D03*
X004156Y003480D03*
X003081Y003055D03*
X003081Y003030D03*
X007406Y005205D03*
X007406Y005230D03*
X007731Y005230D03*
X007731Y005205D03*
X007731Y005180D03*
X007781Y005405D03*
X010906Y005705D03*
X010906Y005730D03*
X013006Y002555D03*
D19*
X012331Y004755D03*
X012331Y004780D03*
X012331Y004805D03*
X012331Y004830D03*
X012331Y004855D03*
X012331Y004880D03*
X012331Y004905D03*
X012331Y004930D03*
X012331Y004955D03*
X012331Y004980D03*
X012331Y005005D03*
X012331Y005030D03*
X012331Y005055D03*
X012331Y005080D03*
X012331Y005105D03*
X012331Y005130D03*
X012331Y005155D03*
X012331Y005180D03*
X012331Y005205D03*
X012331Y005230D03*
X012331Y005255D03*
X012331Y005280D03*
X012331Y005305D03*
X012331Y005330D03*
X012331Y005355D03*
X012331Y005380D03*
X012331Y005405D03*
X012331Y005430D03*
X012331Y005455D03*
X012331Y005480D03*
X012331Y005730D03*
X012331Y005755D03*
X012331Y005780D03*
X012331Y005805D03*
X012331Y005830D03*
X012331Y005855D03*
X012331Y005880D03*
X010406Y005280D03*
X010406Y005255D03*
X010356Y005405D03*
X010356Y005430D03*
X010306Y005555D03*
X010306Y005580D03*
X010306Y005605D03*
X010256Y005755D03*
X007906Y005855D03*
X007906Y005880D03*
X007231Y005805D03*
X007231Y005780D03*
X007231Y005755D03*
X006706Y005330D03*
X006706Y005305D03*
X006706Y005280D03*
X006656Y005480D03*
X006656Y005505D03*
X006606Y005680D03*
X005556Y005630D03*
X005456Y005130D03*
X005456Y005105D03*
X005456Y005080D03*
X004081Y002955D03*
X004081Y002930D03*
X002231Y002930D03*
X002231Y002905D03*
X002231Y002880D03*
X002231Y002855D03*
X002231Y002830D03*
X002231Y002805D03*
X002231Y002780D03*
X002231Y002755D03*
X002231Y002730D03*
X002231Y002705D03*
X002231Y002680D03*
X002231Y002655D03*
X002231Y002630D03*
X002231Y002605D03*
X002231Y002580D03*
X002231Y002955D03*
X002231Y002980D03*
X002231Y003005D03*
X002231Y003030D03*
X002231Y003055D03*
X002231Y003080D03*
X002231Y003105D03*
X002231Y003130D03*
X002231Y003155D03*
X002231Y003180D03*
X002231Y003205D03*
X002231Y003230D03*
X002231Y003255D03*
X002231Y003280D03*
X002231Y003305D03*
X002231Y003330D03*
X002231Y003355D03*
X002231Y003380D03*
X002231Y003405D03*
X002231Y003430D03*
X002231Y003455D03*
X002231Y003480D03*
X002231Y003505D03*
X002231Y003530D03*
X002231Y003555D03*
X002231Y003580D03*
X002231Y003605D03*
X002231Y003630D03*
X002231Y003655D03*
X002231Y003680D03*
X006181Y001380D03*
X007181Y002805D03*
X007231Y003380D03*
X007231Y003405D03*
D20*
X008131Y003680D03*
X006881Y004755D03*
X006506Y001605D03*
X008056Y001580D03*
X010006Y002930D03*
X010006Y002955D03*
X010581Y004755D03*
X011256Y004755D03*
X011256Y004780D03*
X011256Y004805D03*
X011256Y004830D03*
X011256Y004855D03*
X011256Y004880D03*
X011256Y004905D03*
X011256Y004930D03*
X011256Y004955D03*
X011256Y004980D03*
X011256Y005005D03*
X011256Y005030D03*
X011256Y005055D03*
X011256Y005080D03*
X011256Y005105D03*
X011256Y005130D03*
X011256Y005155D03*
X011256Y005180D03*
X011256Y005205D03*
X011256Y005230D03*
X011256Y005255D03*
X011256Y005280D03*
X011256Y005305D03*
X011256Y005330D03*
X011256Y005355D03*
X011256Y005380D03*
X011256Y005405D03*
X011256Y005430D03*
X011256Y005455D03*
X011256Y005480D03*
X011256Y005505D03*
X011256Y005530D03*
X011256Y005555D03*
X011256Y005580D03*
X011256Y005605D03*
X011256Y005630D03*
X011256Y005655D03*
X011256Y005680D03*
X011256Y005705D03*
X011256Y005730D03*
X011256Y005755D03*
X011256Y005780D03*
X011256Y005805D03*
X013306Y002805D03*
X002906Y002605D03*
X002906Y002580D03*
D21*
X003593Y002580D03*
X003593Y002605D03*
X003593Y002630D03*
X003593Y002655D03*
X003593Y002680D03*
X003593Y002705D03*
X003593Y002730D03*
X003593Y002755D03*
X003593Y002780D03*
X003593Y002805D03*
X003593Y002830D03*
X003593Y002855D03*
X003593Y002880D03*
X003593Y002905D03*
X003593Y002930D03*
X003593Y002955D03*
X003593Y002980D03*
X003593Y003005D03*
X003593Y003030D03*
X003593Y003055D03*
X003593Y003080D03*
X003593Y003105D03*
X003593Y003130D03*
X003593Y003155D03*
X003593Y003180D03*
X003593Y003205D03*
X003593Y003230D03*
X003593Y003255D03*
X003593Y003280D03*
X003593Y003305D03*
X003593Y003330D03*
X003593Y003355D03*
X003593Y003380D03*
X003593Y003405D03*
X003593Y003430D03*
X003593Y003455D03*
X003593Y003480D03*
X003593Y003505D03*
X003593Y003530D03*
X003593Y003555D03*
X003593Y003580D03*
X003593Y003605D03*
X003593Y003630D03*
X003593Y003655D03*
X003968Y005055D03*
X003968Y005080D03*
X003968Y005105D03*
X003968Y005130D03*
X003968Y005155D03*
X003968Y005180D03*
X003968Y005205D03*
X003968Y005230D03*
X003968Y005255D03*
X003968Y005280D03*
X003968Y005305D03*
X003968Y005330D03*
X003968Y005355D03*
X003968Y005380D03*
X003968Y005405D03*
X003968Y005430D03*
X003968Y005455D03*
X003968Y005480D03*
X003968Y005505D03*
X003968Y005530D03*
X003968Y005555D03*
X003968Y005580D03*
X003968Y005605D03*
X003968Y005905D03*
X003968Y005930D03*
X003968Y005955D03*
X003968Y005980D03*
X003968Y006005D03*
X003968Y006030D03*
X003968Y006055D03*
X003968Y006080D03*
X003968Y006105D03*
X003968Y006130D03*
X003968Y006155D03*
X003968Y006180D03*
X003968Y006205D03*
X003968Y006230D03*
X003968Y006255D03*
X003968Y006280D03*
X003419Y005630D03*
X003419Y005605D03*
X003419Y005580D03*
X003419Y005555D03*
X003419Y005530D03*
X003419Y005505D03*
X003419Y005480D03*
X003419Y005455D03*
X003419Y005430D03*
X002819Y006355D03*
X002269Y005780D03*
X002269Y005755D03*
X002269Y005305D03*
X002269Y005280D03*
X005919Y002980D03*
X005944Y002930D03*
X006493Y002905D03*
X006493Y003405D03*
X007194Y003480D03*
X008119Y003655D03*
X009069Y003655D03*
X009069Y003630D03*
X009069Y003605D03*
X009069Y003580D03*
X009069Y003555D03*
X009069Y003530D03*
X009069Y003680D03*
X009069Y003705D03*
X009069Y003730D03*
X009069Y003755D03*
X009069Y003780D03*
X009069Y003805D03*
X009069Y003830D03*
X009069Y003855D03*
X009069Y003880D03*
X009069Y003905D03*
X009069Y003205D03*
X009069Y003180D03*
X009069Y003155D03*
X009069Y003130D03*
X009069Y003105D03*
X009069Y003080D03*
X009069Y003055D03*
X009069Y003030D03*
X009069Y003005D03*
X009069Y002980D03*
X009069Y002955D03*
X009069Y002930D03*
X009069Y002905D03*
X009069Y002880D03*
X009069Y002855D03*
X009069Y002830D03*
X009069Y002805D03*
X009069Y002780D03*
X009069Y002755D03*
X009069Y002730D03*
X009069Y002705D03*
X009069Y002680D03*
X009069Y002655D03*
X009069Y002630D03*
X009069Y002605D03*
X009069Y002580D03*
X010044Y003030D03*
X011294Y003030D03*
X011294Y003005D03*
X011294Y002980D03*
X011294Y002955D03*
X011294Y002930D03*
X011294Y002905D03*
X011294Y002880D03*
X011294Y002855D03*
X011294Y002830D03*
X011294Y002805D03*
X011294Y002780D03*
X011294Y002755D03*
X011294Y002730D03*
X011294Y002705D03*
X011294Y002680D03*
X011294Y002655D03*
X011294Y002630D03*
X011294Y002605D03*
X011294Y002580D03*
X011294Y003055D03*
X011294Y003080D03*
X011294Y003105D03*
X011294Y003130D03*
X011294Y003155D03*
X011294Y003180D03*
X011294Y003205D03*
X011294Y003230D03*
X011294Y003255D03*
X011294Y003280D03*
X011294Y003305D03*
X011294Y003330D03*
X011294Y003355D03*
X011294Y003380D03*
X011294Y003405D03*
X011294Y003430D03*
X011294Y003455D03*
X011294Y003480D03*
X011294Y003505D03*
X011294Y003530D03*
X011294Y003555D03*
X011294Y003580D03*
X011294Y003605D03*
X011294Y003630D03*
X011294Y003655D03*
X011294Y003680D03*
X011294Y003705D03*
X011294Y003730D03*
X011294Y003755D03*
X011294Y003930D03*
X011294Y003955D03*
X011294Y003980D03*
X011294Y004005D03*
X011294Y004030D03*
X011294Y004055D03*
X011294Y004080D03*
X011294Y004105D03*
X011294Y004130D03*
X011294Y004155D03*
X011294Y004180D03*
X011294Y004205D03*
X011793Y004755D03*
X011793Y004780D03*
X011793Y004805D03*
X011793Y004830D03*
X011793Y004855D03*
X011793Y004880D03*
X011793Y004905D03*
X011793Y004930D03*
X011793Y004955D03*
X011793Y004980D03*
X011793Y005005D03*
X011793Y005030D03*
X011793Y005055D03*
X011793Y005080D03*
X011793Y005105D03*
X011793Y005130D03*
X011793Y005155D03*
X011793Y005180D03*
X011793Y005205D03*
X011793Y005230D03*
X011793Y005255D03*
X011793Y005280D03*
X011793Y005305D03*
X011793Y005330D03*
X011793Y005355D03*
X011793Y005380D03*
X011793Y005405D03*
X011793Y005430D03*
X011793Y005455D03*
X011793Y005480D03*
X011793Y005505D03*
X011793Y005530D03*
X011793Y005555D03*
X011793Y005580D03*
X011793Y005605D03*
X011793Y005630D03*
X011793Y005655D03*
X011793Y005680D03*
X011793Y005705D03*
X011793Y005730D03*
X011793Y005755D03*
X011793Y005780D03*
X011793Y005805D03*
X011793Y005830D03*
X011793Y005855D03*
X011793Y005880D03*
X011793Y006055D03*
X011793Y006080D03*
X011793Y006105D03*
X011793Y006130D03*
X011793Y006155D03*
X011793Y006180D03*
X011793Y006205D03*
X011793Y006230D03*
X011793Y006255D03*
X011793Y006280D03*
X011793Y006305D03*
X011793Y006330D03*
X012919Y005880D03*
X012619Y003405D03*
X012619Y002905D03*
X008169Y005155D03*
X007244Y005730D03*
X006619Y005655D03*
X006619Y005630D03*
X006669Y005455D03*
X006569Y005805D03*
X006569Y005830D03*
X006569Y005855D03*
X006169Y005605D03*
X006169Y005580D03*
X006194Y005555D03*
X006194Y005530D03*
X006194Y005505D03*
X006194Y005480D03*
X006194Y005280D03*
X006194Y005255D03*
X006194Y005230D03*
X006194Y005205D03*
X006194Y005180D03*
X006194Y005155D03*
X006194Y005130D03*
X006194Y005105D03*
X006194Y005080D03*
X006194Y005055D03*
X006194Y004855D03*
X006194Y004830D03*
X006194Y004805D03*
X006219Y004755D03*
X006869Y004780D03*
X008044Y001555D03*
X008044Y001530D03*
D22*
X007256Y003280D03*
X007256Y003305D03*
X007206Y003455D03*
X006206Y004780D03*
X006681Y005380D03*
X006681Y005405D03*
X006681Y005430D03*
X006631Y005580D03*
X006631Y005605D03*
X006581Y005780D03*
X006731Y005230D03*
X006731Y005205D03*
X007881Y005780D03*
X008256Y005630D03*
X008156Y005130D03*
X008156Y005105D03*
X008156Y005080D03*
X008905Y004780D03*
X010381Y005330D03*
X010381Y005355D03*
X010331Y005480D03*
X010331Y005505D03*
X010281Y005655D03*
X010281Y005680D03*
X010431Y005180D03*
X012281Y003680D03*
X013080Y004755D03*
X013080Y004780D03*
X013080Y004805D03*
X013080Y004830D03*
X013080Y004855D03*
X013080Y004880D03*
X013080Y004905D03*
X013080Y004930D03*
X013080Y004955D03*
X013080Y004980D03*
X013080Y005005D03*
X013080Y005030D03*
X013080Y005055D03*
X013080Y005080D03*
X013080Y005105D03*
X013080Y005130D03*
X013080Y005155D03*
X013080Y005180D03*
X013080Y005205D03*
X013080Y005230D03*
X013080Y005255D03*
X013080Y005280D03*
X013080Y005305D03*
X013080Y005330D03*
X013080Y005355D03*
X013080Y005380D03*
X013080Y005405D03*
X013080Y005430D03*
X013331Y003455D03*
X013356Y003405D03*
X013356Y003380D03*
X013380Y003305D03*
X013380Y003280D03*
X010181Y002580D03*
X004255Y002580D03*
X002756Y003030D03*
X002730Y003080D03*
X002730Y003105D03*
X002730Y003130D03*
X002705Y003155D03*
X002705Y003180D03*
X002705Y003205D03*
X002681Y003230D03*
X002681Y003255D03*
X002681Y003280D03*
X002656Y003305D03*
X002656Y003330D03*
X002656Y003355D03*
X002656Y003380D03*
X002631Y003405D03*
X002631Y003430D03*
X002631Y003455D03*
X002606Y003480D03*
X002606Y003505D03*
X002606Y003530D03*
X002580Y003580D03*
X002580Y003605D03*
X002831Y004705D03*
D23*
X002243Y005355D03*
X002243Y005380D03*
X002243Y005405D03*
X002243Y005430D03*
X002243Y005455D03*
X002243Y005480D03*
X002243Y005505D03*
X002243Y005530D03*
X002243Y005555D03*
X002243Y005580D03*
X002243Y005605D03*
X002243Y005630D03*
X002243Y005655D03*
X002243Y005680D03*
X002243Y005705D03*
X004118Y003030D03*
X004093Y003005D03*
X004093Y002980D03*
X004093Y002905D03*
X004818Y003455D03*
X004843Y003430D03*
X004843Y003405D03*
X004843Y003380D03*
X004843Y003355D03*
X004843Y003130D03*
X004843Y003105D03*
X004843Y003080D03*
X004843Y003055D03*
X004843Y003030D03*
X004843Y003005D03*
X004843Y002980D03*
X004843Y002955D03*
X004843Y002930D03*
X004843Y002730D03*
X004843Y002705D03*
X004843Y002680D03*
X004843Y002655D03*
X004868Y002605D03*
X004868Y002580D03*
X005368Y002580D03*
X005368Y002605D03*
X005368Y002630D03*
X005368Y002655D03*
X005368Y002680D03*
X005368Y002705D03*
X005368Y002730D03*
X005368Y002755D03*
X005368Y002780D03*
X005368Y002805D03*
X005368Y002830D03*
X005368Y002855D03*
X005368Y002880D03*
X005368Y003330D03*
X005368Y003355D03*
X005368Y003380D03*
X005368Y003405D03*
X005368Y003430D03*
X005368Y003455D03*
X005368Y003480D03*
X005368Y003505D03*
X005368Y003530D03*
X005368Y003555D03*
X005368Y003580D03*
X005368Y003605D03*
X005368Y003630D03*
X005368Y003655D03*
X005368Y003680D03*
X005368Y003705D03*
X005368Y003730D03*
X005368Y003755D03*
X005368Y003780D03*
X005368Y003805D03*
X005368Y003830D03*
X005368Y003855D03*
X005368Y003880D03*
X005368Y003905D03*
X005368Y003930D03*
X005368Y003955D03*
X005368Y003980D03*
X005368Y004005D03*
X005368Y004030D03*
X005368Y004055D03*
X005368Y004080D03*
X005368Y004105D03*
X005368Y004130D03*
X005368Y004155D03*
X005368Y004180D03*
X005368Y004205D03*
X005443Y005030D03*
X005443Y005055D03*
X005468Y005155D03*
X005493Y005180D03*
X004793Y005180D03*
X004793Y005155D03*
X004793Y005130D03*
X004793Y005105D03*
X004793Y005080D03*
X004793Y005055D03*
X004793Y005205D03*
X004793Y005230D03*
X004793Y005255D03*
X004793Y005280D03*
X004793Y005305D03*
X004793Y005330D03*
X004793Y005355D03*
X004793Y005380D03*
X004793Y005405D03*
X004793Y005430D03*
X004793Y005455D03*
X004793Y005480D03*
X004793Y005505D03*
X004793Y005530D03*
X004793Y005555D03*
X004793Y005580D03*
X004793Y005605D03*
X004793Y005905D03*
X004793Y005930D03*
X004793Y005955D03*
X004793Y005980D03*
X004793Y006005D03*
X004793Y006030D03*
X004793Y006055D03*
X004793Y006080D03*
X004793Y006105D03*
X004793Y006130D03*
X004793Y006155D03*
X004793Y006180D03*
X004793Y006205D03*
X004793Y006230D03*
X004793Y006255D03*
X004793Y006280D03*
X006543Y005880D03*
X006593Y005755D03*
X006593Y005730D03*
X006593Y005705D03*
X006643Y005555D03*
X006643Y005530D03*
X007693Y003755D03*
X007693Y003730D03*
X007693Y003705D03*
X007693Y003680D03*
X007693Y003655D03*
X007693Y003630D03*
X007693Y003605D03*
X007693Y003580D03*
X007693Y003305D03*
X007693Y003280D03*
X007693Y003255D03*
X007693Y003230D03*
X007693Y003205D03*
X007693Y003180D03*
X007693Y003155D03*
X007693Y003130D03*
X007693Y003105D03*
X007693Y003080D03*
X007693Y003055D03*
X007693Y003030D03*
X007693Y003005D03*
X007693Y002980D03*
X007693Y002955D03*
X007693Y002930D03*
X007693Y002905D03*
X007693Y002880D03*
X007693Y002855D03*
X007693Y002830D03*
X007693Y002805D03*
X007693Y002780D03*
X007693Y002755D03*
X007693Y002730D03*
X007693Y002705D03*
X007693Y002680D03*
X007693Y002655D03*
X007693Y002630D03*
X007693Y002605D03*
X007693Y002580D03*
X006068Y002705D03*
X006043Y002755D03*
X008893Y004805D03*
X008893Y004830D03*
X008893Y004855D03*
X008893Y005055D03*
X008893Y005080D03*
X008893Y005105D03*
X008893Y005130D03*
X008893Y005155D03*
X008893Y005180D03*
X008893Y005205D03*
X008893Y005230D03*
X008893Y005255D03*
X008893Y005280D03*
X008893Y005480D03*
X008893Y005505D03*
X008893Y005530D03*
X008893Y005555D03*
X010768Y003430D03*
X010768Y003405D03*
X010768Y003380D03*
X010768Y003355D03*
X010768Y003130D03*
X010768Y003105D03*
X010768Y003080D03*
X010768Y003055D03*
X010768Y003030D03*
X010768Y003005D03*
X010768Y002980D03*
X010768Y002955D03*
X010768Y002930D03*
X010768Y002730D03*
X010768Y002705D03*
X010768Y002680D03*
X010768Y002655D03*
X012343Y005505D03*
X013068Y005505D03*
X013068Y005480D03*
X013068Y005455D03*
X013068Y005530D03*
X013068Y005555D03*
X013593Y005555D03*
X013593Y005530D03*
X013593Y005505D03*
X013593Y005480D03*
X013593Y005455D03*
X013593Y005430D03*
X013593Y005405D03*
X013593Y005380D03*
X013593Y005355D03*
X013593Y005330D03*
X013593Y005305D03*
X013593Y005280D03*
X013593Y005255D03*
X013593Y005230D03*
X013593Y005205D03*
X013593Y005180D03*
X013593Y005155D03*
X013593Y005130D03*
X013593Y005105D03*
X013593Y005080D03*
X013593Y005055D03*
X013593Y005030D03*
X013593Y005005D03*
X013593Y004980D03*
X013593Y004955D03*
X013593Y004930D03*
X013593Y004905D03*
X013593Y004880D03*
X013593Y004855D03*
X013593Y004830D03*
X013593Y004805D03*
X013593Y004780D03*
X013593Y004755D03*
X013593Y005580D03*
X013593Y005605D03*
X013593Y005630D03*
X013593Y005655D03*
X013593Y005680D03*
X013593Y005705D03*
X013593Y005730D03*
X013593Y005755D03*
X013593Y005780D03*
X013593Y005805D03*
X013593Y005830D03*
X013593Y005855D03*
X013593Y005880D03*
X013593Y006055D03*
X013593Y006080D03*
X013593Y006105D03*
X013593Y006130D03*
X013593Y006155D03*
X013593Y006180D03*
X013593Y006205D03*
X013593Y006230D03*
X013593Y006255D03*
X013593Y006280D03*
X013593Y006305D03*
X013593Y006330D03*
D24*
X013056Y005580D03*
X012631Y003455D03*
X012631Y003430D03*
X012631Y002880D03*
X009081Y003230D03*
X008056Y001505D03*
X006531Y003480D03*
X006106Y003755D03*
X006031Y003655D03*
X006006Y003630D03*
X005981Y003605D03*
X005956Y003580D03*
X005956Y002905D03*
X005981Y002880D03*
X005981Y002855D03*
X006006Y002830D03*
X006006Y002805D03*
X006031Y002780D03*
X006056Y002730D03*
X006081Y002680D03*
X006106Y002655D03*
X006106Y002630D03*
X006131Y002605D03*
X006131Y002580D03*
X005381Y002905D03*
X005381Y002930D03*
X004831Y002905D03*
X004856Y002630D03*
X004806Y003480D03*
X004206Y003505D03*
X004131Y003055D03*
X004081Y002880D03*
X004806Y005005D03*
X004806Y005030D03*
X004806Y005630D03*
X005506Y005205D03*
X005456Y005005D03*
D25*
X004168Y004755D03*
X003518Y004205D03*
X003518Y004180D03*
X003518Y004155D03*
X002318Y004155D03*
X002318Y004130D03*
X002318Y004180D03*
X006893Y002580D03*
X007768Y003430D03*
X008343Y004780D03*
X008818Y004980D03*
X007568Y005005D03*
X007568Y005030D03*
X007568Y005055D03*
X007568Y005080D03*
X007243Y005430D03*
X008843Y001330D03*
X008843Y001305D03*
X008843Y001280D03*
X008843Y001255D03*
X008843Y001230D03*
X008843Y001205D03*
X012993Y003730D03*
D26*
X013318Y003480D03*
X012593Y003355D03*
X012593Y003330D03*
X012568Y003055D03*
X012568Y003030D03*
X012593Y003005D03*
X012593Y002980D03*
X012593Y002955D03*
X012268Y003655D03*
X011843Y003655D03*
X011843Y003630D03*
X011843Y003605D03*
X011843Y003580D03*
X011843Y003680D03*
X011843Y003705D03*
X011843Y003730D03*
X011843Y003755D03*
X011843Y003305D03*
X011843Y003280D03*
X011843Y003255D03*
X011843Y003230D03*
X011843Y003205D03*
X011843Y003180D03*
X011843Y003155D03*
X011843Y003130D03*
X011843Y003105D03*
X011843Y003080D03*
X011843Y003055D03*
X011843Y003030D03*
X011843Y003005D03*
X011843Y002980D03*
X011843Y002955D03*
X011843Y002930D03*
X011843Y002905D03*
X011843Y002880D03*
X011843Y002855D03*
X011843Y002830D03*
X011843Y002805D03*
X011843Y002780D03*
X011843Y002755D03*
X011843Y002730D03*
X011843Y002705D03*
X011843Y002680D03*
X011843Y002655D03*
X011843Y002630D03*
X011843Y002605D03*
X011843Y002580D03*
X010793Y002580D03*
X010793Y002605D03*
X010743Y003455D03*
X010018Y003005D03*
X010018Y002980D03*
X010018Y002905D03*
X008918Y004755D03*
X008868Y005580D03*
X008868Y005605D03*
X008193Y005180D03*
X008143Y005055D03*
X008143Y005030D03*
X007568Y004780D03*
X007568Y004755D03*
X006468Y003355D03*
X006468Y003330D03*
X006443Y003055D03*
X006443Y003030D03*
X006468Y003005D03*
X006468Y002980D03*
X006468Y002955D03*
X005893Y003030D03*
X005743Y003330D03*
X006343Y000830D03*
X003368Y005230D03*
X003393Y005305D03*
X003393Y005330D03*
X003393Y005355D03*
X003393Y005380D03*
X003393Y005680D03*
X003393Y005705D03*
X003393Y005730D03*
X003393Y005755D03*
X003368Y005830D03*
X002293Y005855D03*
X002293Y005205D03*
D27*
X004269Y002630D03*
X004994Y004755D03*
X005644Y004780D03*
X006119Y004980D03*
X006869Y005030D03*
X006869Y005055D03*
X006869Y005080D03*
X006869Y003730D03*
X006319Y001305D03*
X006369Y001280D03*
X010019Y006205D03*
X010019Y006230D03*
X010019Y006255D03*
X011169Y006255D03*
X011169Y006230D03*
X011169Y006280D03*
X011169Y006305D03*
X012419Y005605D03*
X013019Y002580D03*
D28*
X010469Y003755D03*
X007244Y005530D03*
X006869Y004980D03*
X006869Y004955D03*
X005594Y005255D03*
X004269Y002605D03*
X002444Y005005D03*
X006344Y000855D03*
D29*
X006344Y000930D03*
X006894Y002605D03*
X008044Y001130D03*
X008044Y001105D03*
X003443Y003680D03*
X003443Y003705D03*
D30*
X004218Y003105D03*
X004793Y003330D03*
X004793Y002855D03*
X005418Y003005D03*
X003243Y005030D03*
X003243Y006030D03*
X007743Y003405D03*
X010143Y003105D03*
X010193Y002605D03*
X010718Y002855D03*
X010718Y003330D03*
X012393Y005580D03*
D31*
X013018Y002605D03*
X008743Y005430D03*
X002818Y006305D03*
X002393Y003705D03*
D32*
X002906Y002680D03*
X002906Y002655D03*
X002906Y002630D03*
X003356Y005180D03*
X003356Y005205D03*
X003381Y005255D03*
X003381Y005280D03*
X003406Y005405D03*
X003381Y005780D03*
X003381Y005805D03*
X003356Y005855D03*
X003356Y005880D03*
X003981Y005630D03*
X003981Y005030D03*
X003981Y005005D03*
X002306Y005155D03*
X002306Y005180D03*
X002306Y005880D03*
X002306Y005905D03*
X005756Y003355D03*
X005781Y003380D03*
X005806Y003405D03*
X005831Y003430D03*
X005856Y003455D03*
X005881Y003480D03*
X005906Y003505D03*
X005906Y003530D03*
X005906Y003005D03*
X006506Y002880D03*
X006456Y003280D03*
X006456Y003305D03*
X006506Y003430D03*
X006506Y003455D03*
X008106Y003630D03*
X008156Y005005D03*
X011856Y003330D03*
X012581Y003305D03*
X012581Y003280D03*
X012606Y003380D03*
X012606Y002930D03*
X013006Y003755D03*
D33*
X013019Y002630D03*
X006894Y002630D03*
X005569Y003255D03*
X005569Y003280D03*
D34*
X002443Y006055D03*
X010193Y002630D03*
X011918Y003430D03*
D35*
X012256Y003630D03*
X012656Y003480D03*
X013281Y003505D03*
X012356Y005530D03*
X010581Y004830D03*
X010581Y004805D03*
X010581Y004780D03*
X010731Y003480D03*
X010755Y002905D03*
X010781Y002630D03*
X010130Y003505D03*
X010056Y003055D03*
X010006Y002880D03*
X008205Y005205D03*
X007556Y004805D03*
X006881Y004805D03*
X006881Y004830D03*
X007231Y005655D03*
X007231Y005680D03*
X007231Y005705D03*
X006156Y005630D03*
X006881Y003755D03*
X007155Y003505D03*
X007706Y003330D03*
X006480Y003380D03*
X006480Y002930D03*
X005931Y002955D03*
X005931Y003555D03*
X006505Y001205D03*
X003305Y005105D03*
X003330Y005155D03*
X003330Y005905D03*
X003305Y005955D03*
X002331Y005930D03*
X002281Y005830D03*
X002281Y005805D03*
X002256Y005730D03*
X002256Y005330D03*
X002281Y005255D03*
X002281Y005230D03*
X002331Y005130D03*
X008856Y005630D03*
D36*
X008331Y004805D03*
X010056Y005955D03*
X010056Y005980D03*
X010056Y006005D03*
X010581Y005130D03*
X010581Y005105D03*
X010581Y005080D03*
X011131Y005980D03*
X011131Y006005D03*
X011131Y006030D03*
X010206Y002655D03*
X006331Y001655D03*
X004281Y002655D03*
X003480Y003905D03*
X003480Y003930D03*
X003480Y003955D03*
X002356Y003930D03*
X002356Y003905D03*
X002356Y003880D03*
X002506Y006080D03*
X004956Y004830D03*
X005631Y004805D03*
D37*
X006893Y002655D03*
X010543Y003255D03*
D38*
X013018Y002655D03*
D39*
X012881Y005780D03*
X011106Y005830D03*
X011106Y005855D03*
X010081Y005855D03*
X010081Y005830D03*
X008356Y004830D03*
X010205Y002680D03*
X008906Y001730D03*
X008906Y001705D03*
X008906Y001680D03*
X008906Y001655D03*
X008906Y001630D03*
X008906Y001605D03*
X006331Y001630D03*
X004281Y002680D03*
X003455Y003730D03*
X003455Y003755D03*
X003455Y003780D03*
X004105Y004955D03*
X004931Y004955D03*
X005656Y004830D03*
X002381Y003780D03*
X002381Y003755D03*
X002381Y003730D03*
D40*
X006856Y003605D03*
X006856Y003580D03*
X006906Y002680D03*
X008631Y005355D03*
D41*
X009331Y003505D03*
X009331Y003480D03*
X009331Y003455D03*
X009331Y003430D03*
X009331Y003405D03*
X009331Y003380D03*
X009331Y003355D03*
X009331Y003330D03*
X009331Y003305D03*
X009331Y003280D03*
X009331Y003255D03*
X005931Y005355D03*
X005631Y003055D03*
X012981Y003580D03*
X012981Y003605D03*
X013031Y002680D03*
D42*
X012906Y005855D03*
X007231Y005605D03*
X007231Y005580D03*
X007231Y005555D03*
X006556Y003505D03*
X005406Y002980D03*
X004781Y003505D03*
X002906Y002755D03*
X002906Y002730D03*
X002906Y002705D03*
D43*
X004281Y002705D03*
X005656Y004855D03*
X008355Y004855D03*
X010206Y002705D03*
X008056Y001080D03*
X006331Y000955D03*
D44*
X006894Y002705D03*
X005894Y005305D03*
X004543Y003180D03*
X008593Y005305D03*
X010394Y003605D03*
X010468Y003180D03*
X013019Y002705D03*
D45*
X012868Y005730D03*
X010444Y003705D03*
X008044Y001055D03*
X008044Y001030D03*
X006869Y003680D03*
X005868Y005830D03*
X004294Y002730D03*
D46*
X004531Y003155D03*
X005831Y005680D03*
X005831Y005705D03*
X006856Y003530D03*
X006906Y002730D03*
X008531Y005680D03*
X008531Y005705D03*
X010456Y003155D03*
D47*
X010218Y002730D03*
X012993Y003680D03*
X004518Y003705D03*
D48*
X005856Y005655D03*
X006881Y002755D03*
X002831Y004855D03*
X002831Y006205D03*
X013031Y002730D03*
D49*
X009443Y003930D03*
X009443Y003955D03*
X009443Y003980D03*
X009443Y004005D03*
X009443Y004030D03*
X009443Y004055D03*
X009443Y004080D03*
X009443Y004105D03*
X009443Y004130D03*
X009443Y004155D03*
X009443Y004180D03*
X009443Y004205D03*
X004468Y002805D03*
X004468Y002780D03*
X004468Y002755D03*
D50*
X010393Y002755D03*
X010393Y002780D03*
X010393Y002805D03*
D51*
X008556Y005655D03*
X012981Y003530D03*
X013006Y002755D03*
D52*
X012706Y002805D03*
X006581Y002805D03*
X005431Y003030D03*
X003206Y005005D03*
X003206Y006055D03*
X002306Y004205D03*
X002906Y002830D03*
X002906Y002805D03*
X002906Y002780D03*
D53*
X006869Y002780D03*
X010419Y003530D03*
D54*
X010393Y003555D03*
X010393Y003580D03*
X012993Y002780D03*
D55*
X013043Y005605D03*
X010743Y002880D03*
X008868Y005030D03*
X008243Y005230D03*
X007568Y004880D03*
X007568Y004855D03*
X007568Y004830D03*
X007243Y005630D03*
X006093Y003730D03*
X006068Y003705D03*
X006043Y003680D03*
X005393Y002955D03*
X004818Y002880D03*
X004168Y003080D03*
X004093Y002855D03*
X004118Y002830D03*
X004818Y004980D03*
X005468Y004980D03*
X003293Y005080D03*
X003268Y005055D03*
X003293Y005980D03*
X003268Y006005D03*
X002368Y005980D03*
X002343Y005955D03*
X002343Y005105D03*
X002368Y005080D03*
X007718Y003355D03*
D56*
X004756Y002830D03*
X003506Y004080D03*
X003506Y004105D03*
X003506Y004130D03*
X004156Y004780D03*
X002906Y002905D03*
X002906Y002880D03*
X002906Y002855D03*
X002481Y004980D03*
D57*
X003318Y005130D03*
X003318Y005930D03*
X005544Y005230D03*
X006169Y005030D03*
X006518Y002855D03*
X006544Y002830D03*
X006319Y001730D03*
X008043Y001480D03*
X008094Y003580D03*
X008094Y003605D03*
X010019Y002855D03*
X012244Y003580D03*
X012244Y003605D03*
X012644Y002855D03*
X012669Y002830D03*
X012369Y005555D03*
D58*
X013330Y002830D03*
X008305Y001005D03*
X008331Y000930D03*
X008355Y000855D03*
X007181Y001580D03*
X006606Y001130D03*
X006606Y001105D03*
X007206Y002830D03*
X007030Y005130D03*
X007030Y005155D03*
X007030Y005180D03*
X007056Y005205D03*
X007056Y005230D03*
X007056Y005255D03*
X007056Y005280D03*
X007080Y005330D03*
X007080Y005355D03*
X007080Y005380D03*
X005906Y005905D03*
D59*
X006868Y004880D03*
X006868Y004855D03*
X008168Y004980D03*
X010093Y003080D03*
X010043Y002830D03*
X011868Y003355D03*
X003993Y004980D03*
D60*
X003155Y004980D03*
X002331Y004105D03*
X002331Y004080D03*
X002331Y004055D03*
X004981Y004780D03*
X006106Y005455D03*
X008805Y005455D03*
X010031Y006130D03*
X010031Y006155D03*
X010031Y006180D03*
X011156Y006180D03*
X011156Y006155D03*
X011156Y006205D03*
X012906Y005830D03*
X010680Y002830D03*
D61*
X012906Y005905D03*
X008206Y005580D03*
X008206Y003755D03*
X007231Y002855D03*
X007931Y001455D03*
X007931Y001430D03*
X007881Y001330D03*
X007881Y001305D03*
D62*
X007856Y001255D03*
X007856Y001230D03*
X007906Y001380D03*
X007756Y000955D03*
X006081Y001505D03*
X005506Y005580D03*
X013356Y002855D03*
D63*
X007256Y002905D03*
D64*
X004131Y003405D03*
X013381Y002905D03*
D65*
X004131Y004830D03*
X002906Y002980D03*
X002906Y002955D03*
X002906Y002930D03*
D66*
X002906Y003005D03*
X002831Y004755D03*
D67*
X002593Y003555D03*
X002743Y003055D03*
X006143Y001605D03*
X006543Y001180D03*
X007243Y003330D03*
X007243Y003355D03*
X006718Y005255D03*
X007243Y005830D03*
X007768Y005380D03*
X007768Y005355D03*
X007818Y005530D03*
X007818Y005555D03*
X007818Y005580D03*
X007868Y005705D03*
X007868Y005730D03*
X007868Y005755D03*
X010268Y005730D03*
X010268Y005705D03*
X010318Y005530D03*
X010368Y005380D03*
X010418Y005230D03*
X010418Y005205D03*
X010793Y005305D03*
X010793Y005330D03*
X010843Y005480D03*
X010843Y005505D03*
X010893Y005655D03*
X010893Y005680D03*
D68*
X010919Y005755D03*
X010919Y005780D03*
X010294Y005630D03*
X010244Y005780D03*
X010244Y005805D03*
X010344Y005455D03*
X010394Y005305D03*
X009919Y005305D03*
X009919Y005280D03*
X009919Y005255D03*
X009919Y005230D03*
X009919Y005205D03*
X009919Y005180D03*
X009919Y005155D03*
X009919Y005130D03*
X009919Y005105D03*
X009919Y005080D03*
X009919Y005055D03*
X009919Y005030D03*
X009919Y005005D03*
X009919Y004980D03*
X009919Y004955D03*
X009919Y004930D03*
X009919Y004905D03*
X009919Y004880D03*
X009919Y004855D03*
X009919Y004830D03*
X009919Y004805D03*
X009919Y004780D03*
X009919Y004755D03*
X009919Y005330D03*
X009919Y005355D03*
X009919Y005380D03*
X009919Y005405D03*
X009919Y005430D03*
X009919Y005455D03*
X009919Y005480D03*
X009919Y005505D03*
X009919Y005530D03*
X009919Y005555D03*
X009919Y005580D03*
X009919Y005605D03*
X009919Y005630D03*
X009919Y005655D03*
X009919Y005680D03*
X009919Y005705D03*
X009919Y005730D03*
X009919Y005755D03*
X009919Y005780D03*
X009919Y005805D03*
X007894Y005805D03*
X007894Y005830D03*
X007844Y005680D03*
X007844Y005655D03*
X007844Y005630D03*
X007844Y005605D03*
X007794Y005480D03*
X007794Y005455D03*
X007794Y005430D03*
X007744Y005280D03*
X007744Y005255D03*
X006744Y005180D03*
X006744Y005155D03*
X006744Y005130D03*
X006694Y005355D03*
X007219Y003430D03*
X008043Y001630D03*
X008043Y001605D03*
X003144Y003230D03*
X003144Y003255D03*
X003169Y003305D03*
X003169Y003330D03*
X003169Y003355D03*
X003194Y003380D03*
X003194Y003405D03*
X003194Y003430D03*
X003219Y003480D03*
X003219Y003505D03*
X003219Y003530D03*
X003244Y003580D03*
X003244Y003605D03*
X003119Y003180D03*
X003119Y003155D03*
X003094Y003080D03*
X002568Y003630D03*
X002568Y003655D03*
X002568Y003680D03*
X013344Y003430D03*
D69*
X005619Y003105D03*
X005619Y003080D03*
X004493Y003655D03*
D70*
X006843Y003255D03*
X006843Y003230D03*
X006843Y003205D03*
X006843Y003180D03*
X006843Y003155D03*
X006843Y003130D03*
X006843Y003105D03*
X006843Y003080D03*
D71*
X012968Y003080D03*
X012968Y003105D03*
X012968Y003130D03*
X012968Y003155D03*
X012968Y003180D03*
X012968Y003205D03*
X012968Y003230D03*
X012968Y003255D03*
D72*
X011943Y003455D03*
X011144Y006055D03*
X011144Y006080D03*
X011144Y006105D03*
X011144Y006130D03*
X006319Y001680D03*
X006344Y000880D03*
X004269Y003130D03*
X003493Y003980D03*
X003493Y004005D03*
X003493Y004030D03*
X003493Y004055D03*
X002344Y004030D03*
X002344Y004005D03*
X002344Y003980D03*
X002344Y003955D03*
X003143Y006080D03*
X004969Y004805D03*
X005669Y005280D03*
D73*
X005606Y003130D03*
D74*
X006868Y005105D03*
X007793Y003455D03*
X008368Y005280D03*
X010043Y006030D03*
X010043Y006055D03*
X010043Y006080D03*
X010043Y006105D03*
X010193Y003130D03*
X004143Y004805D03*
D75*
X004618Y003255D03*
X005594Y003180D03*
X005594Y003155D03*
X006869Y003630D03*
X012994Y003630D03*
D76*
X010493Y003205D03*
X008544Y005755D03*
X004568Y003205D03*
X002819Y004830D03*
X002819Y006230D03*
D77*
X004505Y003680D03*
X005581Y003230D03*
X005581Y003205D03*
X007180Y001730D03*
X007180Y001705D03*
X007180Y001680D03*
X007180Y001655D03*
X007180Y001630D03*
X007180Y001605D03*
X007906Y003480D03*
X007906Y003505D03*
X007906Y003530D03*
X007906Y003555D03*
D78*
X005843Y005780D03*
X004593Y003230D03*
X010518Y003230D03*
D79*
X005556Y003305D03*
X004655Y003280D03*
D80*
X010581Y003280D03*
D81*
X010444Y003730D03*
X010594Y005155D03*
X011119Y005880D03*
X011119Y005905D03*
X011119Y005930D03*
X011119Y005955D03*
X012994Y003705D03*
X008569Y005855D03*
X006869Y003705D03*
X005868Y005855D03*
X004944Y004930D03*
X004944Y004905D03*
X004944Y004880D03*
X004944Y004855D03*
X004118Y004855D03*
X004118Y004880D03*
X004118Y004905D03*
X004118Y004930D03*
X003468Y003880D03*
X003468Y003855D03*
X003468Y003830D03*
X003468Y003805D03*
X002369Y003805D03*
X002369Y003830D03*
X002369Y003855D03*
X004718Y003305D03*
X006344Y000905D03*
X008044Y001155D03*
D82*
X010643Y003305D03*
X010068Y005880D03*
X010068Y005905D03*
X010068Y005930D03*
D83*
X010868Y005605D03*
X010868Y005580D03*
X010868Y005555D03*
X010818Y005405D03*
X010768Y005230D03*
X013368Y003355D03*
X013368Y003330D03*
D84*
X013555Y003705D03*
X013555Y003730D03*
X013555Y003755D03*
X013555Y003780D03*
X013706Y003680D03*
X013755Y003830D03*
X012405Y003780D03*
X008256Y003780D03*
X006556Y001480D03*
X006081Y001105D03*
X004105Y003380D03*
D85*
X005631Y004755D03*
X006156Y005005D03*
X007555Y004905D03*
X008330Y004755D03*
X008855Y005005D03*
X007731Y003380D03*
X006231Y001355D03*
X002381Y005055D03*
X002381Y006005D03*
X010706Y003505D03*
X011880Y003380D03*
X012681Y003505D03*
D86*
X013631Y003680D03*
X013631Y003705D03*
X013631Y003780D03*
X010031Y003380D03*
D87*
X010056Y003405D03*
X008306Y004705D03*
X006556Y001505D03*
X005605Y004705D03*
D88*
X004543Y003755D03*
X002418Y006030D03*
X007568Y004980D03*
X007568Y004955D03*
X007568Y004930D03*
X008293Y005255D03*
X011893Y003405D03*
D89*
X010481Y003780D03*
X010056Y003430D03*
X006331Y000805D03*
X004131Y003430D03*
D90*
X004143Y003455D03*
X006093Y001555D03*
X006093Y001530D03*
X006093Y001480D03*
X006093Y001455D03*
X006593Y001030D03*
X006593Y001005D03*
X007168Y001005D03*
X007168Y000980D03*
X007168Y000955D03*
X007168Y000930D03*
X007168Y000905D03*
X007168Y000880D03*
X007168Y000855D03*
X007168Y000830D03*
X007168Y001030D03*
X007168Y001055D03*
X007168Y001080D03*
X007168Y001105D03*
X007168Y001130D03*
X007168Y001155D03*
X007168Y001180D03*
X007168Y001205D03*
X007168Y001230D03*
X007168Y001255D03*
X007168Y001280D03*
X007168Y001305D03*
X007168Y001330D03*
X007168Y001355D03*
X007168Y001380D03*
X007168Y001405D03*
X007168Y001430D03*
X007168Y001455D03*
X007168Y001480D03*
X007168Y001505D03*
X007168Y001530D03*
X007168Y001555D03*
X007743Y000930D03*
X007743Y000905D03*
X007843Y001180D03*
X007843Y001205D03*
X008318Y000980D03*
X008318Y000955D03*
X008368Y000830D03*
D91*
X008694Y000830D03*
X008694Y000855D03*
X008694Y000880D03*
X008694Y000905D03*
X008694Y000930D03*
X008694Y000955D03*
X008694Y000980D03*
X008694Y001005D03*
X008694Y001030D03*
X008694Y001055D03*
X008694Y001080D03*
X008694Y001105D03*
X008694Y001130D03*
X008694Y001155D03*
X008694Y001180D03*
X008694Y001355D03*
X008694Y001380D03*
X008694Y001405D03*
X008694Y001430D03*
X008694Y001455D03*
X008694Y001480D03*
X008694Y001505D03*
X008694Y001530D03*
X008694Y001555D03*
X008694Y001580D03*
X008169Y001430D03*
X008169Y001405D03*
X008169Y001380D03*
X008143Y001455D03*
X008219Y001280D03*
X008219Y001255D03*
X008219Y001230D03*
X007919Y001405D03*
X007893Y001355D03*
X007869Y001280D03*
X007769Y000980D03*
X007719Y000855D03*
X007719Y000830D03*
X008043Y001730D03*
X008043Y001755D03*
X006569Y001555D03*
X006619Y001080D03*
X006619Y001055D03*
X010069Y003455D03*
D92*
X010081Y003480D03*
X010756Y005180D03*
X010756Y005205D03*
X008156Y003705D03*
X007381Y005305D03*
X007381Y005330D03*
X003256Y003655D03*
X003256Y003630D03*
D93*
X008556Y005805D03*
X010431Y003680D03*
X012056Y003555D03*
X012056Y003530D03*
X012056Y003505D03*
X012056Y003480D03*
D94*
X004493Y003530D03*
X004468Y003555D03*
X004468Y003580D03*
D95*
X005906Y005330D03*
X006856Y003555D03*
X012980Y003555D03*
D96*
X004468Y003605D03*
D97*
X004481Y003630D03*
X005831Y005730D03*
X008606Y005330D03*
D98*
X008531Y005730D03*
X010406Y003630D03*
D99*
X008693Y005405D03*
X006868Y003655D03*
X002818Y004780D03*
X002818Y006280D03*
D100*
X008543Y005780D03*
X010418Y003655D03*
D101*
X012993Y003655D03*
X005993Y005405D03*
D102*
X013568Y003805D03*
X013593Y003830D03*
X013568Y003680D03*
X013593Y003655D03*
X013693Y003705D03*
X013768Y003680D03*
X013768Y003805D03*
D103*
X013718Y003780D03*
X013743Y003655D03*
X005493Y005530D03*
D104*
X013681Y003880D03*
X013781Y003780D03*
X013781Y003755D03*
X013781Y003730D03*
X013781Y003705D03*
D105*
X009643Y001730D03*
X009643Y001705D03*
X009643Y001680D03*
X009643Y001655D03*
X009643Y001630D03*
X009643Y001605D03*
X004518Y003730D03*
D106*
X007418Y005130D03*
X007418Y005155D03*
X007418Y005180D03*
X007394Y005255D03*
X007394Y005280D03*
X007368Y005355D03*
X007368Y005380D03*
X007368Y005405D03*
X008219Y005605D03*
X008169Y003730D03*
X008044Y001705D03*
X008044Y001680D03*
X008044Y001655D03*
D107*
X006318Y001755D03*
X007093Y005405D03*
X012318Y003730D03*
D108*
X012356Y003755D03*
X007781Y001005D03*
X007731Y000880D03*
D109*
X006556Y001530D03*
X004556Y003780D03*
D110*
X001718Y004655D03*
D111*
X014093Y004655D03*
D112*
X001718Y004730D03*
D113*
X002818Y004730D03*
D114*
X004193Y004730D03*
D115*
X005019Y004730D03*
D116*
X005631Y004730D03*
X008330Y004730D03*
X013080Y004730D03*
D117*
X011793Y004730D03*
X006219Y004730D03*
D118*
X006881Y004730D03*
X007556Y004730D03*
X010581Y004730D03*
X011256Y004730D03*
D119*
X008918Y004730D03*
D120*
X009919Y004730D03*
D121*
X012331Y004730D03*
D122*
X013593Y004730D03*
D123*
X014093Y004730D03*
D124*
X005956Y005380D03*
X002831Y004805D03*
X002831Y006255D03*
D125*
X002406Y005030D03*
X006456Y001230D03*
X006881Y004905D03*
X006881Y004930D03*
X010581Y004905D03*
X010581Y004880D03*
X010581Y004855D03*
D126*
X002831Y004880D03*
X002831Y006180D03*
D127*
X002831Y006155D03*
X002831Y004905D03*
X005831Y004905D03*
X005831Y004880D03*
X005831Y004930D03*
X005831Y004955D03*
D128*
X008531Y004955D03*
X008531Y004930D03*
X008531Y004905D03*
X008531Y004880D03*
X012706Y005630D03*
X012706Y005655D03*
X012706Y005680D03*
X012706Y005705D03*
D129*
X002831Y006130D03*
X002831Y004930D03*
D130*
X006331Y001705D03*
X006281Y001330D03*
X006881Y005005D03*
X007231Y005455D03*
X007231Y005480D03*
X007231Y005505D03*
X008581Y005880D03*
X010006Y006280D03*
X010006Y006305D03*
X010006Y006330D03*
X010581Y004980D03*
X010581Y004955D03*
X010581Y004930D03*
X009580Y001330D03*
X009580Y001305D03*
X009580Y001280D03*
X009580Y001255D03*
X009580Y001230D03*
X009580Y001205D03*
D131*
X002831Y004955D03*
X002831Y006105D03*
D132*
X002831Y006330D03*
X010581Y005055D03*
X010581Y005030D03*
X010581Y005005D03*
D133*
X007568Y005105D03*
D134*
X007068Y005305D03*
X005518Y005605D03*
X006068Y001005D03*
X006568Y000980D03*
D135*
X008656Y005380D03*
D136*
X006043Y005430D03*
D137*
X008193Y005530D03*
D138*
X004243Y005655D03*
D139*
X004431Y005680D03*
X004431Y005705D03*
X004431Y005730D03*
X004431Y005755D03*
X004431Y005780D03*
X004431Y005805D03*
X004431Y005830D03*
X004431Y005855D03*
X004431Y005880D03*
D140*
X005843Y005755D03*
D141*
X012881Y005755D03*
D142*
X005856Y005805D03*
D143*
X012906Y005805D03*
D144*
X008568Y005830D03*
D145*
X011181Y006330D03*
X006406Y001255D03*
X005881Y005880D03*
D146*
X008606Y005905D03*
D147*
X009443Y001580D03*
X009443Y001555D03*
X009443Y001530D03*
X009443Y001505D03*
X009443Y001480D03*
X009443Y001455D03*
X009443Y001430D03*
X009443Y001405D03*
X009443Y001380D03*
X009443Y001355D03*
X009443Y001180D03*
X009443Y001155D03*
X009443Y001130D03*
X009443Y001105D03*
X009443Y001080D03*
X009443Y001055D03*
X009443Y001030D03*
X009443Y001005D03*
X009443Y000980D03*
X009443Y000955D03*
X009443Y000930D03*
X009443Y000905D03*
X009443Y000880D03*
X009443Y000855D03*
X009443Y000830D03*
X008343Y000880D03*
X008343Y000905D03*
X008243Y001180D03*
X008243Y001205D03*
X008193Y001305D03*
X008193Y001330D03*
X008193Y001355D03*
D148*
X006581Y001155D03*
X006106Y001430D03*
X006106Y001580D03*
X006056Y001030D03*
D149*
X006069Y001055D03*
D150*
X006724Y008086D02*
X006724Y008480D01*
X006921Y008480D01*
X006921Y010488D01*
X006922Y010488D02*
X006924Y010550D01*
X006930Y010611D01*
X006939Y010672D01*
X006953Y010733D01*
X006970Y010792D01*
X006991Y010850D01*
X007016Y010907D01*
X007044Y010962D01*
X007075Y011015D01*
X007110Y011066D01*
X007148Y011115D01*
X007189Y011162D01*
X007232Y011205D01*
X007279Y011246D01*
X007328Y011284D01*
X007379Y011319D01*
X007432Y011350D01*
X007487Y011378D01*
X007544Y011403D01*
X007602Y011424D01*
X007661Y011441D01*
X007722Y011455D01*
X007783Y011464D01*
X007844Y011470D01*
X007906Y011472D01*
X007968Y011470D01*
X008029Y011464D01*
X008090Y011455D01*
X008151Y011441D01*
X008210Y011424D01*
X008268Y011403D01*
X008325Y011378D01*
X008380Y011350D01*
X008433Y011319D01*
X008484Y011284D01*
X008533Y011246D01*
X008580Y011205D01*
X008623Y011162D01*
X008664Y011115D01*
X008702Y011066D01*
X008737Y011015D01*
X008768Y010962D01*
X008796Y010907D01*
X008821Y010850D01*
X008842Y010792D01*
X008859Y010733D01*
X008873Y010672D01*
X008882Y010611D01*
X008888Y010550D01*
X008890Y010488D01*
X008890Y008480D01*
X008890Y008086D01*
X006724Y008086D01*
X006921Y008480D02*
X008890Y008480D01*
X011724Y008480D02*
X011724Y008086D01*
X013890Y008086D01*
X013890Y008480D01*
X013890Y010488D01*
X013888Y010550D01*
X013882Y010611D01*
X013873Y010672D01*
X013859Y010733D01*
X013842Y010792D01*
X013821Y010850D01*
X013796Y010907D01*
X013768Y010962D01*
X013737Y011015D01*
X013702Y011066D01*
X013664Y011115D01*
X013623Y011162D01*
X013580Y011205D01*
X013533Y011246D01*
X013484Y011284D01*
X013433Y011319D01*
X013380Y011350D01*
X013325Y011378D01*
X013268Y011403D01*
X013210Y011424D01*
X013151Y011441D01*
X013090Y011455D01*
X013029Y011464D01*
X012968Y011470D01*
X012906Y011472D01*
X012844Y011470D01*
X012783Y011464D01*
X012722Y011455D01*
X012661Y011441D01*
X012602Y011424D01*
X012544Y011403D01*
X012487Y011378D01*
X012432Y011350D01*
X012379Y011319D01*
X012328Y011284D01*
X012279Y011246D01*
X012232Y011205D01*
X012189Y011162D01*
X012148Y011115D01*
X012110Y011066D01*
X012075Y011015D01*
X012044Y010962D01*
X012016Y010907D01*
X011991Y010850D01*
X011970Y010792D01*
X011953Y010733D01*
X011939Y010672D01*
X011930Y010611D01*
X011924Y010550D01*
X011922Y010488D01*
X011921Y010488D02*
X011921Y008480D01*
X013890Y008480D01*
X011921Y008480D02*
X011724Y008480D01*
X003890Y008480D02*
X003890Y008086D01*
X001724Y008086D01*
X001724Y008480D01*
X001921Y008480D01*
X001921Y010488D01*
X001922Y010488D02*
X001924Y010550D01*
X001930Y010611D01*
X001939Y010672D01*
X001953Y010733D01*
X001970Y010792D01*
X001991Y010850D01*
X002016Y010907D01*
X002044Y010962D01*
X002075Y011015D01*
X002110Y011066D01*
X002148Y011115D01*
X002189Y011162D01*
X002232Y011205D01*
X002279Y011246D01*
X002328Y011284D01*
X002379Y011319D01*
X002432Y011350D01*
X002487Y011378D01*
X002544Y011403D01*
X002602Y011424D01*
X002661Y011441D01*
X002722Y011455D01*
X002783Y011464D01*
X002844Y011470D01*
X002906Y011472D01*
X002968Y011470D01*
X003029Y011464D01*
X003090Y011455D01*
X003151Y011441D01*
X003210Y011424D01*
X003268Y011403D01*
X003325Y011378D01*
X003380Y011350D01*
X003433Y011319D01*
X003484Y011284D01*
X003533Y011246D01*
X003580Y011205D01*
X003623Y011162D01*
X003664Y011115D01*
X003702Y011066D01*
X003737Y011015D01*
X003768Y010962D01*
X003796Y010907D01*
X003821Y010850D01*
X003842Y010792D01*
X003859Y010733D01*
X003873Y010672D01*
X003882Y010611D01*
X003888Y010550D01*
X003890Y010488D01*
X003890Y008480D01*
X001921Y008480D01*
D151*
X002186Y008685D02*
X002412Y008685D01*
X002554Y008685D02*
X002781Y008685D01*
X002922Y008685D02*
X003092Y008685D01*
X003149Y008742D01*
X003149Y008969D01*
X003092Y009025D01*
X002922Y009025D01*
X002922Y008685D01*
X002667Y008855D02*
X002554Y008855D01*
X002554Y009025D02*
X002554Y008685D01*
X002554Y009025D02*
X002781Y009025D01*
X002186Y009025D02*
X002186Y008685D01*
X003291Y008742D02*
X003347Y008685D01*
X003461Y008685D01*
X003517Y008742D01*
X003517Y008799D01*
X003461Y008855D01*
X003404Y008855D01*
X003461Y008855D02*
X003517Y008912D01*
X003517Y008969D01*
X003461Y009025D01*
X003347Y009025D01*
X003291Y008969D01*
X007186Y009025D02*
X007186Y008685D01*
X007412Y008685D01*
X007554Y008685D02*
X007781Y008685D01*
X007922Y008685D02*
X008092Y008685D01*
X008149Y008742D01*
X008149Y008969D01*
X008092Y009025D01*
X007922Y009025D01*
X007922Y008685D01*
X007667Y008855D02*
X007554Y008855D01*
X007554Y009025D02*
X007554Y008685D01*
X007554Y009025D02*
X007781Y009025D01*
X008291Y008912D02*
X008404Y009025D01*
X008404Y008685D01*
X008291Y008685D02*
X008517Y008685D01*
X012186Y008685D02*
X012412Y008685D01*
X012554Y008685D02*
X012781Y008685D01*
X012922Y008685D02*
X013092Y008685D01*
X013149Y008742D01*
X013149Y008969D01*
X013092Y009025D01*
X012922Y009025D01*
X012922Y008685D01*
X012667Y008855D02*
X012554Y008855D01*
X012554Y009025D02*
X012554Y008685D01*
X012554Y009025D02*
X012781Y009025D01*
X013291Y008969D02*
X013347Y009025D01*
X013461Y009025D01*
X013517Y008969D01*
X013517Y008912D01*
X013291Y008685D01*
X013517Y008685D01*
X012186Y008685D02*
X012186Y009025D01*
M02*
