G75*
G70*
%OFA0B0*%
%FSLAX24Y24*%
%IPPOS*%
%LPD*%
%AMOC8*
5,1,8,0,0,1.08239X$1,22.5*
%
%ADD10C,0.0000*%
%ADD11R,0.0787X0.0315*%
%ADD12R,0.0315X0.0472*%
%ADD13R,0.0315X0.0551*%
%ADD14R,0.1417X0.1417*%
%ADD15R,0.0515X0.0515*%
%ADD16C,0.0515*%
%ADD17C,0.0240*%
%ADD18C,0.0100*%
D10*
X000656Y002155D02*
X000656Y018655D01*
X001526Y018655D02*
X001528Y018705D01*
X001534Y018755D01*
X001544Y018804D01*
X001558Y018852D01*
X001575Y018899D01*
X001596Y018944D01*
X001621Y018988D01*
X001649Y019029D01*
X001681Y019068D01*
X001715Y019105D01*
X001752Y019139D01*
X001792Y019169D01*
X001834Y019196D01*
X001878Y019220D01*
X001924Y019241D01*
X001971Y019257D01*
X002019Y019270D01*
X002069Y019279D01*
X002118Y019284D01*
X002169Y019285D01*
X002219Y019282D01*
X002268Y019275D01*
X002317Y019264D01*
X002365Y019249D01*
X002411Y019231D01*
X002456Y019209D01*
X002499Y019183D01*
X002540Y019154D01*
X002579Y019122D01*
X002615Y019087D01*
X002647Y019049D01*
X002677Y019009D01*
X002704Y018966D01*
X002727Y018922D01*
X002746Y018876D01*
X002762Y018828D01*
X002774Y018779D01*
X002782Y018730D01*
X002786Y018680D01*
X002786Y018630D01*
X002782Y018580D01*
X002774Y018531D01*
X002762Y018482D01*
X002746Y018434D01*
X002727Y018388D01*
X002704Y018344D01*
X002677Y018301D01*
X002647Y018261D01*
X002615Y018223D01*
X002579Y018188D01*
X002540Y018156D01*
X002499Y018127D01*
X002456Y018101D01*
X002411Y018079D01*
X002365Y018061D01*
X002317Y018046D01*
X002268Y018035D01*
X002219Y018028D01*
X002169Y018025D01*
X002118Y018026D01*
X002069Y018031D01*
X002019Y018040D01*
X001971Y018053D01*
X001924Y018069D01*
X001878Y018090D01*
X001834Y018114D01*
X001792Y018141D01*
X001752Y018171D01*
X001715Y018205D01*
X001681Y018242D01*
X001649Y018281D01*
X001621Y018322D01*
X001596Y018366D01*
X001575Y018411D01*
X001558Y018458D01*
X001544Y018506D01*
X001534Y018555D01*
X001528Y018605D01*
X001526Y018655D01*
X000656Y018655D02*
X000658Y018731D01*
X000664Y018807D01*
X000673Y018882D01*
X000687Y018957D01*
X000704Y019031D01*
X000725Y019104D01*
X000749Y019176D01*
X000778Y019247D01*
X000809Y019316D01*
X000844Y019383D01*
X000883Y019448D01*
X000925Y019512D01*
X000970Y019573D01*
X001018Y019632D01*
X001069Y019688D01*
X001123Y019742D01*
X001179Y019793D01*
X001238Y019841D01*
X001299Y019886D01*
X001363Y019928D01*
X001428Y019967D01*
X001495Y020002D01*
X001564Y020033D01*
X001635Y020062D01*
X001707Y020086D01*
X001780Y020107D01*
X001854Y020124D01*
X001929Y020138D01*
X002004Y020147D01*
X002080Y020153D01*
X002156Y020155D01*
X013656Y020155D01*
X013026Y018655D02*
X013028Y018705D01*
X013034Y018755D01*
X013044Y018804D01*
X013058Y018852D01*
X013075Y018899D01*
X013096Y018944D01*
X013121Y018988D01*
X013149Y019029D01*
X013181Y019068D01*
X013215Y019105D01*
X013252Y019139D01*
X013292Y019169D01*
X013334Y019196D01*
X013378Y019220D01*
X013424Y019241D01*
X013471Y019257D01*
X013519Y019270D01*
X013569Y019279D01*
X013618Y019284D01*
X013669Y019285D01*
X013719Y019282D01*
X013768Y019275D01*
X013817Y019264D01*
X013865Y019249D01*
X013911Y019231D01*
X013956Y019209D01*
X013999Y019183D01*
X014040Y019154D01*
X014079Y019122D01*
X014115Y019087D01*
X014147Y019049D01*
X014177Y019009D01*
X014204Y018966D01*
X014227Y018922D01*
X014246Y018876D01*
X014262Y018828D01*
X014274Y018779D01*
X014282Y018730D01*
X014286Y018680D01*
X014286Y018630D01*
X014282Y018580D01*
X014274Y018531D01*
X014262Y018482D01*
X014246Y018434D01*
X014227Y018388D01*
X014204Y018344D01*
X014177Y018301D01*
X014147Y018261D01*
X014115Y018223D01*
X014079Y018188D01*
X014040Y018156D01*
X013999Y018127D01*
X013956Y018101D01*
X013911Y018079D01*
X013865Y018061D01*
X013817Y018046D01*
X013768Y018035D01*
X013719Y018028D01*
X013669Y018025D01*
X013618Y018026D01*
X013569Y018031D01*
X013519Y018040D01*
X013471Y018053D01*
X013424Y018069D01*
X013378Y018090D01*
X013334Y018114D01*
X013292Y018141D01*
X013252Y018171D01*
X013215Y018205D01*
X013181Y018242D01*
X013149Y018281D01*
X013121Y018322D01*
X013096Y018366D01*
X013075Y018411D01*
X013058Y018458D01*
X013044Y018506D01*
X013034Y018555D01*
X013028Y018605D01*
X013026Y018655D01*
X013656Y020155D02*
X013732Y020153D01*
X013808Y020147D01*
X013883Y020138D01*
X013958Y020124D01*
X014032Y020107D01*
X014105Y020086D01*
X014177Y020062D01*
X014248Y020033D01*
X014317Y020002D01*
X014384Y019967D01*
X014449Y019928D01*
X014513Y019886D01*
X014574Y019841D01*
X014633Y019793D01*
X014689Y019742D01*
X014743Y019688D01*
X014794Y019632D01*
X014842Y019573D01*
X014887Y019512D01*
X014929Y019448D01*
X014968Y019383D01*
X015003Y019316D01*
X015034Y019247D01*
X015063Y019176D01*
X015087Y019104D01*
X015108Y019031D01*
X015125Y018957D01*
X015139Y018882D01*
X015148Y018807D01*
X015154Y018731D01*
X015156Y018655D01*
X015156Y002155D01*
X015154Y002079D01*
X015148Y002003D01*
X015139Y001928D01*
X015125Y001853D01*
X015108Y001779D01*
X015087Y001706D01*
X015063Y001634D01*
X015034Y001563D01*
X015003Y001494D01*
X014968Y001427D01*
X014929Y001362D01*
X014887Y001298D01*
X014842Y001237D01*
X014794Y001178D01*
X014743Y001122D01*
X014689Y001068D01*
X014633Y001017D01*
X014574Y000969D01*
X014513Y000924D01*
X014449Y000882D01*
X014384Y000843D01*
X014317Y000808D01*
X014248Y000777D01*
X014177Y000748D01*
X014105Y000724D01*
X014032Y000703D01*
X013958Y000686D01*
X013883Y000672D01*
X013808Y000663D01*
X013732Y000657D01*
X013656Y000655D01*
X002156Y000655D01*
X002080Y000657D01*
X002004Y000663D01*
X001929Y000672D01*
X001854Y000686D01*
X001780Y000703D01*
X001707Y000724D01*
X001635Y000748D01*
X001564Y000777D01*
X001495Y000808D01*
X001428Y000843D01*
X001363Y000882D01*
X001299Y000924D01*
X001238Y000969D01*
X001179Y001017D01*
X001123Y001068D01*
X001069Y001122D01*
X001018Y001178D01*
X000970Y001237D01*
X000925Y001298D01*
X000883Y001362D01*
X000844Y001427D01*
X000809Y001494D01*
X000778Y001563D01*
X000749Y001634D01*
X000725Y001706D01*
X000704Y001779D01*
X000687Y001853D01*
X000673Y001928D01*
X000664Y002003D01*
X000658Y002079D01*
X000656Y002155D01*
D11*
X002693Y013269D03*
X002693Y014450D03*
X002693Y015041D03*
D12*
X002358Y015631D03*
X002358Y012679D03*
D13*
X001453Y012718D03*
X001453Y015592D03*
D14*
X001941Y003905D03*
X013870Y003905D03*
D15*
X012406Y007405D03*
X007406Y007405D03*
X002406Y007405D03*
D16*
X003406Y007405D03*
X008406Y007405D03*
X013406Y007405D03*
D17*
X012406Y007405D02*
X012406Y007905D01*
X012156Y008155D01*
X007406Y008155D01*
X007406Y007405D01*
X007406Y008155D02*
X004906Y008155D01*
X004906Y013905D01*
X003770Y015041D01*
X002693Y015041D01*
X002693Y014450D02*
X003360Y014450D01*
X004156Y013655D01*
X004156Y012155D01*
X001656Y009655D01*
X001656Y004191D01*
X001941Y003905D01*
X002406Y007405D02*
X002406Y007905D01*
X002656Y008155D01*
X004906Y008155D01*
D18*
X000908Y001638D02*
X001085Y001333D01*
X001334Y001084D01*
X001639Y000908D01*
X001979Y000817D01*
X001979Y000817D01*
X002156Y000805D01*
X013656Y000805D01*
X013832Y000817D01*
X014172Y000908D01*
X014477Y001084D01*
X014727Y001333D01*
X014903Y001638D01*
X014994Y001979D01*
X015006Y002155D01*
X015006Y018593D01*
X015006Y018626D01*
X015006Y018655D01*
X014994Y018831D01*
X014903Y019172D01*
X014727Y019477D01*
X001084Y019477D01*
X001085Y019477D02*
X001334Y019726D01*
X001639Y019902D01*
X001979Y019994D01*
X002156Y020005D01*
X002201Y020005D01*
X002218Y020005D01*
X013656Y020005D01*
X013832Y019994D01*
X014172Y019902D01*
X014477Y019726D01*
X014727Y019477D01*
X014784Y019378D02*
X013947Y019378D01*
X013811Y019435D02*
X014097Y019316D01*
X014317Y019097D01*
X014435Y018810D01*
X014435Y018500D01*
X014317Y018213D01*
X014097Y017994D01*
X013811Y017875D01*
X013500Y017875D01*
X013214Y017994D01*
X012994Y018213D01*
X012876Y018500D01*
X012876Y018810D01*
X012994Y019097D01*
X013214Y019316D01*
X013500Y019435D01*
X013811Y019435D01*
X014134Y019280D02*
X014840Y019280D01*
X014897Y019181D02*
X014232Y019181D01*
X014323Y019083D02*
X014927Y019083D01*
X014953Y018984D02*
X014363Y018984D01*
X014404Y018886D02*
X014979Y018886D01*
X014997Y018787D02*
X014435Y018787D01*
X014435Y018689D02*
X015003Y018689D01*
X015006Y018590D02*
X014435Y018590D01*
X014432Y018491D02*
X015006Y018491D01*
X015006Y018393D02*
X014391Y018393D01*
X014350Y018294D02*
X015006Y018294D01*
X015006Y018196D02*
X014299Y018196D01*
X014201Y018097D02*
X015006Y018097D01*
X015006Y017999D02*
X014102Y017999D01*
X013871Y017900D02*
X015006Y017900D01*
X015006Y017802D02*
X000806Y017802D01*
X000806Y017900D02*
X001940Y017900D01*
X002000Y017875D02*
X002311Y017875D01*
X002597Y017994D01*
X002817Y018213D01*
X002935Y018500D01*
X002935Y018810D01*
X002817Y019097D01*
X002597Y019316D01*
X002311Y019435D01*
X002000Y019435D01*
X001714Y019316D01*
X001494Y019097D01*
X001376Y018810D01*
X001376Y018500D01*
X001494Y018213D01*
X001714Y017994D01*
X002000Y017875D01*
X001709Y017999D02*
X000806Y017999D01*
X000806Y018097D02*
X001610Y018097D01*
X001512Y018196D02*
X000806Y018196D01*
X000806Y018294D02*
X001461Y018294D01*
X001420Y018393D02*
X000806Y018393D01*
X000806Y018491D02*
X001379Y018491D01*
X001376Y018590D02*
X000806Y018590D01*
X000806Y018655D02*
X000817Y018831D01*
X000908Y019172D01*
X001085Y019477D01*
X001028Y019378D02*
X001864Y019378D01*
X001677Y019280D02*
X000971Y019280D01*
X000914Y019181D02*
X001579Y019181D01*
X001489Y019083D02*
X000884Y019083D01*
X000858Y018984D02*
X001448Y018984D01*
X001407Y018886D02*
X000832Y018886D01*
X000814Y018787D02*
X001376Y018787D01*
X001376Y018689D02*
X000808Y018689D01*
X000806Y018655D02*
X000806Y002217D01*
X000806Y002206D01*
X000806Y002155D01*
X000817Y001979D01*
X000908Y001638D01*
X000908Y001641D02*
X014903Y001641D01*
X014930Y001739D02*
X000881Y001739D01*
X000855Y001838D02*
X014956Y001838D01*
X014983Y001936D02*
X000829Y001936D01*
X000813Y002035D02*
X014998Y002035D01*
X015004Y002133D02*
X000807Y002133D01*
X000806Y002232D02*
X015006Y002232D01*
X015006Y002330D02*
X000806Y002330D01*
X000806Y002429D02*
X015006Y002429D01*
X015006Y002527D02*
X000806Y002527D01*
X000806Y002626D02*
X015006Y002626D01*
X015006Y002725D02*
X000806Y002725D01*
X000806Y002823D02*
X015006Y002823D01*
X015006Y002922D02*
X000806Y002922D01*
X000806Y003020D02*
X015006Y003020D01*
X015006Y003119D02*
X014707Y003119D01*
X014699Y003104D02*
X014719Y003139D01*
X014729Y003177D01*
X014729Y003855D01*
X013920Y003855D01*
X013920Y003046D01*
X014599Y003046D01*
X014637Y003057D01*
X014671Y003076D01*
X014699Y003104D01*
X014729Y003217D02*
X015006Y003217D01*
X015006Y003316D02*
X014729Y003316D01*
X014729Y003414D02*
X015006Y003414D01*
X015006Y003513D02*
X014729Y003513D01*
X014729Y003611D02*
X015006Y003611D01*
X015006Y003710D02*
X014729Y003710D01*
X014729Y003809D02*
X015006Y003809D01*
X015006Y003907D02*
X013920Y003907D01*
X013920Y003955D02*
X013920Y003855D01*
X013820Y003855D01*
X013011Y003855D01*
X013011Y003177D01*
X013022Y003139D01*
X013041Y003104D01*
X013069Y003076D01*
X013104Y003057D01*
X013142Y003046D01*
X013820Y003046D01*
X013820Y003855D01*
X013820Y003955D01*
X013011Y003955D01*
X013011Y004634D01*
X013022Y004672D01*
X013041Y004706D01*
X013069Y004734D01*
X013104Y004754D01*
X013142Y004764D01*
X013820Y004764D01*
X013820Y003955D01*
X013920Y003955D01*
X013920Y004764D01*
X014599Y004764D01*
X014637Y004754D01*
X014671Y004734D01*
X014699Y004706D01*
X014719Y004672D01*
X014729Y004634D01*
X014729Y003955D01*
X013920Y003955D01*
X013920Y004006D02*
X013820Y004006D01*
X013820Y004104D02*
X013920Y004104D01*
X013920Y004203D02*
X013820Y004203D01*
X013820Y004301D02*
X013920Y004301D01*
X013920Y004400D02*
X013820Y004400D01*
X013820Y004498D02*
X013920Y004498D01*
X013920Y004597D02*
X013820Y004597D01*
X013820Y004695D02*
X013920Y004695D01*
X013820Y003907D02*
X002780Y003907D01*
X002780Y003809D02*
X013011Y003809D01*
X013011Y003710D02*
X002780Y003710D01*
X002780Y003611D02*
X013011Y003611D01*
X013011Y003513D02*
X002780Y003513D01*
X002780Y003414D02*
X013011Y003414D01*
X013011Y003316D02*
X002780Y003316D01*
X002780Y003217D02*
X013011Y003217D01*
X013033Y003119D02*
X002756Y003119D01*
X002780Y003143D02*
X002704Y003066D01*
X001179Y003066D01*
X001102Y003143D01*
X001102Y004668D01*
X001179Y004744D01*
X001406Y004744D01*
X001406Y009705D01*
X001444Y009797D01*
X001514Y009867D01*
X003906Y012259D01*
X003906Y013552D01*
X003257Y014200D01*
X003178Y014200D01*
X003141Y014163D01*
X002245Y014163D01*
X002169Y014239D01*
X002169Y014662D01*
X002245Y014738D01*
X003141Y014738D01*
X003178Y014700D01*
X003311Y014700D01*
X003410Y014700D01*
X003502Y014662D01*
X004297Y013867D01*
X004297Y013867D01*
X004367Y013797D01*
X004406Y013705D01*
X004406Y012205D01*
X004406Y012105D01*
X004367Y012014D01*
X001906Y009552D01*
X001906Y004744D01*
X002704Y004744D01*
X002780Y004668D01*
X002780Y003143D01*
X002780Y004006D02*
X013011Y004006D01*
X013011Y004104D02*
X002780Y004104D01*
X002780Y004203D02*
X013011Y004203D01*
X013011Y004301D02*
X002780Y004301D01*
X002780Y004400D02*
X013011Y004400D01*
X013011Y004498D02*
X002780Y004498D01*
X002780Y004597D02*
X013011Y004597D01*
X013035Y004695D02*
X002752Y004695D01*
X001906Y004794D02*
X015006Y004794D01*
X015006Y004892D02*
X001906Y004892D01*
X001906Y004991D02*
X015006Y004991D01*
X015006Y005090D02*
X001906Y005090D01*
X001906Y005188D02*
X015006Y005188D01*
X015006Y005287D02*
X001906Y005287D01*
X001906Y005385D02*
X015006Y005385D01*
X015006Y005484D02*
X001906Y005484D01*
X001906Y005582D02*
X015006Y005582D01*
X015006Y005681D02*
X001906Y005681D01*
X001906Y005779D02*
X015006Y005779D01*
X015006Y005878D02*
X001906Y005878D01*
X001906Y005976D02*
X015006Y005976D01*
X015006Y006075D02*
X001906Y006075D01*
X001906Y006174D02*
X015006Y006174D01*
X015006Y006272D02*
X001906Y006272D01*
X001906Y006371D02*
X015006Y006371D01*
X015006Y006469D02*
X001906Y006469D01*
X001906Y006568D02*
X015006Y006568D01*
X015006Y006666D02*
X001906Y006666D01*
X001906Y006765D02*
X015006Y006765D01*
X015006Y006863D02*
X001906Y006863D01*
X001906Y006962D02*
X015006Y006962D01*
X015006Y007060D02*
X013624Y007060D01*
X013619Y007057D02*
X013671Y007094D01*
X013716Y007140D01*
X013754Y007192D01*
X013783Y007249D01*
X013803Y007310D01*
X013813Y007373D01*
X013813Y007376D01*
X013435Y007376D01*
X013435Y007434D01*
X013813Y007434D01*
X013813Y007437D01*
X013803Y007501D01*
X013783Y007562D01*
X013754Y007619D01*
X013716Y007671D01*
X013671Y007716D01*
X013619Y007754D01*
X013562Y007783D01*
X013501Y007803D01*
X013438Y007813D01*
X013434Y007813D01*
X013434Y007434D01*
X013377Y007434D01*
X013377Y007813D01*
X013374Y007813D01*
X013310Y007803D01*
X013249Y007783D01*
X013192Y007754D01*
X013140Y007716D01*
X013095Y007671D01*
X013057Y007619D01*
X013028Y007562D01*
X013008Y007501D01*
X012998Y007437D01*
X012998Y007434D01*
X013377Y007434D01*
X013377Y007376D01*
X013434Y007376D01*
X013434Y006998D01*
X013438Y006998D01*
X013501Y007008D01*
X013562Y007027D01*
X013619Y007057D01*
X013730Y007159D02*
X015006Y007159D01*
X015006Y007258D02*
X013786Y007258D01*
X013810Y007356D02*
X015006Y007356D01*
X015006Y007455D02*
X013810Y007455D01*
X013786Y007553D02*
X015006Y007553D01*
X015006Y007652D02*
X013730Y007652D01*
X013624Y007750D02*
X015006Y007750D01*
X015006Y007849D02*
X012656Y007849D01*
X012656Y007855D02*
X012656Y007955D01*
X012617Y008047D01*
X012367Y008297D01*
X012297Y008367D01*
X012205Y008405D01*
X007455Y008405D01*
X007356Y008405D01*
X005156Y008405D01*
X005156Y013955D01*
X005117Y014047D01*
X005047Y014117D01*
X003911Y015253D01*
X003819Y015291D01*
X003720Y015291D01*
X003178Y015291D01*
X003141Y015328D01*
X002633Y015328D01*
X002646Y015341D01*
X002646Y015922D01*
X002570Y015998D01*
X002147Y015998D01*
X002071Y015922D01*
X002071Y015341D01*
X002147Y015265D01*
X002182Y015265D01*
X002169Y015252D01*
X002169Y014830D01*
X002245Y014753D01*
X003141Y014753D01*
X003178Y014791D01*
X003666Y014791D01*
X004656Y013802D01*
X004656Y008405D01*
X002606Y008405D01*
X002514Y008367D01*
X002444Y008297D01*
X002194Y008047D01*
X002156Y007955D01*
X002156Y007855D01*
X002156Y007793D01*
X002094Y007793D01*
X002018Y007716D01*
X002018Y007094D01*
X002094Y007018D01*
X002717Y007018D01*
X002793Y007094D01*
X002793Y007716D01*
X002717Y007793D01*
X002656Y007793D01*
X002656Y007802D01*
X002759Y007905D01*
X004856Y007905D01*
X004955Y007905D01*
X007156Y007905D01*
X007156Y007793D01*
X007094Y007793D01*
X007018Y007716D01*
X007018Y007094D01*
X007094Y007018D01*
X007717Y007018D01*
X007793Y007094D01*
X007793Y007716D01*
X007717Y007793D01*
X007656Y007793D01*
X007656Y007905D01*
X012052Y007905D01*
X012156Y007802D01*
X012156Y007793D01*
X012094Y007793D01*
X012018Y007716D01*
X012018Y007094D01*
X012094Y007018D01*
X012717Y007018D01*
X012793Y007094D01*
X012793Y007716D01*
X012717Y007793D01*
X012656Y007793D01*
X012656Y007855D01*
X012656Y007947D02*
X015006Y007947D01*
X015006Y008046D02*
X012618Y008046D01*
X012520Y008144D02*
X015006Y008144D01*
X015006Y008243D02*
X012421Y008243D01*
X012323Y008341D02*
X015006Y008341D01*
X015006Y008440D02*
X005156Y008440D01*
X005156Y008539D02*
X015006Y008539D01*
X015006Y008637D02*
X005156Y008637D01*
X005156Y008736D02*
X015006Y008736D01*
X015006Y008834D02*
X005156Y008834D01*
X005156Y008933D02*
X015006Y008933D01*
X015006Y009031D02*
X005156Y009031D01*
X005156Y009130D02*
X015006Y009130D01*
X015006Y009228D02*
X005156Y009228D01*
X005156Y009327D02*
X015006Y009327D01*
X015006Y009425D02*
X005156Y009425D01*
X005156Y009524D02*
X015006Y009524D01*
X015006Y009623D02*
X005156Y009623D01*
X005156Y009721D02*
X015006Y009721D01*
X015006Y009820D02*
X005156Y009820D01*
X005156Y009918D02*
X015006Y009918D01*
X015006Y010017D02*
X005156Y010017D01*
X005156Y010115D02*
X015006Y010115D01*
X015006Y010214D02*
X005156Y010214D01*
X005156Y010312D02*
X015006Y010312D01*
X015006Y010411D02*
X005156Y010411D01*
X005156Y010509D02*
X015006Y010509D01*
X015006Y010608D02*
X005156Y010608D01*
X005156Y010707D02*
X015006Y010707D01*
X015006Y010805D02*
X005156Y010805D01*
X005156Y010904D02*
X015006Y010904D01*
X015006Y011002D02*
X005156Y011002D01*
X005156Y011101D02*
X015006Y011101D01*
X015006Y011199D02*
X005156Y011199D01*
X005156Y011298D02*
X015006Y011298D01*
X015006Y011396D02*
X005156Y011396D01*
X005156Y011495D02*
X015006Y011495D01*
X015006Y011593D02*
X005156Y011593D01*
X005156Y011692D02*
X015006Y011692D01*
X015006Y011791D02*
X005156Y011791D01*
X005156Y011889D02*
X015006Y011889D01*
X015006Y011988D02*
X005156Y011988D01*
X005156Y012086D02*
X015006Y012086D01*
X015006Y012185D02*
X005156Y012185D01*
X005156Y012283D02*
X015006Y012283D01*
X015006Y012382D02*
X005156Y012382D01*
X005156Y012480D02*
X015006Y012480D01*
X015006Y012579D02*
X005156Y012579D01*
X005156Y012677D02*
X015006Y012677D01*
X015006Y012776D02*
X005156Y012776D01*
X005156Y012874D02*
X015006Y012874D01*
X015006Y012973D02*
X005156Y012973D01*
X005156Y013072D02*
X015006Y013072D01*
X015006Y013170D02*
X005156Y013170D01*
X005156Y013269D02*
X015006Y013269D01*
X015006Y013367D02*
X005156Y013367D01*
X005156Y013466D02*
X015006Y013466D01*
X015006Y013564D02*
X005156Y013564D01*
X005156Y013663D02*
X015006Y013663D01*
X015006Y013761D02*
X005156Y013761D01*
X005156Y013860D02*
X015006Y013860D01*
X015006Y013958D02*
X005154Y013958D01*
X005107Y014057D02*
X015006Y014057D01*
X015006Y014156D02*
X005009Y014156D01*
X004910Y014254D02*
X015006Y014254D01*
X015006Y014353D02*
X004812Y014353D01*
X004713Y014451D02*
X015006Y014451D01*
X015006Y014550D02*
X004614Y014550D01*
X004516Y014648D02*
X015006Y014648D01*
X015006Y014747D02*
X004417Y014747D01*
X004319Y014845D02*
X015006Y014845D01*
X015006Y014944D02*
X004220Y014944D01*
X004122Y015042D02*
X015006Y015042D01*
X015006Y015141D02*
X004023Y015141D01*
X003925Y015240D02*
X015006Y015240D01*
X015006Y015338D02*
X002642Y015338D01*
X002646Y015437D02*
X015006Y015437D01*
X015006Y015535D02*
X002646Y015535D01*
X002646Y015634D02*
X015006Y015634D01*
X015006Y015732D02*
X002646Y015732D01*
X002646Y015831D02*
X015006Y015831D01*
X015006Y015929D02*
X002638Y015929D01*
X002079Y015929D02*
X001732Y015929D01*
X001740Y015922D02*
X001664Y015998D01*
X001241Y015998D01*
X001165Y015922D01*
X001165Y015263D01*
X001241Y015187D01*
X001664Y015187D01*
X001740Y015263D01*
X001740Y015922D01*
X001740Y015831D02*
X002071Y015831D01*
X002071Y015732D02*
X001740Y015732D01*
X001740Y015634D02*
X002071Y015634D01*
X002071Y015535D02*
X001740Y015535D01*
X001740Y015437D02*
X002071Y015437D01*
X002074Y015338D02*
X001740Y015338D01*
X001717Y015240D02*
X002169Y015240D01*
X002169Y015141D02*
X000806Y015141D01*
X000806Y015042D02*
X002169Y015042D01*
X002169Y014944D02*
X000806Y014944D01*
X000806Y014845D02*
X002169Y014845D01*
X002169Y014648D02*
X000806Y014648D01*
X000806Y014550D02*
X002169Y014550D01*
X002169Y014451D02*
X000806Y014451D01*
X000806Y014353D02*
X002169Y014353D01*
X002169Y014254D02*
X000806Y014254D01*
X000806Y014156D02*
X003302Y014156D01*
X003400Y014057D02*
X000806Y014057D01*
X000806Y013958D02*
X003499Y013958D01*
X003597Y013860D02*
X000806Y013860D01*
X000806Y013761D02*
X003696Y013761D01*
X003794Y013663D02*
X000806Y013663D01*
X000806Y013564D02*
X003893Y013564D01*
X003906Y013466D02*
X003217Y013466D01*
X003217Y013481D02*
X003141Y013557D01*
X002245Y013557D01*
X002169Y013481D01*
X002169Y013058D01*
X002182Y013045D01*
X002147Y013045D01*
X002071Y012969D01*
X002071Y012389D01*
X002147Y012313D01*
X002570Y012313D01*
X002646Y012389D01*
X002646Y012969D01*
X002633Y012982D01*
X003141Y012982D01*
X003217Y013058D01*
X003217Y013481D01*
X003217Y013367D02*
X003906Y013367D01*
X003906Y013269D02*
X003217Y013269D01*
X003217Y013170D02*
X003906Y013170D01*
X003906Y013072D02*
X003217Y013072D01*
X002646Y012874D02*
X003906Y012874D01*
X003906Y012776D02*
X002646Y012776D01*
X002646Y012677D02*
X003906Y012677D01*
X003906Y012579D02*
X002646Y012579D01*
X002646Y012480D02*
X003906Y012480D01*
X003906Y012382D02*
X002639Y012382D01*
X002078Y012382D02*
X001733Y012382D01*
X001740Y012389D02*
X001740Y013048D01*
X001664Y013124D01*
X001241Y013124D01*
X001165Y013048D01*
X001165Y012389D01*
X001241Y012313D01*
X001664Y012313D01*
X001740Y012389D01*
X001740Y012480D02*
X002071Y012480D01*
X002071Y012579D02*
X001740Y012579D01*
X001740Y012677D02*
X002071Y012677D01*
X002071Y012776D02*
X001740Y012776D01*
X001740Y012874D02*
X002071Y012874D01*
X002075Y012973D02*
X001740Y012973D01*
X001716Y013072D02*
X002169Y013072D01*
X002169Y013170D02*
X000806Y013170D01*
X000806Y013072D02*
X001189Y013072D01*
X001165Y012973D02*
X000806Y012973D01*
X000806Y012874D02*
X001165Y012874D01*
X001165Y012776D02*
X000806Y012776D01*
X000806Y012677D02*
X001165Y012677D01*
X001165Y012579D02*
X000806Y012579D01*
X000806Y012480D02*
X001165Y012480D01*
X001172Y012382D02*
X000806Y012382D01*
X000806Y012283D02*
X003906Y012283D01*
X003832Y012185D02*
X000806Y012185D01*
X000806Y012086D02*
X003733Y012086D01*
X003635Y011988D02*
X000806Y011988D01*
X000806Y011889D02*
X003536Y011889D01*
X003437Y011791D02*
X000806Y011791D01*
X000806Y011692D02*
X003339Y011692D01*
X003240Y011593D02*
X000806Y011593D01*
X000806Y011495D02*
X003142Y011495D01*
X003043Y011396D02*
X000806Y011396D01*
X000806Y011298D02*
X002945Y011298D01*
X002846Y011199D02*
X000806Y011199D01*
X000806Y011101D02*
X002748Y011101D01*
X002649Y011002D02*
X000806Y011002D01*
X000806Y010904D02*
X002551Y010904D01*
X002452Y010805D02*
X000806Y010805D01*
X000806Y010707D02*
X002354Y010707D01*
X002255Y010608D02*
X000806Y010608D01*
X000806Y010509D02*
X002156Y010509D01*
X002058Y010411D02*
X000806Y010411D01*
X000806Y010312D02*
X001959Y010312D01*
X001861Y010214D02*
X000806Y010214D01*
X000806Y010115D02*
X001762Y010115D01*
X001664Y010017D02*
X000806Y010017D01*
X000806Y009918D02*
X001565Y009918D01*
X001467Y009820D02*
X000806Y009820D01*
X000806Y009721D02*
X001412Y009721D01*
X001406Y009623D02*
X000806Y009623D01*
X000806Y009524D02*
X001406Y009524D01*
X001406Y009425D02*
X000806Y009425D01*
X000806Y009327D02*
X001406Y009327D01*
X001406Y009228D02*
X000806Y009228D01*
X000806Y009130D02*
X001406Y009130D01*
X001406Y009031D02*
X000806Y009031D01*
X000806Y008933D02*
X001406Y008933D01*
X001406Y008834D02*
X000806Y008834D01*
X000806Y008736D02*
X001406Y008736D01*
X001406Y008637D02*
X000806Y008637D01*
X000806Y008539D02*
X001406Y008539D01*
X001406Y008440D02*
X000806Y008440D01*
X000806Y008341D02*
X001406Y008341D01*
X001406Y008243D02*
X000806Y008243D01*
X000806Y008144D02*
X001406Y008144D01*
X001406Y008046D02*
X000806Y008046D01*
X000806Y007947D02*
X001406Y007947D01*
X001406Y007849D02*
X000806Y007849D01*
X000806Y007750D02*
X001406Y007750D01*
X001406Y007652D02*
X000806Y007652D01*
X000806Y007553D02*
X001406Y007553D01*
X001406Y007455D02*
X000806Y007455D01*
X000806Y007356D02*
X001406Y007356D01*
X001406Y007258D02*
X000806Y007258D01*
X000806Y007159D02*
X001406Y007159D01*
X001406Y007060D02*
X000806Y007060D01*
X000806Y006962D02*
X001406Y006962D01*
X001406Y006863D02*
X000806Y006863D01*
X000806Y006765D02*
X001406Y006765D01*
X001406Y006666D02*
X000806Y006666D01*
X000806Y006568D02*
X001406Y006568D01*
X001406Y006469D02*
X000806Y006469D01*
X000806Y006371D02*
X001406Y006371D01*
X001406Y006272D02*
X000806Y006272D01*
X000806Y006174D02*
X001406Y006174D01*
X001406Y006075D02*
X000806Y006075D01*
X000806Y005976D02*
X001406Y005976D01*
X001406Y005878D02*
X000806Y005878D01*
X000806Y005779D02*
X001406Y005779D01*
X001406Y005681D02*
X000806Y005681D01*
X000806Y005582D02*
X001406Y005582D01*
X001406Y005484D02*
X000806Y005484D01*
X000806Y005385D02*
X001406Y005385D01*
X001406Y005287D02*
X000806Y005287D01*
X000806Y005188D02*
X001406Y005188D01*
X001406Y005090D02*
X000806Y005090D01*
X000806Y004991D02*
X001406Y004991D01*
X001406Y004892D02*
X000806Y004892D01*
X000806Y004794D02*
X001406Y004794D01*
X001130Y004695D02*
X000806Y004695D01*
X000806Y004597D02*
X001102Y004597D01*
X001102Y004498D02*
X000806Y004498D01*
X000806Y004400D02*
X001102Y004400D01*
X001102Y004301D02*
X000806Y004301D01*
X000806Y004203D02*
X001102Y004203D01*
X001102Y004104D02*
X000806Y004104D01*
X000806Y004006D02*
X001102Y004006D01*
X001102Y003907D02*
X000806Y003907D01*
X000806Y003809D02*
X001102Y003809D01*
X001102Y003710D02*
X000806Y003710D01*
X000806Y003611D02*
X001102Y003611D01*
X001102Y003513D02*
X000806Y003513D01*
X000806Y003414D02*
X001102Y003414D01*
X001102Y003316D02*
X000806Y003316D01*
X000806Y003217D02*
X001102Y003217D01*
X001126Y003119D02*
X000806Y003119D01*
X000964Y001542D02*
X014847Y001542D01*
X014790Y001443D02*
X001021Y001443D01*
X001078Y001345D02*
X014733Y001345D01*
X014640Y001246D02*
X001171Y001246D01*
X001270Y001148D02*
X014541Y001148D01*
X014417Y001049D02*
X001394Y001049D01*
X001565Y000951D02*
X014247Y000951D01*
X013965Y000852D02*
X001847Y000852D01*
X001906Y007060D02*
X002051Y007060D01*
X002018Y007159D02*
X001906Y007159D01*
X001906Y007258D02*
X002018Y007258D01*
X002018Y007356D02*
X001906Y007356D01*
X001906Y007455D02*
X002018Y007455D01*
X002018Y007553D02*
X001906Y007553D01*
X001906Y007652D02*
X002018Y007652D01*
X002052Y007750D02*
X001906Y007750D01*
X001906Y007849D02*
X002156Y007849D01*
X002156Y007947D02*
X001906Y007947D01*
X001906Y008046D02*
X002193Y008046D01*
X002291Y008144D02*
X001906Y008144D01*
X001906Y008243D02*
X002390Y008243D01*
X002444Y008297D02*
X002444Y008297D01*
X002488Y008341D02*
X001906Y008341D01*
X001906Y008440D02*
X004656Y008440D01*
X004656Y008539D02*
X001906Y008539D01*
X001906Y008637D02*
X004656Y008637D01*
X004656Y008736D02*
X001906Y008736D01*
X001906Y008834D02*
X004656Y008834D01*
X004656Y008933D02*
X001906Y008933D01*
X001906Y009031D02*
X004656Y009031D01*
X004656Y009130D02*
X001906Y009130D01*
X001906Y009228D02*
X004656Y009228D01*
X004656Y009327D02*
X001906Y009327D01*
X001906Y009425D02*
X004656Y009425D01*
X004656Y009524D02*
X001906Y009524D01*
X001977Y009623D02*
X004656Y009623D01*
X004656Y009721D02*
X002075Y009721D01*
X002174Y009820D02*
X004656Y009820D01*
X004656Y009918D02*
X002272Y009918D01*
X002371Y010017D02*
X004656Y010017D01*
X004656Y010115D02*
X002469Y010115D01*
X002568Y010214D02*
X004656Y010214D01*
X004656Y010312D02*
X002666Y010312D01*
X002765Y010411D02*
X004656Y010411D01*
X004656Y010509D02*
X002863Y010509D01*
X002962Y010608D02*
X004656Y010608D01*
X004656Y010707D02*
X003061Y010707D01*
X003159Y010805D02*
X004656Y010805D01*
X004656Y010904D02*
X003258Y010904D01*
X003356Y011002D02*
X004656Y011002D01*
X004656Y011101D02*
X003455Y011101D01*
X003553Y011199D02*
X004656Y011199D01*
X004656Y011298D02*
X003652Y011298D01*
X003750Y011396D02*
X004656Y011396D01*
X004656Y011495D02*
X003849Y011495D01*
X003947Y011593D02*
X004656Y011593D01*
X004656Y011692D02*
X004046Y011692D01*
X004144Y011791D02*
X004656Y011791D01*
X004656Y011889D02*
X004243Y011889D01*
X004342Y011988D02*
X004656Y011988D01*
X004656Y012086D02*
X004398Y012086D01*
X004406Y012185D02*
X004656Y012185D01*
X004656Y012283D02*
X004406Y012283D01*
X004406Y012382D02*
X004656Y012382D01*
X004656Y012480D02*
X004406Y012480D01*
X004406Y012579D02*
X004656Y012579D01*
X004656Y012677D02*
X004406Y012677D01*
X004406Y012776D02*
X004656Y012776D01*
X004656Y012874D02*
X004406Y012874D01*
X004406Y012973D02*
X004656Y012973D01*
X004656Y013072D02*
X004406Y013072D01*
X004406Y013170D02*
X004656Y013170D01*
X004656Y013269D02*
X004406Y013269D01*
X004406Y013367D02*
X004656Y013367D01*
X004656Y013466D02*
X004406Y013466D01*
X004406Y013564D02*
X004656Y013564D01*
X004656Y013663D02*
X004406Y013663D01*
X004382Y013761D02*
X004656Y013761D01*
X004597Y013860D02*
X004304Y013860D01*
X004206Y013958D02*
X004499Y013958D01*
X004400Y014057D02*
X004107Y014057D01*
X004009Y014156D02*
X004302Y014156D01*
X004203Y014254D02*
X003910Y014254D01*
X003812Y014353D02*
X004105Y014353D01*
X004006Y014451D02*
X003713Y014451D01*
X003614Y014550D02*
X003907Y014550D01*
X003809Y014648D02*
X003516Y014648D01*
X003710Y014747D02*
X000806Y014747D01*
X000806Y015240D02*
X001189Y015240D01*
X001165Y015338D02*
X000806Y015338D01*
X000806Y015437D02*
X001165Y015437D01*
X001165Y015535D02*
X000806Y015535D01*
X000806Y015634D02*
X001165Y015634D01*
X001165Y015732D02*
X000806Y015732D01*
X000806Y015831D02*
X001165Y015831D01*
X001173Y015929D02*
X000806Y015929D01*
X000806Y016028D02*
X015006Y016028D01*
X015006Y016126D02*
X000806Y016126D01*
X000806Y016225D02*
X015006Y016225D01*
X015006Y016324D02*
X000806Y016324D01*
X000806Y016422D02*
X015006Y016422D01*
X015006Y016521D02*
X000806Y016521D01*
X000806Y016619D02*
X015006Y016619D01*
X015006Y016718D02*
X000806Y016718D01*
X000806Y016816D02*
X015006Y016816D01*
X015006Y016915D02*
X000806Y016915D01*
X000806Y017013D02*
X015006Y017013D01*
X015006Y017112D02*
X000806Y017112D01*
X000806Y017210D02*
X015006Y017210D01*
X015006Y017309D02*
X000806Y017309D01*
X000806Y017407D02*
X015006Y017407D01*
X015006Y017506D02*
X000806Y017506D01*
X000806Y017605D02*
X015006Y017605D01*
X015006Y017703D02*
X000806Y017703D01*
X001183Y019575D02*
X014628Y019575D01*
X014530Y019674D02*
X001282Y019674D01*
X001414Y019773D02*
X014397Y019773D01*
X014226Y019871D02*
X001585Y019871D01*
X001890Y019970D02*
X013921Y019970D01*
X013364Y019378D02*
X002447Y019378D01*
X002634Y019280D02*
X013177Y019280D01*
X013079Y019181D02*
X002732Y019181D01*
X002823Y019083D02*
X012989Y019083D01*
X012948Y018984D02*
X002863Y018984D01*
X002904Y018886D02*
X012907Y018886D01*
X012876Y018787D02*
X002935Y018787D01*
X002935Y018689D02*
X012876Y018689D01*
X012876Y018590D02*
X002935Y018590D01*
X002932Y018491D02*
X012879Y018491D01*
X012920Y018393D02*
X002891Y018393D01*
X002850Y018294D02*
X012961Y018294D01*
X013012Y018196D02*
X002799Y018196D01*
X002701Y018097D02*
X013110Y018097D01*
X013209Y017999D02*
X002602Y017999D01*
X002371Y017900D02*
X013440Y017900D01*
X012108Y007849D02*
X007656Y007849D01*
X007759Y007750D02*
X008187Y007750D01*
X008192Y007754D02*
X008140Y007716D01*
X008095Y007671D01*
X008057Y007619D01*
X008028Y007562D01*
X008008Y007501D01*
X007998Y007437D01*
X007998Y007434D01*
X008377Y007434D01*
X008377Y007813D01*
X008374Y007813D01*
X008310Y007803D01*
X008249Y007783D01*
X008192Y007754D01*
X008081Y007652D02*
X007793Y007652D01*
X007793Y007553D02*
X008025Y007553D01*
X008001Y007455D02*
X007793Y007455D01*
X007793Y007356D02*
X008001Y007356D01*
X007998Y007373D02*
X008008Y007310D01*
X008028Y007249D01*
X008057Y007192D01*
X008095Y007140D01*
X008140Y007094D01*
X008192Y007057D01*
X008249Y007027D01*
X008310Y007008D01*
X008374Y006998D01*
X008377Y006998D01*
X008377Y007376D01*
X008434Y007376D01*
X008434Y006998D01*
X008438Y006998D01*
X008501Y007008D01*
X008562Y007027D01*
X008619Y007057D01*
X008671Y007094D01*
X008716Y007140D01*
X008754Y007192D01*
X008783Y007249D01*
X008803Y007310D01*
X008813Y007373D01*
X008813Y007376D01*
X008435Y007376D01*
X008435Y007434D01*
X008813Y007434D01*
X008813Y007437D01*
X008803Y007501D01*
X008783Y007562D01*
X008754Y007619D01*
X008716Y007671D01*
X008671Y007716D01*
X008619Y007754D01*
X008562Y007783D01*
X008501Y007803D01*
X008438Y007813D01*
X008434Y007813D01*
X008434Y007434D01*
X008377Y007434D01*
X008377Y007376D01*
X007998Y007376D01*
X007998Y007373D01*
X008025Y007258D02*
X007793Y007258D01*
X007793Y007159D02*
X008081Y007159D01*
X008187Y007060D02*
X007760Y007060D01*
X008377Y007060D02*
X008434Y007060D01*
X008434Y007159D02*
X008377Y007159D01*
X008377Y007258D02*
X008434Y007258D01*
X008434Y007356D02*
X008377Y007356D01*
X008377Y007455D02*
X008434Y007455D01*
X008434Y007553D02*
X008377Y007553D01*
X008377Y007652D02*
X008434Y007652D01*
X008434Y007750D02*
X008377Y007750D01*
X008624Y007750D02*
X012052Y007750D01*
X012018Y007652D02*
X008730Y007652D01*
X008786Y007553D02*
X012018Y007553D01*
X012018Y007455D02*
X008810Y007455D01*
X008810Y007356D02*
X012018Y007356D01*
X012018Y007258D02*
X008786Y007258D01*
X008730Y007159D02*
X012018Y007159D01*
X012051Y007060D02*
X008624Y007060D01*
X007051Y007060D02*
X003624Y007060D01*
X003619Y007057D02*
X003671Y007094D01*
X003716Y007140D01*
X003754Y007192D01*
X003783Y007249D01*
X003803Y007310D01*
X003813Y007373D01*
X003813Y007376D01*
X003435Y007376D01*
X003435Y007434D01*
X003813Y007434D01*
X003813Y007437D01*
X003803Y007501D01*
X003783Y007562D01*
X003754Y007619D01*
X003716Y007671D01*
X003671Y007716D01*
X003619Y007754D01*
X003562Y007783D01*
X003501Y007803D01*
X003438Y007813D01*
X003434Y007813D01*
X003434Y007434D01*
X003377Y007434D01*
X003377Y007813D01*
X003374Y007813D01*
X003310Y007803D01*
X003249Y007783D01*
X003192Y007754D01*
X003140Y007716D01*
X003095Y007671D01*
X003057Y007619D01*
X003028Y007562D01*
X003008Y007501D01*
X002998Y007437D01*
X002998Y007434D01*
X003377Y007434D01*
X003377Y007376D01*
X003434Y007376D01*
X003434Y006998D01*
X003438Y006998D01*
X003501Y007008D01*
X003562Y007027D01*
X003619Y007057D01*
X003730Y007159D02*
X007018Y007159D01*
X007018Y007258D02*
X003786Y007258D01*
X003810Y007356D02*
X007018Y007356D01*
X007018Y007455D02*
X003810Y007455D01*
X003786Y007553D02*
X007018Y007553D01*
X007018Y007652D02*
X003730Y007652D01*
X003624Y007750D02*
X007052Y007750D01*
X007156Y007849D02*
X002703Y007849D01*
X002759Y007750D02*
X003187Y007750D01*
X003081Y007652D02*
X002793Y007652D01*
X002793Y007553D02*
X003025Y007553D01*
X003001Y007455D02*
X002793Y007455D01*
X002793Y007356D02*
X003001Y007356D01*
X002998Y007373D02*
X003008Y007310D01*
X003028Y007249D01*
X003057Y007192D01*
X003095Y007140D01*
X003140Y007094D01*
X003192Y007057D01*
X003249Y007027D01*
X003310Y007008D01*
X003374Y006998D01*
X003377Y006998D01*
X003377Y007376D01*
X002998Y007376D01*
X002998Y007373D01*
X003025Y007258D02*
X002793Y007258D01*
X002793Y007159D02*
X003081Y007159D01*
X003187Y007060D02*
X002760Y007060D01*
X003377Y007060D02*
X003434Y007060D01*
X003434Y007159D02*
X003377Y007159D01*
X003377Y007258D02*
X003434Y007258D01*
X003434Y007356D02*
X003377Y007356D01*
X003377Y007455D02*
X003434Y007455D01*
X003434Y007553D02*
X003377Y007553D01*
X003377Y007652D02*
X003434Y007652D01*
X003434Y007750D02*
X003377Y007750D01*
X003906Y012973D02*
X002642Y012973D01*
X002169Y013269D02*
X000806Y013269D01*
X000806Y013367D02*
X002169Y013367D01*
X002169Y013466D02*
X000806Y013466D01*
X012759Y007750D02*
X013187Y007750D01*
X013081Y007652D02*
X012793Y007652D01*
X012793Y007553D02*
X013025Y007553D01*
X013001Y007455D02*
X012793Y007455D01*
X012793Y007356D02*
X013001Y007356D01*
X012998Y007373D02*
X013008Y007310D01*
X013028Y007249D01*
X013057Y007192D01*
X013095Y007140D01*
X013140Y007094D01*
X013192Y007057D01*
X013249Y007027D01*
X013310Y007008D01*
X013374Y006998D01*
X013377Y006998D01*
X013377Y007376D01*
X012998Y007376D01*
X012998Y007373D01*
X013025Y007258D02*
X012793Y007258D01*
X012793Y007159D02*
X013081Y007159D01*
X013187Y007060D02*
X012760Y007060D01*
X013377Y007060D02*
X013434Y007060D01*
X013434Y007159D02*
X013377Y007159D01*
X013377Y007258D02*
X013434Y007258D01*
X013434Y007356D02*
X013377Y007356D01*
X013377Y007455D02*
X013434Y007455D01*
X013434Y007553D02*
X013377Y007553D01*
X013377Y007652D02*
X013434Y007652D01*
X013434Y007750D02*
X013377Y007750D01*
X014705Y004695D02*
X015006Y004695D01*
X015006Y004597D02*
X014729Y004597D01*
X014729Y004498D02*
X015006Y004498D01*
X015006Y004400D02*
X014729Y004400D01*
X014729Y004301D02*
X015006Y004301D01*
X015006Y004203D02*
X014729Y004203D01*
X014729Y004104D02*
X015006Y004104D01*
X015006Y004006D02*
X014729Y004006D01*
X013920Y003809D02*
X013820Y003809D01*
X013820Y003710D02*
X013920Y003710D01*
X013920Y003611D02*
X013820Y003611D01*
X013820Y003513D02*
X013920Y003513D01*
X013920Y003414D02*
X013820Y003414D01*
X013820Y003316D02*
X013920Y003316D01*
X013920Y003217D02*
X013820Y003217D01*
X013820Y003119D02*
X013920Y003119D01*
M02*
